<svg width="16" height="16" viewBox="0 0 16 16" fill="none" xmlns="http://www.w3.org/2000/svg">
<g clip-path="url(#clip0)">
<path d="M12.2844 3.14781C12.5897 3.14781 12.8373 2.90026 12.8373 2.5949C12.8373 2.28954 12.5897 2.04199 12.2844 2.04199C11.979 2.04199 11.7314 2.28954 11.7314 2.5949C11.7314 2.90026 11.979 3.14781 12.2844 3.14781Z" fill="white"/>
<path d="M15.8747 1.50952L15.7845 1.11455L14.9091 1.09208L14.8866 0.216678L14.4917 0.12646C13.5336 -0.0923841 12.1817 -0.0243529 10.8756 0.308522C9.72915 0.60071 8.07453 1.23705 6.70246 2.60912C4.4219 4.88968 3.69878 7.47493 3.77656 9.36734C2.36665 9.26459 0.807587 9.77565 0.256024 10.4014C0.0135869 10.6764 -0.0602568 11.0029 0.0534932 11.2969C0.267837 11.8509 0.857275 11.9567 1.42727 12.059C2.01202 12.164 2.67484 12.2829 3.19653 12.8046C3.71821 13.3264 3.83718 13.9892 3.94215 14.5739C4.04443 15.1439 4.15024 15.7333 4.70428 15.9477C4.79484 15.9827 4.88846 16 4.98271 16C5.19449 16 5.40946 15.9129 5.59978 15.7451C6.22549 15.1936 6.73631 13.6346 6.63381 12.2246C8.52634 12.3023 11.1114 11.5793 13.392 9.29871C14.7641 7.92665 15.4004 6.27202 15.6926 5.12555C16.0255 3.81943 16.0936 2.46762 15.8747 1.50952ZM12.6542 8.56096C11.6419 9.57327 10.4516 10.3385 9.21209 10.774C8.13912 11.1509 7.03399 11.2758 6.10012 11.1254L5.32065 11L5.51087 11.7662C5.65421 12.3435 5.62859 13.0907 5.44068 13.8162C5.31934 14.2848 5.1669 14.6051 5.04849 14.7901C5.01884 14.6671 4.99162 14.5155 4.96903 14.3896C4.85015 13.7272 4.68731 12.82 3.93421 12.0669C3.18115 11.3138 2.27393 11.151 1.61149 11.0321C1.48562 11.0095 1.33406 10.9822 1.21109 10.9526C1.39609 10.8342 1.71637 10.6817 2.1849 10.5604C2.91049 10.3726 3.65768 10.347 4.23493 10.4902L5.00112 10.6805L4.87571 9.90105C4.72543 8.96715 4.85024 7.86196 5.22712 6.78905C5.66256 5.54952 6.42781 4.35927 7.44015 3.34693C7.76856 3.01858 8.11656 2.73821 8.46971 2.49837C8.84575 3.6289 9.50803 4.68659 10.4113 5.58984C11.3145 6.49309 12.3722 7.1554 13.5027 7.5314C13.2629 7.88452 12.9826 8.23255 12.6542 8.56096ZM14.6815 4.86787C14.5542 5.36752 14.3539 5.97493 14.0413 6.60615C12.9948 6.29618 11.9802 5.68302 11.1491 4.85202C10.3181 4.02102 9.70493 3.0063 9.39499 1.95987C10.0262 1.6473 10.6337 1.44696 11.1333 1.31965C12.2412 1.03727 13.2091 1.00405 13.865 1.07852L13.8914 2.10971L14.9226 2.13618C14.9971 2.79215 14.9639 3.75993 14.6815 4.86787Z" fill="white"/>
</g>
<defs>
<clipPath id="clip0">
<rect width="16" height="16" fill="white"/>
</clipPath>
</defs>
</svg>
