<svg width="12" height="16" viewBox="0 0 12 16" fill="none" xmlns="http://www.w3.org/2000/svg">
<path d="M5.99957 0C4.28893 0 2.23064 2.1023 1.08112 4.17871C-0.167164 6.43469 -0.343113 8.50121 0.598235 9.8488C1.3031 10.8577 2.55032 11.4018 4.30451 11.4857C4.18202 12.7174 3.72037 13.3958 3.23465 14.1062C3.041 14.3897 2.84027 14.6827 2.66715 15.0071C2.66325 15.0143 2.66184 15.0218 2.6583 15.0289C2.64732 15.0511 2.63847 15.0742 2.62998 15.0977C2.62254 15.1179 2.61546 15.138 2.6105 15.1584C2.60519 15.1795 2.60201 15.2006 2.59882 15.2221C2.59528 15.2463 2.5921 15.2708 2.59139 15.295C2.59139 15.3029 2.58891 15.3107 2.58891 15.3185C2.58891 15.3311 2.59209 15.3431 2.5928 15.3557C2.59422 15.3799 2.59634 15.4041 2.60024 15.4276C2.60413 15.4494 2.60909 15.4705 2.61475 15.4916C2.62077 15.5128 2.62679 15.5329 2.63493 15.5533C2.64307 15.5748 2.65228 15.5956 2.6629 15.616C2.67246 15.6351 2.68273 15.6535 2.69441 15.6719C2.70645 15.691 2.71954 15.709 2.73335 15.7267C2.7468 15.7441 2.76096 15.7605 2.77619 15.7765C2.79212 15.7935 2.80911 15.8092 2.82681 15.8242C2.84274 15.8382 2.85903 15.8514 2.87673 15.8637C2.89797 15.879 2.92028 15.8923 2.94329 15.9053C2.95391 15.9111 2.96276 15.9189 2.97373 15.9244C2.97975 15.9274 2.98648 15.9284 2.9925 15.9312C3.02825 15.9479 3.06542 15.9605 3.10401 15.971C3.11711 15.9748 3.1295 15.9796 3.14225 15.9823C3.1911 15.9928 3.24137 15.9993 3.29342 15.9997C3.29448 15.9997 3.29554 16 3.2966 16C3.2966 16 3.2966 16 3.29696 16H8.70183H8.70219H8.70254C8.70396 16 8.70537 15.9997 8.70679 15.9997C8.75848 15.9993 8.80839 15.9928 8.85689 15.9823C8.86999 15.9796 8.88238 15.9744 8.89548 15.971C8.93372 15.9605 8.97124 15.9475 9.00665 15.9312C9.01266 15.9284 9.01904 15.9274 9.02541 15.9244C9.03639 15.9186 9.04559 15.9111 9.05621 15.9049C9.07887 15.8923 9.10117 15.879 9.12241 15.8637C9.14011 15.8514 9.15675 15.8382 9.17268 15.8242C9.19039 15.8089 9.20702 15.7935 9.22331 15.7765C9.23853 15.7605 9.25269 15.7434 9.26615 15.7264C9.27995 15.7087 9.2927 15.691 9.30473 15.6722C9.31642 15.6535 9.32704 15.6347 9.33695 15.6153C9.34686 15.5952 9.35607 15.5751 9.36421 15.554C9.372 15.5332 9.37873 15.5121 9.38474 15.4906C9.39041 15.4698 9.39501 15.4497 9.39891 15.4283C9.40315 15.4037 9.40528 15.3789 9.40634 15.3536C9.40705 15.3417 9.41023 15.3305 9.41023 15.3182C9.41023 15.3107 9.40811 15.3032 9.40775 15.2957C9.40705 15.2705 9.40351 15.2453 9.39997 15.2197C9.39678 15.1993 9.39395 15.1792 9.38899 15.1594C9.38368 15.138 9.37625 15.1168 9.36846 15.0954C9.36032 15.0729 9.35182 15.0507 9.34155 15.0296C9.33766 15.0221 9.33624 15.0139 9.33235 15.0068C9.15923 14.6831 8.95885 14.3897 8.76485 14.1062C8.27948 13.3958 7.81784 12.7171 7.69534 11.485C9.44953 11.4015 10.6971 10.8574 11.4016 9.8488C12.3433 8.50087 12.167 6.43435 10.9187 4.17837C9.76851 2.1023 7.71021 0 5.99957 0ZM6.27252 11.4611C6.39431 12.9794 6.93667 13.8994 7.43301 14.6367H4.56578C5.06212 13.8997 5.60519 12.9794 5.72697 11.4611C5.8176 11.4543 5.90682 11.4492 5.99993 11.4404C6.09268 11.4492 6.18189 11.4547 6.27252 11.4611ZM10.2259 9.08829C9.47042 10.1701 7.55834 10.2256 6.08206 10.0802C6.05232 10.0767 6.02117 10.0778 5.99037 10.0785C5.967 10.0788 5.94293 10.0774 5.91992 10.0798C4.44435 10.2246 2.52908 10.1708 1.77359 9.08829C1.14308 8.1857 1.3516 6.58972 2.33153 4.81929C3.47538 2.75174 5.15169 1.36292 5.99957 1.36292C6.84746 1.36292 8.52376 2.75208 9.66796 4.81963C10.6479 6.59006 10.8564 8.1857 10.2259 9.08829Z" fill="white"/>
</svg>
