<svg width="16" height="16" viewBox="0 0 16 16" fill="none" xmlns="http://www.w3.org/2000/svg">
<path d="M3.75 2.75C4.02575 2.75 4.25 2.97425 4.25 3.25V3.75H4.75V3.25C4.75 2.95 4.6145 2.6835 4.4045 2.5C4.6145 2.3165 4.75 2.05 4.75 1.75V1.25H4.25V1.75C4.25 2.02575 4.02575 2.25 3.75 2.25V1.25H3.25V3.75H3.75V2.75Z" fill="white"/>
<path d="M5.5 3.75H6.5V3.25H5.75V2.75H6.5V2.25H5.75V1.75H6.5V1.25H5.5C5.362 1.25 5.25 1.362 5.25 1.5V3.5C5.25 3.638 5.362 3.75 5.5 3.75Z" fill="white"/>
<path d="M7.5 2.37176L8.288 3.63251C8.3345 3.70701 8.4155 3.75001 8.5 3.75001C8.523 3.75001 8.54625 3.74676 8.569 3.74026C8.67625 3.70951 8.75 3.61151 8.75 3.50001V1.25001H8.25V2.62826L7.462 1.36751C7.403 1.27276 7.288 1.22926 7.181 1.25951C7.07375 1.29051 7 1.38851 7 1.50001V3.75001H7.5V2.37176Z" fill="white"/>
<path d="M10.25 3.75C10.8015 3.75 11.25 3.3015 11.25 2.75V2.25C11.25 1.6985 10.8015 1.25 10.25 1.25C9.6985 1.25 9.25 1.6985 9.25 2.25V2.75C9.25 3.3015 9.6985 3.75 10.25 3.75ZM9.75 2.25C9.75 1.97425 9.97425 1.75 10.25 1.75C10.5258 1.75 10.75 1.97425 10.75 2.25V2.75C10.75 3.02575 10.5258 3.25 10.25 3.25C9.97425 3.25 9.75 3.02575 9.75 2.75V2.25Z" fill="white"/>
<path d="M3 5.25H1.5C1.362 5.25 1.25 5.362 1.25 5.5V7C1.25 7.138 1.362 7.25 1.5 7.25H3C3.138 7.25 3.25 7.138 3.25 7V5.5C3.25 5.362 3.138 5.25 3 5.25ZM2.75 6.75H1.75V5.75H2.75V6.75Z" fill="white"/>
<path d="M5.5 5.25H4C3.862 5.25 3.75 5.362 3.75 5.5V7C3.75 7.138 3.862 7.25 4 7.25H5.5C5.638 7.25 5.75 7.138 5.75 7V5.5C5.75 5.362 5.638 5.25 5.5 5.25ZM5.25 6.75H4.25V5.75H5.25V6.75Z" fill="white"/>
<path d="M6.5 7.25H8C8.138 7.25 8.25 7.138 8.25 7V5.5C8.25 5.362 8.138 5.25 8 5.25H6.5C6.362 5.25 6.25 5.362 6.25 5.5V7C6.25 7.138 6.362 7.25 6.5 7.25ZM6.75 5.75H7.75V6.75H6.75V5.75Z" fill="white"/>
<path d="M9 7.25H10.5C10.638 7.25 10.75 7.138 10.75 7V5.5C10.75 5.362 10.638 5.25 10.5 5.25H9C8.862 5.25 8.75 5.362 8.75 5.5V7C8.75 7.138 8.862 7.25 9 7.25ZM9.25 5.75H10.25V6.75H9.25V5.75Z" fill="white"/>
<path d="M6.5 9.75H8C8.138 9.75 8.25 9.63825 8.25 9.5V8C8.25 7.862 8.138 7.75 8 7.75H6.5C6.362 7.75 6.25 7.862 6.25 8V9.5C6.25 9.63825 6.362 9.75 6.5 9.75ZM6.75 8.25H7.75V9.25H6.75V8.25Z" fill="white"/>
<path d="M5.5 7.75H4C3.862 7.75 3.75 7.862 3.75 8V9.5C3.75 9.63825 3.862 9.75 4 9.75H5.5C5.638 9.75 5.75 9.63825 5.75 9.5V8C5.75 7.862 5.638 7.75 5.5 7.75ZM5.25 9.25H4.25V8.25H5.25V9.25Z" fill="white"/>
<path d="M3 7.75H1.5C1.362 7.75 1.25 7.862 1.25 8V9.5C1.25 9.63825 1.362 9.75 1.5 9.75H3C3.138 9.75 3.25 9.63825 3.25 9.5V8C3.25 7.862 3.138 7.75 3 7.75ZM2.75 9.25H1.75V8.25H2.75V9.25Z" fill="white"/>
<path d="M3 10.25H1.5C1.362 10.25 1.25 10.3618 1.25 10.5V12C1.25 12.1382 1.362 12.25 1.5 12.25H3C3.138 12.25 3.25 12.1382 3.25 12V10.5C3.25 10.3618 3.138 10.25 3 10.25ZM2.75 11.75H1.75V10.75H2.75V11.75Z" fill="white"/>
<path d="M5.5 10.25H4C3.862 10.25 3.75 10.3618 3.75 10.5V12C3.75 12.1382 3.862 12.25 4 12.25H5.5C5.638 12.25 5.75 12.1382 5.75 12V10.5C5.75 10.3618 5.638 10.25 5.5 10.25ZM5.25 11.75H4.25V10.75H5.25V11.75Z" fill="white"/>
<path d="M13 10.25H11.5C11.362 10.25 11.25 10.3618 11.25 10.5V12C11.25 12.1382 11.362 12.25 11.5 12.25H13C13.138 12.25 13.25 12.1382 13.25 12V10.5C13.25 10.3618 13.138 10.25 13 10.25ZM12.75 11.75H11.75V10.75H12.75V11.75Z" fill="white"/>
<path d="M3 12.75H1.5C1.362 12.75 1.25 12.8618 1.25 13V14.5C1.25 14.6382 1.362 14.75 1.5 14.75H3C3.138 14.75 3.25 14.6382 3.25 14.5V13C3.25 12.8618 3.138 12.75 3 12.75ZM2.75 14.25H1.75V13.25H2.75V14.25Z" fill="white"/>
<path d="M5.5 12.75H4C3.862 12.75 3.75 12.8618 3.75 13V14.5C3.75 14.6382 3.862 14.75 4 14.75H5.5C5.638 14.75 5.75 14.6382 5.75 14.5V13C5.75 12.8618 5.638 12.75 5.5 12.75ZM5.25 14.25H4.25V13.25H5.25V14.25Z" fill="white"/>
<path d="M7.75 14.25H6.75V13.4978H6.25V14.5C6.25 14.6382 6.362 14.75 6.5 14.75H8C8.138 14.75 8.25 14.6382 8.25 14.5V13H7.75V14.25Z" fill="white"/>
<path d="M10.5 12.75H9C8.862 12.75 8.75 12.8618 8.75 13V14.5C8.75 14.6382 8.862 14.75 9 14.75H10.5C10.638 14.75 10.75 14.6382 10.75 14.5V13C10.75 12.8618 10.638 12.75 10.5 12.75ZM10.25 14.25H9.25V13.25H10.25V14.25Z" fill="white"/>
<path d="M13 12.75H11.5C11.362 12.75 11.25 12.8618 11.25 13V14.5C11.25 14.6382 11.362 14.75 11.5 14.75H13C13.138 14.75 13.25 14.6382 13.25 14.5V13C13.25 12.8618 13.138 12.75 13 12.75ZM12.75 14.25H11.75V13.25H12.75V14.25Z" fill="white"/>
<path d="M15.6768 4.82325L14.6768 3.82325C14.579 3.7255 14.421 3.7255 14.3232 3.82325L14.25 3.8965V0.5C14.25 0.362 14.138 0.25 14 0.25H0.5C0.362 0.25 0.25 0.362 0.25 0.5V15.5C0.25 15.6383 0.362 15.75 0.5 15.75H14C14.138 15.75 14.25 15.6383 14.25 15.5V6.6035L15.6768 5.17675C15.7745 5.079 15.7745 4.921 15.6768 4.82325ZM13.75 0.75V4.25H0.75V0.75H13.75ZM13.75 15.25H0.75V4.75H13.3965L12.8965 5.25H11.5C11.362 5.25 11.25 5.362 11.25 5.5V6.8965L10.3965 7.75H9C8.862 7.75 8.75 7.862 8.75 8V9.3965L7.8965 10.25H6.5C6.362 10.25 6.25 10.3617 6.25 10.5V12C6.25 12.1383 6.362 12.25 6.5 12.25H6.5955L6.2765 12.8883C6.2285 12.9845 6.24725 13.1007 6.3235 13.1768C6.37125 13.2248 6.43525 13.25 6.5 13.25C6.53775 13.25 6.57625 13.2415 6.61175 13.2238L8.61175 12.2238C8.63575 12.2118 8.65775 12.196 8.67675 12.1768L8.7675 12.086C8.80275 12.1815 8.8925 12.25 9 12.25H10.5C10.638 12.25 10.75 12.1383 10.75 12V10.5C10.75 10.3925 10.6813 10.3027 10.5863 10.2673L11.2675 9.586C11.3027 9.6815 11.3925 9.75 11.5 9.75H13C13.138 9.75 13.25 9.63825 13.25 9.5V8C13.25 7.8925 13.1813 7.80275 13.086 7.7675L13.75 7.1035V15.25ZM12.3965 5.75L11.75 6.3965V5.75H12.3965ZM9.8965 8.25L9.25 8.8965V8.25H9.8965ZM6.8455 11.75H6.75V10.75H7.3965L7.32325 10.8232C7.30425 10.8422 7.2885 10.8643 7.27625 10.8883L6.8455 11.75ZM10.1035 10.75H10.25V11.75H9.25V11.6035L10.1035 10.75ZM12.6035 8.25H12.75V9.25H11.75V9.1035L12.6035 8.25ZM8.352 11.7945L7.059 12.441L7.7055 11.1482L14.5 4.3535L15.1465 5L8.352 11.7945Z" fill="white"/>
</svg>
