<svg width="17" height="17" viewBox="0 0 17 17" fill="none" xmlns="http://www.w3.org/2000/svg">
<g clip-path="url(#clip0)">
<path d="M0.212451 9.1377C0.0433756 9.1377 -0.118775 9.20486 -0.238329 9.32441C-0.357884 9.44397 -0.425049 9.60612 -0.425049 9.7752C-0.425049 9.94427 -0.357884 10.1064 -0.238329 10.226C-0.118775 10.3455 0.0433756 10.4127 0.212451 10.4127C1.2269 10.4127 2.19981 10.8157 2.91713 11.533C3.63446 12.2503 4.03745 13.2232 4.03745 14.2377C4.03745 14.4068 4.10462 14.5689 4.22417 14.6885C4.34373 14.808 4.50588 14.8752 4.67495 14.8752C4.84403 14.8752 5.00618 14.808 5.12573 14.6885C5.24529 14.5689 5.31245 14.4068 5.31245 14.2377C5.31245 12.8851 4.77513 11.5879 3.8187 10.6315C2.86226 9.67501 1.56506 9.1377 0.212451 9.1377Z" fill="white"/>
<path d="M0.212451 11.6875C0.0433756 11.6875 -0.118775 11.7547 -0.238329 11.8742C-0.357884 11.9938 -0.425049 12.1559 -0.425049 12.325C-0.425049 12.4941 -0.357884 12.6562 -0.238329 12.7758C-0.118775 12.8953 0.0433756 12.9625 0.212451 12.9625C0.550602 12.9625 0.874903 13.0968 1.11401 13.3359C1.35312 13.575 1.48745 13.8993 1.48745 14.2375C1.48745 14.4066 1.55462 14.5687 1.67417 14.6883C1.79373 14.8078 1.95588 14.875 2.12495 14.875C2.29403 14.875 2.45618 14.8078 2.57573 14.6883C2.69529 14.5687 2.76245 14.4066 2.76245 14.2375C2.76245 13.5612 2.49379 12.9126 2.01557 12.4344C1.53736 11.9562 0.888753 11.6875 0.212451 11.6875Z" fill="white"/>
<path d="M17.087 3.4765C16.9873 3.42531 16.8759 3.40131 16.764 3.40691C16.652 3.4125 16.5436 3.4475 16.4495 3.50838L13.6126 5.42088V4.0375C13.6126 3.53027 13.4111 3.04382 13.0524 2.68516C12.6938 2.3265 12.2073 2.125 11.7001 2.125H2.76235C2.25513 2.125 1.76868 2.3265 1.41001 2.68516C1.05135 3.04382 0.849854 3.53027 0.849854 4.0375V7.225C0.849854 7.39408 0.917019 7.55623 1.03657 7.67578C1.15613 7.79534 1.31828 7.8625 1.48735 7.8625C1.65643 7.8625 1.81858 7.79534 1.93813 7.67578C2.05769 7.55623 2.12485 7.39408 2.12485 7.225V4.0375C2.12485 3.86842 2.19202 3.70627 2.31157 3.58672C2.43113 3.46717 2.59328 3.4 2.76235 3.4H11.6874C11.8564 3.4 12.0186 3.46717 12.1381 3.58672C12.2577 3.70627 12.3249 3.86842 12.3249 4.0375V10.4125C12.3249 10.5816 12.2577 10.7437 12.1381 10.8633C12.0186 10.9828 11.8564 11.05 11.6874 11.05H6.58735C6.41828 11.05 6.25613 11.1172 6.13657 11.2367C6.01702 11.3563 5.94985 11.5184 5.94985 11.6875C5.94985 11.8566 6.01702 12.0187 6.13657 12.1383C6.25613 12.2578 6.41828 12.325 6.58735 12.325H11.6874C12.1946 12.325 12.681 12.1235 13.0397 11.7648C13.3984 11.4062 13.5999 10.9197 13.5999 10.4125V9.05463L16.4367 10.9671C16.5344 11.0316 16.648 11.0679 16.7649 11.0721C16.8819 11.0763 16.9977 11.0482 17.0998 10.9909C17.2018 10.9336 17.2861 10.8493 17.3435 10.7473C17.4008 10.6453 17.429 10.5295 17.4249 10.4125V4.0375C17.4245 3.92217 17.393 3.80909 17.3335 3.7103C17.274 3.61151 17.1888 3.5307 17.087 3.4765ZM16.1499 9.214L13.5999 7.51188V6.92537L16.1499 5.22325V9.214Z" fill="white"/>
</g>
<defs>
<clipPath id="clip0">
<rect width="17" height="17" fill="white"/>
</clipPath>
</defs>
</svg>
