<svg width="12" height="18" viewBox="0 0 12 18" fill="none" xmlns="http://www.w3.org/2000/svg">
<path fill-rule="evenodd" clip-rule="evenodd" d="M1.87908 9.7974L5.14104 8.44632L3.78996 11.7083C2.9994 11.2849 2.32548 10.633 1.87908 9.7974ZM6.85968 8.44668L10.1213 9.79776C9.69792 10.5883 9.0456 11.2619 8.21076 11.7083L6.85968 8.44668ZM1.52376 6.23628L4.78536 7.58736L1.52376 8.93844C1.24908 8.03196 1.26456 7.09452 1.52376 6.23628ZM3.78996 3.46608L5.1414 6.72804L1.87944 5.37696C2.30244 4.5864 2.95476 3.91212 3.78996 3.46608ZM6.58176 7.34652C6.71532 7.66764 6.56232 8.03628 6.24084 8.16912C5.919 8.30196 5.55144 8.14968 5.41824 7.8282C5.28504 7.50672 5.43732 7.13844 5.75916 7.0056C6.081 6.87204 6.44892 7.02468 6.58176 7.34652ZM4.632 13.1522C5.51184 13.3693 6.44892 13.3798 7.368 13.1526V16.9427H4.632V13.1522V13.1522ZM6.00036 8.80272L7.35144 12.0643C6.44532 12.339 5.50788 12.3232 4.64964 12.064L6.00036 8.80272ZM7.215 7.58736L10.477 6.23592C10.7513 7.14204 10.7362 8.07984 10.4766 8.93844L7.215 7.58736ZM8.21076 3.46644C9.00132 3.8898 9.67524 4.54176 10.1216 5.37696L6.85968 6.72768L8.21076 3.46644ZM3.80868 2.29284C0.885839 3.50352 -0.505201 6.8544 0.705839 9.77868C1.27644 11.1564 2.3226 12.1932 3.57504 12.7782V16.9423H2.76036V18H9.24V16.9427H8.42568V12.7789C11.2016 11.4844 12.4674 8.2278 11.2949 5.39568C10.0842 2.47284 6.7326 1.08144 3.80868 2.29284ZM5.99784 1.4994L7.49364 0.0018L4.50708 0L5.99784 1.4994ZM7.35108 3.11076L6.00036 6.37236L4.64928 3.1104C5.5554 2.83608 6.49248 2.8512 7.35108 3.11076Z" fill="white"/>
</svg>
