<?xml version="1.0" encoding="iso-8859-1"?>
<!-- Generator: Adobe Illustrator 19.0.0, SVG Export Plug-In . SVG Version: 6.00 Build 0)  -->
<svg version="1.1" id="Layer_1" xmlns="http://www.w3.org/2000/svg" xmlns:xlink="http://www.w3.org/1999/xlink" x="0px" y="0px"
	 viewBox="0 0 512 512" style="enable-background:new 0 0 512 512;" xml:space="preserve">
<g>
	<g>
		<circle cx="393.097" cy="83.049" r="17.693"/>
	</g>
</g>
<g>
	<g>
		<path d="M507.953,48.305l-2.887-12.639l-28.013-0.719l-0.719-28.013l-12.639-2.887c-30.659-7.003-73.917-4.826-115.713,5.826
			c-36.687,9.35-89.635,29.713-133.541,73.619c-72.978,72.978-96.118,155.706-93.629,216.263
			c-45.117-3.288-95.007,13.066-112.657,33.089c-7.758,8.802-10.121,19.248-6.481,28.657c6.859,17.729,25.721,21.115,43.961,24.388
			c18.712,3.359,39.922,7.165,56.616,23.86c16.694,16.696,20.501,37.905,23.86,56.617c3.273,18.24,6.659,37.101,24.388,43.961
			c2.898,1.121,5.894,1.673,8.91,1.673c6.777-0.001,13.656-2.786,19.746-8.155c20.023-17.65,36.369-67.539,33.089-112.657
			c60.561,2.486,143.284-20.649,216.263-93.629c43.906-43.906,64.269-96.854,73.619-133.541
			C512.778,122.222,514.956,78.964,507.953,48.305z M404.897,273.951c-32.394,32.394-70.483,56.882-110.148,70.817
			c-34.335,12.061-69.699,16.057-99.583,11.245l-24.943-4.013l6.087,24.519c4.587,18.473,3.767,42.384-2.246,65.601
			c-3.883,14.993-8.761,25.243-12.55,31.162c-0.949-3.935-1.82-8.786-2.543-12.814c-3.804-21.197-9.015-50.229-33.114-74.328
			c-24.098-24.098-53.129-29.309-74.327-33.114c-4.028-0.722-8.878-1.594-12.813-2.543c5.92-3.787,16.169-8.667,31.162-12.55
			c23.219-6.011,47.129-6.83,65.601-2.246l24.518,6.088l-4.013-24.941c-4.809-29.885-0.815-65.251,11.245-99.584
			c13.934-39.665,38.422-77.753,70.817-110.148c10.509-10.507,21.645-19.479,32.946-27.154
			c12.033,36.177,33.226,70.023,62.13,98.927c28.904,28.904,62.749,50.098,98.927,62.13
			C424.376,252.305,415.405,263.442,404.897,273.951z M469.77,155.772c-4.075,15.989-10.484,35.426-20.487,55.625
			c-33.486-9.919-65.956-29.54-92.549-56.132s-46.214-59.063-56.132-92.549c20.2-10.002,39.637-16.413,55.625-20.487
			c35.454-9.036,66.426-10.099,87.414-7.716l0.847,32.998l32.998,0.847C479.868,89.349,478.806,120.318,469.77,155.772z"/>
	</g>
</g>
<g>
</g>
<g>
</g>
<g>
</g>
<g>
</g>
<g>
</g>
<g>
</g>
<g>
</g>
<g>
</g>
<g>
</g>
<g>
</g>
<g>
</g>
<g>
</g>
<g>
</g>
<g>
</g>
<g>
</g>
</svg>
