<?xml version="1.0" encoding="utf-8"?>
<!-- Generator: Adobe Illustrator 22.1.0, SVG Export Plug-In . SVG Version: 6.00 Build 0)  -->
<svg version="1.1" id="Layer_1" xmlns="http://www.w3.org/2000/svg" xmlns:xlink="http://www.w3.org/1999/xlink" x="0px" y="0px"
	 viewBox="0 0 512 512" style="enable-background:new 0 0 512 512;" xml:space="preserve">
<style type="text/css">
	.st0{stroke:#000000;stroke-width:8;stroke-miterlimit:10;}
</style>
<g id="Page-1">
	<g id="_x30_44---Ace-of-Spades" transform="translate(-1)">
		<path id="Shape" class="st0" d="M488.5,109.4l-41.4-8.3l2.8-29.9c1.2-13.8-8.9-26-22.7-27.4l-52.9-5L374,32
			c-0.7-13.9-12.6-24.5-26.5-23.8L29.1,25c-6.7,0.3-12.9,3.3-17.4,8.3S4.9,44.8,5.2,51.4l23,435.9c0.7,13.4,11.7,23.9,25.1,23.9h1.4
			l278.5-14.7l75.5,15c6.6,1.3,13.4,0,18.9-3.7c5.6-3.7,9.4-9.5,10.7-16l70-352.7c1.3-6.6,0-13.4-3.7-18.9
			C500.9,114.6,495.1,110.7,488.5,109.4L488.5,109.4z M378.1,474.8c-1.5,1.7-3.6,2.7-5.8,2.8L53.7,494.4c-4.6,0.2-8.6-3.3-8.8-7.9
			L22,50.5c-0.2-4.6,3.3-8.6,7.9-8.8l318.5-16.8c4.6-0.2,8.5,3.3,8.8,7.9l22.9,435.9C380.3,471,379.6,473.2,378.1,474.8L378.1,474.8
			z M375.3,55.8l50.4,4.8c2.2,0.2,4.3,1.3,5.7,3c1.4,1.7,2.1,3.9,1.9,6.2l-36.8,388.6L375.3,55.8z M491.8,135.8l-70,352.7
			c-0.9,4.5-5.3,7.4-9.9,6.5l-13.5-2.7c1.6-0.8,3.1-1.8,4.5-2.9c5.2-4.2,8.4-10.4,9-17L445.5,118l39.8,7.9c2.2,0.4,4.1,1.7,5.3,3.6
			C491.9,131.3,492.3,133.6,491.8,135.8L491.8,135.8z"/>
		<path id="Shape_1_" class="st0" d="M231,190.1c-12.5-9.8-24.3-19.1-26.9-25.7c-1.3-3.4-4.6-5.5-8.3-5.3c-3.6,0.2-6.7,2.7-7.6,6.1
			c-1.9,6.9-12.7,17.3-24.1,28.4c-23.7,23-56,54.4-53.9,96c-0.5,15.3,6.8,29.8,19.4,38.5c15.3,9.5,35.6,6.5,48.5,3
			c-1.6,12.9-8.2,24.7-18.2,32.9c-3.5,2.5-4.5,7.2-2.5,10.9c2.1,3.7,6.6,5.3,10.6,3.7c12.5-4.9,25.5-8.3,38.8-10
			c13.4,0.3,26.7,2.3,39.7,5.9c4.1,1.1,8.3-0.9,10-4.8c1.6-3.9,0.2-8.4-3.4-10.5c-10.9-7.1-18.6-18.2-21.6-30.8
			c13.2,2.1,33.7,3,47.9-8c11.6-10,17.4-25.2,15.2-40.4C292.4,238.3,256.9,210.5,231,190.1L231,190.1z M269.1,307
			c-12.6,9.7-37.2,5-45.7,2.4c-2.6-0.8-5.5-0.3-7.7,1.4s-3.4,4.3-3.2,7.1c1,12.3,4.9,24.3,11.2,34.9c-5.9-0.8-11.8-1.2-17.8-1
			c-5.9,0.4-11.8,1.4-17.6,2.8c5.1-11.3,7.7-23.5,7.4-35.9c-0.1-2.8-1.6-5.3-4-6.7c-2.3-1.4-5.3-1.7-7.8-0.5
			c-8.1,3.5-32.1,10.8-45.7,2.4c-7.8-6-12.1-15.4-11.4-25.2c-1.8-34,26.2-61.3,48.8-83.1c7.6-7,14.7-14.5,21.3-22.5
			c7.4,7.3,15.2,14,23.6,20.1c24.7,19.4,55.4,43.5,57.2,77.5C279.5,290.5,276.2,300.3,269.1,307L269.1,307z"/>
		<path id="Shape_2_" class="st0" d="M315.7,49.3c-1.3-3.4-4.6-5.5-8.3-5.3c-3.6,0.2-6.7,2.7-7.6,6.1l-21.2,76.7
			c-0.7,2.5-0.2,5.2,1.4,7.3c1.6,2.1,4.1,3.3,6.7,3.3h0.4l8.4-0.4c4-0.2,7.3-3.3,7.9-7.3c0.5-4-1.8-7.8-5.7-9.1l2.5-9.1l21.4-1.1
			l3.4,8.8c-3.7,1.7-5.7,5.7-4.7,9.6c1,3.9,4.6,6.6,8.6,6.4l8.4-0.4c2.7-0.1,5.2-1.6,6.6-3.8c1.5-2.3,1.7-5.1,0.8-7.6L315.7,49.3z
			 M304.9,94.5l4.3-15.7l5.9,15.1L304.9,94.5z"/>
		<path id="Shape_3_" class="st0" d="M330.4,160.4c-2.3,0.4-4.6-0.3-6.3-1.9s-2.6-3.8-2.5-6.1c-0.1-4.6-4-8.3-8.6-8.2
			c-4.6,0.1-8.3,4-8.2,8.6v0.5c0,1.6-0.4,3.2-1,4.7c-0.8,1.9-2.3,3.9-7,4.1c-4.6,0.1-8.3,4-8.2,8.6c0.1,4.6,4,8.3,8.6,8.2h0.4
			c2.8-0.1,5.6-0.7,8.3-1.7l0.5,9.7c0.2,4.5,3.9,8,8.4,7.9h0.4c2.2-0.1,4.3-1.1,5.8-2.8c1.5-1.7,2.3-3.8,2.1-6.1l-0.5-9.7
			c2.8,0.7,5.6,1,8.5,0.8c4.6-0.2,8.2-4.2,8-8.8C339,163.8,335,160.2,330.4,160.4L330.4,160.4z"/>
		<path id="Shape_4_" class="st0" d="M115.1,381.8l-8.4,0.4c-4,0.2-7.3,3.3-7.9,7.3s1.8,7.8,5.7,9.1l-2.5,9.1l-21.4,1.1l-3.5-8.8
			c3.7-1.7,5.7-5.7,4.7-9.6c-1-3.9-4.6-6.6-8.6-6.4l-8.4,0.4c-2.7,0.1-5.2,1.6-6.6,3.8c-1.5,2.3-1.7,5.1-0.8,7.6L86.5,470
			c1.3,3.2,4.4,5.3,7.8,5.3h0.4c3.6-0.2,6.7-2.7,7.6-6.2l21.2-76.8c0.7-2.6,0.1-5.4-1.5-7.5S117.8,381.7,115.1,381.8L115.1,381.8z
			 M92.9,440.5L87,425.4l10.3-0.5L92.9,440.5z"/>
		<path id="Shape_5_" class="st0" d="M71.8,358.9c2.3-0.4,4.6,0.3,6.3,1.9c1.7,1.5,2.6,3.8,2.5,6.1c0.2,4.5,3.9,8,8.4,7.9h0.4
			c4.5-0.2,8-3.9,8-8.4c0-0.1,0-0.3,0-0.4c0-1.6,0.4-3.2,1-4.7c0.8-1.9,2.3-3.9,7-4.1c4.6-0.2,8.2-4.2,7.9-8.8
			c-0.2-4.6-4.2-8.2-8.8-7.9c-2.8,0.1-5.6,0.7-8.3,1.7l-0.5-9.7c-0.2-4.6-4.2-8.2-8.8-7.9c-4.6,0.2-8.2,4.2-7.9,8.8l0.5,9.7
			c-2.8-0.7-5.6-1-8.5-0.9c-3,0.1-5.7,1.9-7.1,4.6c-1.4,2.7-1.2,5.9,0.4,8.4C66,357.6,68.8,359.1,71.8,358.9L71.8,358.9z"/>
	</g>
</g>
</svg>
