<?xml version="1.0" encoding="utf-8"?>
<!-- Generator: Adobe Illustrator 22.1.0, SVG Export Plug-In . SVG Version: 6.00 Build 0)  -->
<svg version="1.1" id="Layer_3" xmlns="http://www.w3.org/2000/svg" xmlns:xlink="http://www.w3.org/1999/xlink" x="0px" y="0px"
	 viewBox="0 0 512 512" style="enable-background:new 0 0 512 512;" xml:space="preserve">
<path d="M376,204.7l20.7-20.7H376V204.7z"/>
<path d="M56,184h32v32H56V184z"/>
<path d="M56,344h32v32H56V344z"/>
<path d="M56,264h32v32H56V264z"/>
<path d="M136,424h32v32h-32V424z"/>
<path d="M296,284.7l20.7-20.7H296V284.7z"/>
<path d="M296,184h32v32h-32V184z"/>
<rect x="24" y="24" width="416" height="112"/>
<path d="M56,424h32v32H56V424z"/>
<path d="M136,344h32v32h-32V344z"/>
<path d="M216,184h32v32h-32V184z"/>
<path d="M216,264h32v32h-32V264z"/>
<path d="M136,264h32v32h-32V264z"/>
<path d="M225.9,398.1l41.4-20.7L484.7,160L464,139.3L246.6,356.7L225.9,398.1z"/>
<path d="M136,184h32v32h-32V184z"/>
<path d="M424,256v48c0,4.4-3.6,8-8,8h-48c-3.4,0-6.3-2.2-7.4-5.2l-21.8,21.8c3,1.1,5.2,4,5.2,7.4v48c0,4.4-3.6,8-8,8h-48
	c-3.4,0-6.3-2.2-7.4-5.2l-2.9,2.9c-0.6,0.6-1.3,1.1-2.1,1.5l-64,32c-1.1,0.6-2.4,0.8-3.6,0.8c-2.1,0-4.1-0.8-5.7-2.3
	c-2.4-2.4-3-6.2-1.5-9.2l10.2-20.4H208c-4.4,0-8-3.6-8-8v-48c0-4.4,3.6-8,8-8h44.7l27.3-27.3V256c0-4.4,3.6-8,8-8h44.7l27.3-27.3
	V176c0-4.4,3.6-8,8-8h44.7l16-16H24v336h416V227.3l-21.2,21.2C421.8,249.7,424,252.6,424,256L424,256z M280,176c0-4.4,3.6-8,8-8h48
	c4.4,0,8,3.6,8,8v48c0,4.4-3.6,8-8,8h-48c-4.4,0-8-3.6-8-8V176z M200,176c0-4.4,3.6-8,8-8h48c4.4,0,8,3.6,8,8v48c0,4.4-3.6,8-8,8
	h-48c-4.4,0-8-3.6-8-8V176z M200,256c0-4.4,3.6-8,8-8h48c4.4,0,8,3.6,8,8v48c0,4.4-3.6,8-8,8h-48c-4.4,0-8-3.6-8-8V256z M104,464
	c0,4.4-3.6,8-8,8H48c-4.4,0-8-3.6-8-8v-48c0-4.4,3.6-8,8-8h48c4.4,0,8,3.6,8,8V464z M104,384c0,4.4-3.6,8-8,8H48c-4.4,0-8-3.6-8-8
	v-48c0-4.4,3.6-8,8-8h48c4.4,0,8,3.6,8,8V384z M104,304c0,4.4-3.6,8-8,8H48c-4.4,0-8-3.6-8-8v-48c0-4.4,3.6-8,8-8h48
	c4.4,0,8,3.6,8,8V304z M104,224c0,4.4-3.6,8-8,8H48c-4.4,0-8-3.6-8-8v-48c0-4.4,3.6-8,8-8h48c4.4,0,8,3.6,8,8V224z M184,464
	c0,4.4-3.6,8-8,8h-48c-4.4,0-8-3.6-8-8v-48c0-4.4,3.6-8,8-8h48c4.4,0,8,3.6,8,8V464z M184,384c0,4.4-3.6,8-8,8h-48c-4.4,0-8-3.6-8-8
	v-48c0-4.4,3.6-8,8-8h48c4.4,0,8,3.6,8,8V384z M184,304c0,4.4-3.6,8-8,8h-48c-4.4,0-8-3.6-8-8v-48c0-4.4,3.6-8,8-8h48
	c4.4,0,8,3.6,8,8V304z M184,224c0,4.4-3.6,8-8,8h-48c-4.4,0-8-3.6-8-8v-48c0-4.4,3.6-8,8-8h48c4.4,0,8,3.6,8,8V224z M264,464
	c0,4.4-3.6,8-8,8h-48c-4.4,0-8-3.6-8-8v-32.1h16V456h32v-40h16V464z M344,464c0,4.4-3.6,8-8,8h-48c-4.4,0-8-3.6-8-8v-48
	c0-4.4,3.6-8,8-8h48c4.4,0,8,3.6,8,8V464z M424,464c0,4.4-3.6,8-8,8h-48c-4.4,0-8-3.6-8-8v-48c0-4.4,3.6-8,8-8h48c4.4,0,8,3.6,8,8
	V464z M424,384c0,4.4-3.6,8-8,8h-48c-4.4,0-8-3.6-8-8v-48c0-4.4,3.6-8,8-8h48c4.4,0,8,3.6,8,8V384z"/>
<path d="M236.7,344H216v32h3.1l13.8-27.6c0.4-0.8,0.9-1.5,1.5-2.1L236.7,344z"/>
<path d="M376,424h32v32h-32V424z"/>
<path d="M296,424h32v32h-32V424z"/>
<path d="M376,296h32v-32h-4.7L376,291.3V296z"/>
<path d="M296,376h32v-32h-4.7L296,371.3V376z"/>
<path d="M376,344h32v32h-32V344z"/>
</svg>
