<svg height="512pt" viewBox="0 0 512 512" width="512pt" xmlns="http://www.w3.org/2000/svg"><path d="m59.183594 190.667969h12.582031c-7.5 15.261719-11.515625 32.210937-11.515625 49.265625 0 8.285156 6.714844 15 15 15s15-6.714844 15-15c0-17.496094 5.78125-34.84375 16.28125-48.839844l4.820312-6.425781c3.40625-4.546875 3.957032-10.628907 1.414063-15.707031-2.539063-5.082032-7.734375-8.292969-13.414063-8.292969h-40.167968c-8.285156 0-15 6.714843-15 15 0 8.28125 6.714844 15 15 15zm0 0"/><path d="m187.71875 190.667969h12.578125c-7.5 15.261719-11.511719 32.210937-11.511719 49.265625 0 8.285156 6.714844 15 15 15 8.28125 0 15-6.714844 15-15 0-17.496094 5.78125-34.839844 16.28125-48.839844l4.816406-6.425781c3.410157-4.546875 3.957032-10.628907 1.417969-15.707031-2.542969-5.082032-7.734375-8.292969-13.417969-8.292969h-40.167968c-8.28125 0-15 6.714843-15 15 0 8.28125 6.71875 15 15.003906 15zm0 0"/><path d="m316.25 158.53125h12.578125c-7.5 15.265625-11.511719 32.210938-11.511719 49.269531 0 8.285157 6.714844 14.996094 15 14.996094s15-6.71875 15-15.003906c0-17.492188 5.78125-34.832031 16.277344-48.828125l4.824219-6.433594c3.40625-4.542969 3.957031-10.625 1.414062-15.707031-2.539062-5.082031-7.734375-8.292969-13.414062-8.292969h-40.167969c-8.285156 0-15 6.71875-15 15 0 8.285156 6.714844 15 15 15zm0 0"/><path d="m304.199219 447.734375h48.199219c8.285156 0 15-6.71875 15-15 0-8.285156-6.714844-15-15-15h-48.199219c-8.285157 0-15 6.714844-15 15 0 8.28125 6.714843 15 15 15zm0 0"/><path d="m512 71.234375c0-21.5625-17.539062-39.101563-39.101562-39.101563-21.558594 0-39.097657 17.539063-39.097657 39.101563 0 16.246094 9.964844 30.207031 24.097657 36.101563v116.53125c0 9.460937-7.65625 17.132812-17.132813 17.132812h-25.164063v-185.832031c0-30.46875-24.648437-55.167969-55.167968-55.167969h-305.265625c-30.46875 0-55.167969 24.648438-55.167969 55.167969v441.832031c0 8.285156 6.714844 15 15 15h385.601562c8.28125 0 15-6.714844 15-15v-226h25.164063c26.035156 0 47.132813-21.0625 47.132813-47.132812v-116.53125c14.136718-5.894532 24.101562-19.855469 24.101562-36.101563zm-254.933594 39.097656v194.933594h-98.535156v-194.933594zm128.535156 0v194.933594h-98.535156v-194.933594zm-257.070312 194.933594h-98.53125v-194.933594h98.53125zm-98.53125 30h355.601562v18.203125h-355.601562zm0-280.097656c0-13.902344 11.246094-25.167969 25.167969-25.167969h305.265625c13.902344 0 25.167968 11.25 25.167968 25.167969v25.164062h-355.601562zm355.601562 426.832031h-355.601562v-98.53125h355.601562zm87.296876-419.867188c5.019531 0 9.101562 4.082032 9.101562 9.101563s-4.082031 9.101563-9.101562 9.101563c-5.015626 0-9.097657-4.082032-9.097657-9.101563s4.082031-9.101563 9.097657-9.101563zm0 0"/></svg>