<svg width="55" height="40" viewBox="0 0 55 40" fill="none" xmlns="http://www.w3.org/2000/svg">
<path d="M12.3088 10.3848H15.5531C15.7713 10.3848 16.0113 10.5367 16.0858 10.7332L21.7163 25.2507C21.7909 25.4461 21.6747 25.6022 21.4577 25.6022H18.2571C18.039 25.6022 17.8034 25.443 17.7354 25.2466L16.6251 22.1121H10.942L9.83383 25.2466C9.76368 25.444 9.53022 25.6022 9.30991 25.6022H6.28146C6.06225 25.6022 5.94826 25.4461 6.02279 25.2507L11.7717 10.7332C11.8473 10.5367 12.0874 10.3848 12.3088 10.3848ZM15.7559 19.4408L13.7961 13.6898L11.787 19.4408H15.7559Z" fill="#686868"/>
<path d="M37.0319 10.3848H42.6855C43.6862 10.3848 44.5323 10.4912 45.2261 10.7114C45.92 10.9337 46.4844 11.2263 46.9196 11.5902C47.3536 11.9572 47.6682 12.3779 47.8622 12.8576C48.054 13.3362 48.1516 13.8345 48.1516 14.3504C48.1516 14.8394 48.0595 15.2705 47.8743 15.6426C47.689 16.0138 47.4709 16.3322 47.221 16.5999C46.97 16.8666 46.7058 17.0755 46.4231 17.2285C46.1403 17.3794 45.8991 17.4776 45.7095 17.5241C46 17.5841 46.3332 17.6957 46.7124 17.8518C47.0906 18.0152 47.4501 18.2437 47.7899 18.5404C48.1274 18.8371 48.4135 19.2082 48.6481 19.6589C48.8805 20.1045 48.9988 20.6327 48.9988 21.2417C48.9988 22.0356 48.8487 22.7055 48.5505 23.2513C48.2524 23.8013 47.8337 24.2479 47.2922 24.5953C46.7508 24.9488 46.0909 25.2 45.3095 25.3623C44.5269 25.5195 43.6511 25.6001 42.6833 25.6001H37.0297C36.8116 25.6001 36.634 25.4316 36.634 25.2249V10.7559C36.6362 10.5491 36.8138 10.3848 37.0319 10.3848ZM42.3468 16.4738C42.6208 16.4738 42.8893 16.4459 43.1557 16.3828C43.4231 16.3218 43.6566 16.2267 43.8582 16.0996C44.0599 15.9693 44.2265 15.7936 44.3559 15.5744C44.483 15.3542 44.5488 15.0813 44.5488 14.7639C44.5488 14.4269 44.4819 14.1498 44.3559 13.9307C44.2276 13.7084 44.0555 13.5337 43.8462 13.4045C43.6368 13.2732 43.399 13.1843 43.1337 13.1305C42.8663 13.0799 42.6043 13.053 42.3479 13.053H40.1963V16.4738H42.3468ZM42.5638 22.9557C42.8214 22.9557 43.1118 22.9381 43.4352 22.8978C43.7585 22.8606 44.0555 22.7737 44.3318 22.6342C44.6047 22.4998 44.8338 22.3013 45.0201 22.0397C45.2064 21.7813 45.2974 21.4257 45.2974 20.9687C45.2974 20.5583 45.2108 20.2265 45.0332 19.966C44.8535 19.7065 44.6299 19.5059 44.3559 19.3622C44.0808 19.2175 43.7826 19.1213 43.4593 19.0645C43.137 19.0118 42.8389 18.9838 42.5649 18.9838H40.1963V22.9557H42.5638Z" fill="#686868"/>
<path d="M29.8996 20.7169C28.307 20.7169 27.0159 19.5002 27.0159 17.9981C27.0159 16.498 28.307 15.2812 29.8996 15.2812C31.4878 15.2812 32.7768 16.498 32.7768 17.9981C32.7768 19.5002 31.4878 20.7169 29.8996 20.7169Z" fill="#858484"/>
<path d="M33.0926 21.5526C32.2212 22.3352 31.0616 22.8159 29.7857 22.8159C27.073 22.8159 24.872 20.6605 24.872 17.9984C24.872 15.3416 27.073 13.1841 29.7857 13.1841C31.0177 13.1841 32.1467 13.6296 33.0071 14.3657C33.1693 14.5042 33.4148 14.5104 33.5694 14.3647L35.311 12.723C35.4645 12.5752 35.4667 12.3353 35.311 12.1937C33.8017 10.8332 31.7674 10 29.5238 10C24.8742 10 21.0994 13.5811 21.0994 17.9974C21.0994 22.4169 24.8742 26 29.5238 26C31.8113 26 33.8785 25.1306 35.3954 23.7257C35.5533 23.5799 35.5467 23.339 35.3921 23.1902L33.6505 21.5485C33.497 21.4027 33.2537 21.4089 33.0926 21.5526Z" fill="#686868"/>
</svg>
