<svg width="65" height="40" viewBox="0 0 65 40" fill="none" xmlns="http://www.w3.org/2000/svg">
<path d="M19.3624 10.9102H16.4429V24.3568H19.3624V10.9102Z" fill="#686868"/>
<path d="M36.9407 19.6319C36.616 18.7597 33.6523 10.9102 33.6523 10.9102L30.4822 10.9131L30.5363 11.0558L35.5607 24.3597H38.3093L43.3679 10.9131H40.1892C40.1892 10.9116 37.4577 18.1846 36.9407 19.6319Z" fill="#686868"/>
<path d="M27.4246 21.5461C26.7495 22.0252 25.7071 22.2742 24.2587 22.2742H23.7546V12.9947H24.1661C26.0773 12.9977 26.7438 13.1476 27.4816 13.6849C28.4486 14.4217 29.0097 15.8588 29.0097 17.6337C29.0082 19.4101 28.4272 20.8458 27.4246 21.5461ZM29.7374 12.2332C28.5084 11.2766 27.0144 10.9097 24.3783 10.9111H20.8379V24.3578H24.1903C26.798 24.3578 28.1652 24.0884 29.3543 23.3283C31.0505 22.2334 31.932 20.2386 31.9306 17.6163C31.9335 15.205 31.1915 13.366 29.7374 12.2332Z" fill="#686868"/>
<path d="M11.0453 22.0472C10.5112 22.2831 9.62682 22.2554 8.08162 22.2554H6.92236V18.7827H8.10441C9.34342 18.7827 10.3531 18.8308 10.9613 19.023C11.7018 19.256 12.0835 19.7321 12.0835 20.5242C12.0835 21.4444 11.6534 21.7793 11.0453 22.0472ZM6.92521 12.9804H7.83809C9.3363 12.9818 10.3417 12.928 10.9 13.2192C11.4156 13.4813 11.7317 13.8482 11.7317 14.5704C11.7303 15.2343 11.4426 15.6042 10.9228 15.8896C10.4656 16.14 9.30924 16.2579 7.95629 16.2565H6.92521V12.9804ZM12.1974 17.4432C13.8466 16.9787 14.6697 15.9769 14.6598 14.4685C14.6612 13.1566 13.9619 12.0252 12.7685 11.4865C11.7616 11.0162 10.7035 10.8633 8.4519 10.8633H4V24.3099H8.97741C11.0823 24.3099 12.1405 24.1366 13.1018 23.6445C14.3336 22.9951 15.013 21.8812 15.0115 20.5504C15.0215 18.9211 14.0574 17.8756 12.1974 17.4432Z" fill="#686868"/>
<path d="M52.6819 8.60645L43.9575 17.4985L52.6776 26.3906L52.6804 26.3877L61.4062 17.5015L52.6819 8.60936" fill="#938D8D"/>
<path d="M51.2248 11.5312L51.2234 18.96H52.7458L54.1415 18.9615L54.1429 11.5327L52.7458 11.5312" fill="#686868"/>
<path d="M49.624 13.0088H51.0824V17.5065H49.624V13.0088ZM55.0728 17.5065L54.2853 17.508L54.2867 13.0102H55.0757C55.876 13.0102 56.4856 14.0193 56.4899 15.2569C56.4984 16.4684 55.876 17.5065 55.0728 17.5065Z" fill="#686868"/>
<path d="M52.6804 26.3885L52.6761 26.3899L43.956 17.4993L52.6804 8.60717L52.6818 8.61009L61.4061 17.5036L52.6804 26.3885ZM43.365 17.4993L43.4419 17.5794L52.3329 26.6433L52.6818 27L53.0307 26.6433L62 17.5022L52.6846 8" fill="#686868"/>
<path d="M52.6804 21.7871L48.4763 17.499H44.3491L51.6151 24.9089L51.692 24.9889L52.6804 25.9951L61.016 17.499H56.8873" fill="#686868"/>
</svg>
