<svg width="71" height="40" viewBox="0 0 71 40" fill="none" xmlns="http://www.w3.org/2000/svg">
<path fill-rule="evenodd" clip-rule="evenodd" d="M13.2622 2.89065L13.2963 2.8627C13.3865 2.85148 13.4773 2.84581 13.5682 2.8457C16.4827 2.8457 20.9217 8.48401 19.7261 14.2134L19.7245 14.2063L19.726 14.2153C18.5947 16.9136 11.3214 18.2003 6.82042 14.1776H6.82284C6.89538 14.2 6.96761 14.2216 7.03952 14.2424C6.9663 14.2197 6.89331 14.1962 6.82059 14.1718C6.47586 13.7239 6.29257 13.0903 6.26465 12.3511V11.9299V11.9262C6.37754 8.85033 8.88291 4.31541 13.2965 2.85879L13.2622 2.89065ZM12.0289 4.23263C11.557 4.83807 11.184 5.45267 10.8992 6.06491C12.45 5.3187 14.0968 5.12774 16.0845 6.27603C15.1025 5.08282 13.9664 4.11174 11.9465 4.35451C11.9736 4.31356 12.001 4.27293 12.0289 4.23263ZM10.2958 7.89529C9.72846 10.7533 10.9398 13.2903 12.7419 14.2356C15.4215 13.2811 16.9258 10.9835 16.8201 8.96452C14.6831 7.06803 11.988 6.81263 10.2958 7.89529ZM18.183 10.5313C18.0551 12.2539 17.3702 13.774 15.3792 14.9229C16.9232 14.5564 18.2925 13.9616 19.073 12.1857C19.0833 12.2069 19.0934 12.2282 19.1035 12.2495C18.8374 11.6128 18.527 11.0408 18.183 10.5313ZM10.802 14.6537C10.1754 14.7095 9.50692 14.6992 8.79975 14.6103C7.59487 12.9842 7.83777 11.4897 8.38281 10.0508C8.38281 12.351 9.37693 13.6838 10.802 14.6537ZM11.3392 14.5883C11.164 14.6155 10.9852 14.6374 10.8028 14.6536L10.8536 14.6476L10.8536 14.6476L10.8537 14.6476L10.8537 14.6476L10.8538 14.6476C11.0153 14.6285 11.1783 14.6092 11.3392 14.5883ZM23.1321 12.3814H26.5466C28.0227 12.3814 29.1952 13.5127 29.1952 14.7714V17.806C29.1952 19.3683 27.6561 20.1548 26.3888 20.1548H22.1986V13.191C22.1986 12.7856 22.6915 12.3753 23.1321 12.3753V12.3814ZM23.9381 13.3706H25.7965C26.8246 13.3706 27.5711 14.1147 27.5711 15.1453V17.3496C27.5711 18.5149 26.8428 19.1243 25.7965 19.1243H23.9381V13.3706ZM34.4635 12.2471H32.3927V12.2374C30.7055 12.2701 29.8558 13.5714 29.8558 14.7743V17.4448C29.8558 18.973 30.7856 20.1698 32.4401 20.1698H34.699C36.0221 20.1698 37.083 18.9366 37.083 17.48V14.8095C37.0795 14.4692 37.009 14.1329 36.8754 13.8198C36.7418 13.5068 36.5478 13.2232 36.3046 12.9852C36.0613 12.7472 35.7734 12.5595 35.4575 12.4328C35.1416 12.3062 34.8039 12.2431 34.4635 12.2471ZM34.0266 13.2303H32.8904V13.24C32.3345 13.24 31.6062 13.8906 31.6062 14.7221V17.6948C31.6062 18.5263 32.349 19.206 32.9074 19.206H34.0448C34.6031 19.206 35.3618 18.5263 35.3618 17.6948V14.7124C35.3618 13.8809 34.5849 13.2303 34.0266 13.2303ZM47.4917 12.2476H49.5031C51.0119 12.2331 51.9611 13.3741 51.9101 14.8149V15.0577H50.3746V14.719C50.3746 13.8875 49.6196 13.2369 49.077 13.2369H47.97C47.4274 13.2369 46.7221 13.8875 46.7221 14.719V17.7014C46.7221 18.5329 47.4505 19.2127 47.987 19.2127H49.094C49.2554 19.2187 50.042 19.1083 50.3746 18.6871V17.0848H48.7602V15.8795H51.9162V19.362C51.5399 19.765 50.7023 20.1971 49.7373 20.1789H47.5378C45.9307 20.1789 45.0276 18.9833 45.0276 17.4538V14.7834C45.0276 13.5804 46.029 12.2913 47.4917 12.2464V12.2476ZM37.7141 20.1765H38.9582V14.4386L42.6459 20.1826H44.4205V12.3824H43.0938V17.6201L39.7145 12.3703H38.5844C38.3522 12.3753 38.1312 12.471 37.9686 12.6368C37.806 12.8026 37.7146 13.0253 37.7141 13.2576V20.1765ZM57.7583 10.5755L61.327 20.1091H59.4662L58.415 17.0393H54.7868C54.4493 18.067 54.1111 19.0951 53.772 20.1236H52.2984C53.3156 17.2565 54.3332 14.3898 55.3512 11.5235C55.5078 11.0829 55.9581 10.5804 56.6136 10.567L57.7583 10.5755ZM56.5833 12.0783L57.3055 14.0095L58.0338 15.9407H55.1449L55.8671 14.0095L56.5833 12.0783ZM63.5739 18.457C63.4162 18.3517 63.2308 18.2954 63.0411 18.2954C62.7868 18.2954 62.5429 18.3964 62.3631 18.5763C62.1832 18.7561 62.0822 19 62.0822 19.2544C62.0822 19.444 62.1384 19.6294 62.2438 19.7871C62.3492 19.9448 62.499 20.0677 62.6742 20.1403C62.8494 20.2129 63.0422 20.2319 63.2282 20.1949C63.4142 20.1579 63.5851 20.0665 63.7192 19.9324C63.8533 19.7983 63.9447 19.6274 63.9817 19.4414C64.0187 19.2554 63.9997 19.0626 63.9271 18.8874C63.8545 18.7122 63.7316 18.5624 63.5739 18.457ZM63.4725 18.6101C63.3448 18.525 63.1947 18.4797 63.0411 18.4799C62.8359 18.4802 62.6391 18.5619 62.4939 18.7071C62.3487 18.8523 62.267 19.0491 62.2667 19.2544C62.2665 19.4079 62.3118 19.558 62.3969 19.6857C62.4821 19.8135 62.6032 19.9131 62.745 19.9719C62.8867 20.0308 63.0428 20.0463 63.1934 20.0164C63.321 19.991 63.4398 19.9341 63.5392 19.8512H63.3605L63.0072 19.3899H62.8409V19.8512H62.6928V18.6932H62.9805C63.0341 18.6925 63.0877 18.6961 63.1407 18.7041C63.1845 18.712 63.2259 18.7294 63.2621 18.7551C63.301 18.7806 63.3331 18.8152 63.3556 18.8559C63.3794 18.9032 63.3911 18.9558 63.3896 19.0088C63.3925 19.0846 63.3703 19.1593 63.3265 19.2212C63.2841 19.2795 63.2254 19.3238 63.1577 19.3487L63.547 19.8446C63.5621 19.8317 63.5767 19.8181 63.5908 19.804C63.6994 19.6955 63.7733 19.5572 63.8032 19.4066C63.833 19.256 63.8176 19.1 63.7587 18.9582C63.6999 18.8164 63.6003 18.6953 63.4725 18.6101ZM63.2318 19.0173C63.2321 18.9865 63.2264 18.956 63.2148 18.9275C63.2034 18.9014 63.1849 18.8792 63.1614 18.8631C63.1394 18.8482 63.1146 18.8379 63.0886 18.8328C63.0542 18.8259 63.0192 18.8227 62.9842 18.8231H62.8409V19.2613H62.9623C63.0031 19.2624 63.0439 19.2583 63.0837 19.2491C63.1166 19.2426 63.1467 19.226 63.1699 19.2018C63.1918 19.1797 63.208 19.1526 63.2172 19.1229C63.2287 19.0889 63.234 19.0532 63.233 19.0173H63.2318ZM23.2014 25.1262V23.0894L23.2039 23.0784C23.2039 23.0686 23.2037 23.0567 23.2034 23.0433C23.2029 23.0103 23.2021 22.9679 23.2039 22.9231C23.2063 22.8599 23.2111 22.7956 23.2172 22.7386C23.2528 22.6329 23.3287 22.5457 23.4284 22.4958C23.5083 22.4779 23.5895 22.467 23.6712 22.463H23.9042C24.1786 22.463 24.4056 22.4727 24.5852 22.4909C24.7523 22.507 24.9147 22.5552 25.0635 22.6329C25.2435 22.7384 25.3806 22.9038 25.4507 23.1003C25.5333 23.3186 25.5744 23.5503 25.5721 23.7837C25.581 24.0254 25.5397 24.2664 25.4507 24.4913C25.3547 24.7041 25.1866 24.8761 24.9761 24.9769C24.8133 25.0431 24.6414 25.084 24.4663 25.0983C24.2733 25.1177 24.0268 25.1262 23.7282 25.1262H23.2014ZM21.2678 28.8539H24.0123L24.0086 28.8648H24.3728C24.6433 28.8649 24.9134 28.8458 25.1812 28.8078L25.4398 28.7604C25.5379 28.7429 25.6336 28.714 25.725 28.6743C25.8828 28.6098 26.0358 28.5339 26.1826 28.4473C26.3213 28.3512 26.4442 28.234 26.5468 28.1001C26.6633 27.9478 26.7491 27.7742 26.7993 27.5891C26.8541 27.3964 26.8823 27.1971 26.883 26.9967C26.8906 26.7539 26.8405 26.5127 26.7366 26.293C26.6328 26.0733 26.4783 25.8814 26.2858 25.7331C25.9216 25.4568 25.477 25.3071 25.0198 25.3071C25.4308 25.2761 25.8187 25.1047 26.1183 24.8215C26.2685 24.6688 26.3857 24.487 26.4628 24.2872C26.5398 24.0873 26.575 23.8738 26.5662 23.6599C26.5674 23.4049 26.5026 23.154 26.3781 22.9316C26.2572 22.7104 26.0874 22.5198 25.8816 22.3744C25.714 22.2651 25.53 22.1831 25.3366 22.1316C25.0419 22.0687 24.7407 22.0418 24.4396 22.0515H21.2593V22.4667C21.2763 22.4667 21.3867 22.4679 21.5858 22.4861C21.7849 22.5043 21.9269 22.5043 22.0106 22.5043C22.0778 22.5212 22.1373 22.5602 22.1796 22.615C22.2218 22.6698 22.2444 22.7373 22.2437 22.8065V27.7214C22.2437 27.7552 22.244 27.7863 22.2443 27.8151C22.2448 27.8669 22.2453 27.9115 22.2437 27.952C22.2413 28.0151 22.2364 28.0734 22.2304 28.1365C22.1782 28.2749 22.1017 28.3502 22.0021 28.3635C21.901 28.3906 21.7985 28.4125 21.695 28.4291C21.6338 28.4358 21.5722 28.439 21.5105 28.4388H21.2678V28.8539ZM23.2039 27.7542V25.5692L23.1978 25.5632L23.5097 25.545C23.6991 25.5328 23.8363 25.5255 23.9176 25.5255C24.5626 25.5255 25.0165 25.6065 25.2795 25.7683C25.6485 25.9909 25.833 26.4181 25.833 27.0501C25.8325 27.2757 25.7914 27.4994 25.7117 27.7105C25.6453 27.9071 25.5176 28.0772 25.3475 28.196C25.174 28.3068 24.9769 28.3754 24.7721 28.3963C24.5019 28.4234 24.2304 28.436 23.9589 28.4339H23.7829C23.5316 28.4339 23.3726 28.3963 23.3046 28.3247C23.2366 28.2531 23.2039 28.0625 23.2039 27.7542ZM31.2104 27.5272L31.2456 25.903L31.2432 25.9298C31.2432 25.5195 31.2043 25.216 31.1218 25.0339C31.0162 24.7948 30.8001 24.6091 30.4711 24.4768C30.3393 24.4276 30.2026 24.3926 30.0633 24.3724C29.9192 24.3536 29.774 24.3443 29.6287 24.3445C29.4411 24.3434 29.2539 24.3625 29.0704 24.4015C28.8851 24.4433 28.7062 24.5098 28.5387 24.5994C28.3695 24.6841 28.2198 24.8031 28.0993 24.949C27.9738 25.1037 27.9056 25.2971 27.9063 25.4964C27.901 25.6493 27.9458 25.7997 28.0337 25.9249C28.0724 25.9807 28.1245 26.0259 28.1851 26.0565C28.2457 26.087 28.313 26.1019 28.3809 26.0997C28.5104 26.1046 28.6371 26.0613 28.7366 25.9783C28.7838 25.933 28.8204 25.8779 28.8439 25.8168C28.8674 25.7558 28.8772 25.6903 28.8725 25.6251C28.8716 25.5575 28.855 25.491 28.824 25.4309C28.8104 25.4042 28.7968 25.377 28.7834 25.3501C28.7657 25.3144 28.7483 25.2794 28.7317 25.2476C28.7116 25.1939 28.6864 25.1423 28.6564 25.0934C28.663 25.0422 28.688 24.9951 28.7269 24.9611C28.819 24.8844 28.9294 24.8325 29.0473 24.8106C29.191 24.7837 29.3369 24.7711 29.4831 24.773C29.7113 24.7613 29.9386 24.8099 30.1422 24.9138C30.238 24.9747 30.3155 25.0606 30.3664 25.1621C30.4172 25.2636 30.4396 25.3771 30.4311 25.4903V26.13C29.8423 26.2026 29.2661 26.3549 28.7184 26.5828C28.0095 26.9041 27.655 27.3317 27.655 27.8658C27.6454 28.0302 27.6746 28.1944 27.7402 28.3454C27.8057 28.4964 27.9059 28.6298 28.0325 28.735C28.2831 28.9214 28.5909 29.0146 28.9029 28.9984C29.2074 28.9987 29.508 28.9294 29.7817 28.7956C30.0582 28.6644 30.2992 28.4687 30.4845 28.2251C30.519 28.4242 30.61 28.6092 30.7467 28.758C30.812 28.8207 30.8893 28.8693 30.9741 28.9011C31.0588 28.9328 31.1491 28.9469 31.2395 28.9425C31.4122 28.9416 31.5809 28.8906 31.725 28.7956C31.8693 28.7084 31.9781 28.573 32.0322 28.4133C32.0322 28.3441 31.9921 28.3004 31.9108 28.281L31.668 28.3951H31.5624C31.5293 28.3958 31.4964 28.3893 31.466 28.3761C31.4356 28.3629 31.4085 28.3433 31.3864 28.3186C31.3549 28.3037 31.3267 28.2827 31.3034 28.2569C31.2801 28.2311 31.2621 28.2009 31.2504 28.1681C31.2232 28.096 31.2096 28.0194 31.2104 27.9423V27.5272ZM29.2209 26.8389C29.6189 26.7133 30.0243 26.6123 30.4347 26.5367L30.4335 27.2164C30.4341 27.3562 30.4182 27.4955 30.3862 27.6316C30.353 27.7655 30.298 27.893 30.2235 28.0091C30.1106 28.1671 29.9633 28.2975 29.7926 28.3902C29.6294 28.4847 29.4446 28.5352 29.2561 28.5371C29.0622 28.541 28.8746 28.4681 28.7341 28.3344C28.6623 28.2661 28.6058 28.1832 28.5686 28.0913C28.5313 27.9994 28.5141 27.9006 28.5181 27.8015C28.5181 27.3605 28.7523 27.0396 29.2209 26.8389ZM32.3866 28.5128V28.877L34.6213 28.8733V28.5092H34.4635L34.1467 28.491C34.0119 28.4715 33.9367 28.4218 33.9367 28.3417C33.9224 28.2862 33.9163 28.229 33.9185 28.1717V26.6131C33.917 26.4104 33.9276 26.2077 33.95 26.0062C33.9683 25.837 34.0173 25.6724 34.0945 25.5207C34.1889 25.3397 34.3244 25.1834 34.4902 25.0643C34.642 24.9579 34.8231 24.9011 35.0085 24.9016C35.1971 24.9004 35.3807 24.9619 35.5305 25.0764C35.6042 25.128 35.6661 25.1946 35.7124 25.2718C35.7586 25.3489 35.788 25.435 35.7987 25.5243C35.8048 25.568 35.8157 25.6469 35.8303 25.7598C35.8457 25.8883 35.853 26.0176 35.8521 26.147V28.2045C35.855 28.249 35.8488 28.2936 35.8339 28.3356C35.8188 28.3684 35.8014 28.4 35.7817 28.4303C35.7526 28.4813 35.6822 28.5055 35.5705 28.5055C35.5175 28.508 35.4648 28.5145 35.4127 28.525C35.3607 28.5353 35.3079 28.5418 35.2549 28.5444L35.1335 28.525V28.8697H37.3621V28.5055H36.8171C36.7792 28.4982 36.7441 28.4802 36.7161 28.4535C36.6881 28.4268 36.6684 28.3926 36.6593 28.355V26.1847C36.6609 26.011 36.6503 25.8374 36.6278 25.6651C36.6106 25.5338 36.5805 25.4045 36.5379 25.2791C36.4559 25.005 36.2872 24.7649 36.0572 24.5946C35.8273 24.4244 35.5483 24.3332 35.2622 24.3348C35.0257 24.3313 34.7929 24.3935 34.5897 24.5144C34.2995 24.7026 34.0667 24.9672 33.9173 25.2791V24.4865L32.389 24.58V24.9745L32.8284 24.9927C32.9692 25.0267 33.0506 25.0764 33.0712 25.148C33.0912 25.223 33.103 25.2999 33.1064 25.3775V25.6324V28.2506C33.1064 28.3562 33.0833 28.4206 33.036 28.4424C32.9791 28.467 32.9183 28.4814 32.8564 28.4849C32.7835 28.491 32.6961 28.5007 32.5966 28.5128H32.3866ZM39.3274 26.6192V21.9119L37.7469 21.9945V22.3914H37.8355L38.1548 22.4145C38.2439 22.4171 38.3315 22.4382 38.4121 22.4764C38.4393 22.4925 38.4627 22.5142 38.4808 22.5402C38.4988 22.5662 38.511 22.5958 38.5165 22.6269C38.5319 22.7044 38.5392 22.7833 38.5384 22.8624V28.3356C38.5262 28.4303 38.457 28.4873 38.3356 28.5055L38.0468 28.525H37.8355V28.8636H40.0023V28.5237H39.8129C39.7619 28.5163 39.7103 28.513 39.6587 28.514C39.6043 28.5154 39.5499 28.5121 39.4961 28.5043C39.472 28.4978 39.4496 28.486 39.4305 28.4698C39.4114 28.4537 39.3961 28.4336 39.3856 28.4109C39.3475 28.3358 39.3295 28.2522 39.3334 28.1681V27.129L39.9136 26.5828L40.9017 28.0965L41.0231 28.2652C41.0378 28.3114 41.0432 28.3601 41.0389 28.4084C41.0379 28.4364 41.0317 28.464 41.0207 28.4898L40.9296 28.531L40.4587 28.548V28.8709H42.8026V28.531C42.5514 28.5414 42.3048 28.4608 42.1083 28.304C41.9297 28.1287 41.7732 27.9322 41.6422 27.719L40.4999 26.0402L41.045 25.4843C41.211 25.3043 41.3966 25.1434 41.5985 25.0048C41.7976 24.8775 42.0286 24.809 42.2649 24.8069H42.3862V24.4865H40.0666V24.8069H40.347C40.437 24.8097 40.5266 24.819 40.6152 24.8349C40.7294 24.8543 40.7864 24.9016 40.7864 24.9769C40.7855 25.0488 40.7608 25.1184 40.716 25.1747C40.6676 25.2321 40.6148 25.2857 40.5582 25.335L39.3274 26.6192Z" fill="#686868"/>
</svg>
