<svg width="94" height="40" viewBox="0 0 94 40" fill="none" xmlns="http://www.w3.org/2000/svg">
<g clip-path="url(#clip0)">
<path fill-rule="evenodd" clip-rule="evenodd" d="M85.7888 23.0858L87.3832 13.9902H89.6511L88.7683 18.9083L90.4562 17.3671H92.9983L90.5703 19.5137L92.3913 23.0468H89.7351L88.8634 20.8807L88.3515 21.408L88.1043 23.0468L85.7888 23.0858ZM68.0196 19.0173C68.5331 19.0173 68.8485 19.6097 68.7217 20.3404C68.5965 21.0711 68.0766 21.6635 67.5632 21.6635C67.0497 21.6635 66.7343 21.0711 66.8611 20.3404C66.9879 19.6097 67.5061 19.0173 68.0196 19.0173ZM64.1447 23.0468L65.7422 14H67.9958C67.7692 15.3573 67.5441 16.7161 67.3175 18.0734C69.0196 16.6494 71.2812 17.5233 70.9928 20.2346C70.633 21.958 69.7835 23.0875 68.0608 23.1607C67.1638 23.1135 66.5996 22.9361 66.2382 22.3633C66.2145 22.5992 66.1907 22.8368 66.1669 23.0728L64.1447 23.0468ZM78.5413 23.0777C78.8647 21.2306 79.1864 19.3835 79.5097 17.538C80.188 17.538 80.8663 17.538 81.5446 17.538C81.5129 17.7967 81.4796 18.0555 81.4479 18.3159C83.3212 16.6071 85.6399 17.2874 85.0661 19.9547C84.9061 20.9881 84.746 22.0215 84.5859 23.0549C83.8236 23.0582 83.0613 23.0614 82.299 23.0647C82.4591 22.028 82.6191 20.9913 82.7808 19.9547C82.8458 19.5316 82.5779 19.1866 82.1833 19.1866C81.7887 19.1866 81.4131 19.5316 81.3481 19.9547C81.188 20.993 81.0264 22.0313 80.8663 23.0712L78.5413 23.0777ZM53.4248 23.0777C53.7481 21.2306 54.0698 19.3835 54.3931 17.538C55.0714 17.538 55.7497 17.538 56.4281 17.538C56.3964 17.7967 56.3631 18.0555 56.3314 18.3159C57.6452 17.1181 58.986 17.0888 60.013 18.3159C61.2856 16.7601 64.2001 17.0709 63.7722 19.5722C63.5915 20.7277 63.4109 21.8832 63.2302 23.0403L60.9052 23.05L61.3839 19.9547C61.4488 19.5316 61.181 19.1866 60.7864 19.1866C60.3917 19.1866 60.0161 19.5316 59.9512 19.9547L59.471 23.0549L57.1824 23.0647L57.6642 19.9547C57.7292 19.5316 57.4614 19.1866 57.0667 19.1866C56.6721 19.1866 56.2965 19.5316 56.2315 19.9547L55.7497 23.0712L53.4248 23.0777ZM43.2232 17.3411C44.77 17.3411 45.8778 18.3305 45.9396 19.6504H43.6463C43.5449 19.1654 43.2438 18.8318 42.8476 18.8318C42.3008 18.8318 41.7825 19.4697 41.6906 20.2558C41.5987 21.0418 41.9664 21.6797 42.5132 21.6797C42.9014 21.6797 43.2739 21.3591 43.491 20.8921H45.7019C45.1392 22.1956 43.6733 23.1704 42.136 23.1704C40.3594 23.1704 39.1628 21.8669 39.4623 20.2574C39.7603 18.6446 41.445 17.3411 43.2232 17.3411ZM50.0443 18.8301C50.5911 18.8301 50.9588 19.4681 50.8669 20.2541C50.7749 21.0402 50.2567 21.6781 49.7099 21.6781C49.1632 21.6781 48.7955 21.0418 48.8874 20.2541C48.9793 19.4681 49.4976 18.8301 50.0443 18.8301ZM50.4215 17.3411C52.1981 17.3411 53.3947 18.6446 53.0951 20.2541C52.7956 21.8636 51.1109 23.1672 49.3327 23.1672C47.5561 23.1672 46.3596 21.8636 46.6591 20.2541C46.9586 18.6446 48.6433 17.3411 50.4215 17.3411ZM75.5777 20.5568C75.4668 21.281 75.1355 21.7937 74.4794 21.9971C73.8027 22.1566 73.5681 21.3901 73.8994 21.1736C74.3399 20.8074 75.0785 20.9279 75.5777 20.5568ZM72.1053 19.2305C72.8724 19.2305 73.641 19.2305 74.4081 19.2305C75.2449 18.3436 76.0627 18.8122 75.8265 19.294C75.3352 20.2753 71.297 19.2647 71.4904 21.8636C71.5506 22.6627 72.2416 23.2909 73.9659 23.1379C74.481 23.037 74.9549 22.7799 75.4145 22.4788C75.4145 22.6676 75.4145 22.8547 75.4145 23.0435C76.2021 23.0435 76.9914 23.0435 77.779 23.0435C77.6776 22.8873 77.5762 22.7294 77.4732 22.5732C77.6713 21.5007 77.8694 20.4283 78.0675 19.3574C78.3321 18.1141 77.7315 17.5429 76.5429 17.4273C74.6965 17.2678 73.3145 17.4338 72.6537 18.2427C72.4302 18.5291 72.2432 18.8546 72.1053 19.2305ZM36.1801 20.5568C36.0692 21.281 35.738 21.7937 35.0834 21.9971C34.4067 22.1566 34.1721 21.3901 34.5034 21.1736C34.944 20.8074 35.6809 20.9279 36.1801 20.5568ZM32.7078 19.2305C33.4748 19.2305 34.2435 19.2305 35.0105 19.2305C35.8489 18.3436 36.6651 18.8122 36.429 19.294C35.9377 20.2753 31.8995 19.2647 32.0928 21.8636C32.1531 22.6627 32.844 23.2909 34.5684 23.1379C35.0834 23.037 35.5573 22.7799 36.0169 22.4788C36.0169 22.6676 36.0169 22.8547 36.0169 23.0435C36.8046 23.0435 37.5938 23.0435 38.3815 23.0435C38.2801 22.8873 38.1786 22.7294 38.0756 22.5732C38.2737 21.5007 38.4718 20.4283 38.6699 19.3574C38.9346 18.1141 38.3339 17.5429 37.1453 17.4273C35.299 17.2678 33.917 17.4338 33.2561 18.2427C33.0326 18.5291 32.8456 18.8546 32.7078 19.2305ZM28.5333 17.3541C29.5412 17.3541 30.5476 17.3541 31.5556 17.3541C31.4858 14.6282 29.9676 14.0781 28.099 14.0553C25.7281 13.9854 24.2447 14.913 23.3825 16.5973C22.4903 18.5812 23.8009 20.2134 26.4952 20.8074C28.0499 21.0792 28.519 21.9662 27.2496 22.5146C26.1449 22.7929 25.4207 22.4072 25.4 21.5251C24.3747 21.5251 23.3493 21.5251 22.3239 21.5251C22.1892 23.7905 23.5331 25.0143 26.6632 24.9785C29.7885 24.7002 31.3955 22.6611 31.0437 20.2606C30.4906 18.2069 28.1925 18.5746 26.7392 17.7414C25.1243 16.7113 28.0721 15.4875 28.5333 17.3541Z" fill="#686868"/>
<path fill-rule="evenodd" clip-rule="evenodd" d="M14.964 20.6415L14.8975 20.6952C14.3681 22.6856 12.6422 24.1698 10.5645 24.2788L10.5233 24.2837C10.5233 26.134 10.5233 28.0121 10.5233 29.8624C11.097 29.3189 11.6723 28.7737 12.246 28.2302C12.0875 27.5157 11.9291 26.8013 11.7706 26.0885C11.5408 24.9835 11.9196 24.4887 12.8023 24.4969C14.048 24.5392 15.0037 24.3732 14.9244 23.457C14.9371 22.5179 14.9498 21.5806 14.964 20.6415ZM5.6626 20.6253L5.72758 20.679C6.25692 22.6693 7.98281 24.1535 10.0605 24.2625L10.1017 24.2967C10.1017 26.1471 10.1017 27.9958 10.1017 29.8462C9.52803 29.3026 8.95273 28.7574 8.37902 28.2139C8.5375 27.4994 8.69599 26.785 8.85447 26.0722C9.08427 24.9672 8.70549 24.4725 7.82274 24.4806C6.57705 24.5229 5.6214 24.3569 5.70064 23.4407C5.68954 22.5017 5.67528 21.5627 5.6626 20.6253ZM10.5186 14.7601C12.6613 14.8594 14.4157 16.4933 14.7643 18.6154H13.5504C13.3047 17.5332 12.5567 16.6479 11.5725 16.2313V22.5521C12.5471 22.1404 13.2904 21.2681 13.5424 20.1989H12.059V19.006H13.6137H14.4426H14.8103C14.8198 19.1329 14.8261 19.2615 14.8261 19.3917C14.8261 21.8816 12.9148 23.9126 10.517 24.0249V23.0013V22.8011V15.9823V15.4989V14.7601H10.5186ZM10.1033 24.0266C8.10484 23.9338 6.44551 22.5082 5.94787 20.5943H7.19673C7.51528 21.4666 8.1714 22.1681 9.00186 22.5342V20.1647H7.36472H7.06994H5.85595C5.81475 19.9141 5.79256 19.6553 5.79256 19.3933C5.79256 16.9034 7.70388 14.8707 10.1017 14.7601V15.4989V15.9839V18.6349H9.04782V16.2329C7.95745 16.6918 7.15869 17.7285 7.00972 18.9702H10.1097V20.1647H10.1017V22.8027V23.3203V24.0266H10.1033ZM18.7502 21.0988L10.6422 12.773L10.6406 12.7714C10.5344 12.6624 10.3933 12.6087 10.2507 12.6087C10.1097 12.6087 9.96703 12.664 9.86084 12.773L9.85926 12.7746L1.7528 21.0988L1.75121 21.1005C1.64503 21.2095 1.59273 21.3543 1.59273 21.5008C1.59273 21.6457 1.64661 21.7921 1.7528 21.9012L1.75438 21.9028L9.86084 30.227L9.86243 30.2286C9.96861 30.3376 10.1097 30.3913 10.2507 30.3913C10.3933 30.3913 10.5344 30.336 10.6406 30.227L10.6422 30.2254L18.7502 21.9012L18.7518 21.8995C18.858 21.7905 18.9103 21.6457 18.9103 21.4992C18.9119 21.3543 18.858 21.2095 18.7502 21.0988ZM11.0606 12.3434L19.1702 20.6708L19.1718 20.6725V20.6741C19.3937 20.9019 19.5046 21.203 19.5046 21.5024C19.5046 21.8019 19.3937 22.1013 19.1718 22.3292V22.3308L19.1702 22.3324L11.0606 30.6599L11.059 30.6615H11.0574C10.8355 30.8893 10.5423 31.0033 10.2507 31.0033C9.9591 31.0033 9.66749 30.8893 9.44562 30.6615H9.44403L9.44245 30.6599L1.3344 22.3292H1.33282V22.3275C1.11094 22.0997 1 21.8003 1 21.4992C1 21.1997 1.11094 20.9003 1.33282 20.6725V20.6708L1.3344 20.6692L9.44403 12.3434L9.44562 12.3418H9.4472C9.66908 12.1139 9.96227 12 10.2539 12C10.5455 12 10.8371 12.1139 11.059 12.3418H11.0606V12.3434ZM90.4785 29.2261V26.3879H91.0506L92.244 28.2822V26.3879H92.7908V29.2261H92.1997L91.0253 27.3758V29.2261H90.4785ZM89.2566 26.2252L89.5308 25.6458H90.1568L89.61 26.2252H89.2566ZM89.3232 29.2261V26.3879H89.9111V29.2261H89.3232ZM87.5085 29.2261V26.868H86.6432V26.3879H88.9602V26.868H88.0981V29.2261H87.5085ZM83.9109 28.183V27.7045H85.1788V28.8355C85.0552 28.9527 84.8761 29.0536 84.6431 29.1431C84.4086 29.231 84.1724 29.2749 83.9331 29.2749C83.6288 29.2749 83.3626 29.2131 83.1359 29.0894C82.9093 28.9641 82.7382 28.7867 82.6256 28.554C82.5115 28.3229 82.4545 28.0707 82.4545 27.7989C82.4545 27.5043 82.5179 27.2407 82.6446 27.0112C82.773 26.7818 82.9584 26.606 83.2041 26.4839C83.3911 26.3896 83.6241 26.3424 83.9014 26.3424C84.2628 26.3424 84.5465 26.4156 84.7493 26.5637C84.9538 26.7118 85.0837 26.9152 85.1423 27.1772L84.5575 27.283C84.5163 27.143 84.4387 27.034 84.3262 26.9526C84.2121 26.8713 84.071 26.8322 83.9014 26.8322C83.6447 26.8322 83.4402 26.9119 83.2881 27.0698C83.1359 27.2293 83.0615 27.4636 83.0615 27.7777C83.0615 28.1146 83.1375 28.3669 83.2928 28.5361C83.4466 28.7054 83.6479 28.7884 83.8967 28.7884C84.0203 28.7884 84.1439 28.7639 84.2675 28.7184C84.3911 28.6712 84.4973 28.6142 84.5861 28.5475V28.1878H83.9109V28.183ZM79.6192 29.2261V26.3879H80.1913L81.3847 28.2822V26.3879H81.9315V29.2261H81.3403L80.166 27.3758V29.2261H79.6192ZM78.7586 26.3879H79.3165V26.7769C79.3165 26.9364 79.3022 27.0617 79.2737 27.1528C79.2452 27.2439 79.1929 27.3237 79.1168 27.3937C79.0407 27.4636 78.9472 27.5206 78.8331 27.5613C78.8426 27.6427 78.8474 27.7257 78.8474 27.8119C78.8474 28.266 78.719 28.624 78.4654 28.8844C78.2103 29.1448 77.8679 29.2749 77.4384 29.2749C77.0042 29.2749 76.6587 29.1448 76.4035 28.8876C76.1484 28.6289 76.0216 28.2757 76.0216 27.8249C76.0216 27.3497 76.1563 26.9787 76.4273 26.7085C76.6714 26.4628 77.0058 26.3407 77.4321 26.3407C77.8616 26.3407 78.2055 26.4709 78.4638 26.7297C78.6191 26.8875 78.7285 27.0812 78.7903 27.3123C78.9456 27.2439 79.0265 27.117 79.0312 26.9331H78.7618V26.3879H78.7586ZM76.627 27.8054C76.627 28.1179 76.7031 28.3603 76.8552 28.5361C76.9994 28.7021 77.1928 28.7835 77.4369 28.7835C77.6793 28.7835 77.8711 28.7005 78.0153 28.5361C78.1659 28.3636 78.2404 28.1162 78.2404 27.7973C78.2404 27.4799 78.1675 27.2374 78.0217 27.0698C77.8806 26.9103 77.6873 26.8306 77.4369 26.8306C77.188 26.8306 76.9915 26.9119 76.8505 27.0747C76.7015 27.2423 76.627 27.4864 76.627 27.8054ZM75.2846 26.3879H75.8441V26.7769C75.8441 26.9364 75.8298 27.0617 75.8013 27.1528C75.7728 27.2439 75.7205 27.3237 75.6444 27.3953C75.5224 27.5076 75.3354 27.5841 75.0818 27.6215V27.8786C75.0818 28.2122 75.0659 28.4531 75.0342 28.6012C75.0041 28.7395 74.9455 28.8567 74.8599 28.9576C74.6713 29.1692 74.3702 29.2749 73.955 29.2749C73.4938 29.2749 73.1689 29.1627 72.9803 28.9364C72.8963 28.8372 72.8424 28.733 72.8155 28.6224C72.7774 28.4612 72.7584 28.222 72.7584 27.9014V26.3879H73.3464V27.9242C73.3464 28.1699 73.3543 28.3294 73.3686 28.3994C73.4225 28.6565 73.6126 28.7851 73.9375 28.7851C74.2497 28.7851 74.4272 28.6695 74.4685 28.4417C74.4859 28.3441 74.4938 28.1846 74.4938 27.96V26.3896H75.0818V27.4018C75.2751 27.3676 75.4083 27.2993 75.4843 27.1984C75.5303 27.1382 75.5541 27.0503 75.5557 26.9331H75.2846V26.3879ZM69.8217 29.2261V26.3879H70.4113V27.5043H71.565V26.3879H72.153V29.2261H71.565V27.986H70.4113V29.2261H69.8217ZM67.988 29.2261V26.868H67.1227V26.3879H69.4398V26.868H68.5776V29.2261H67.988ZM63.2652 29.2261V26.3879H63.8373L65.0307 28.2822V26.3879H65.5775V29.2261H64.9864L63.812 27.3758V29.2261H63.2652ZM61.6946 26.2252H61.3428L60.7929 25.6458H61.4189L61.6946 26.2252ZM60.5789 27.8054C60.5789 28.126 60.655 28.3701 60.8071 28.5361C60.9593 28.7021 61.1526 28.7851 61.3888 28.7851C61.6233 28.7851 61.8151 28.7037 61.9656 28.5377C62.1162 28.3734 62.1907 28.126 62.1907 27.7973C62.1907 27.4718 62.1178 27.2293 61.972 27.0698C61.8262 26.9103 61.6312 26.8306 61.3888 26.8306C61.1463 26.8306 60.9498 26.9119 60.8008 27.0731C60.6534 27.2342 60.5789 27.4783 60.5789 27.8054ZM59.9735 27.8249C59.9735 27.5352 60.0179 27.2928 60.1066 27.0975C60.1732 26.9526 60.2635 26.8241 60.3776 26.7085C60.4917 26.5946 60.6185 26.5084 60.7548 26.453C60.9371 26.3782 61.1463 26.3407 61.384 26.3407C61.8135 26.3407 62.1574 26.4709 62.4157 26.7297C62.6741 26.9884 62.8024 27.3497 62.8024 27.8119C62.8024 28.2708 62.6741 28.6289 62.4189 28.8876C62.1638 29.1464 61.8214 29.2749 61.3935 29.2749C60.9593 29.2749 60.6154 29.1464 60.3586 28.8892C60.1003 28.6305 59.9735 28.2757 59.9735 27.8249ZM58.2809 28.183V27.7045H59.5488V28.8355C59.4251 28.9527 59.2461 29.0536 59.0131 29.1431C58.7785 29.231 58.5424 29.2749 58.3031 29.2749C57.9988 29.2749 57.7325 29.2131 57.5059 29.0894C57.2793 28.9641 57.1097 28.7867 56.9956 28.554C56.8815 28.3229 56.8244 28.0707 56.8244 27.7989C56.8244 27.5043 56.8878 27.2407 57.0146 27.0112C57.143 26.7818 57.3284 26.606 57.5741 26.4839C57.7611 26.3896 57.994 26.3424 58.2714 26.3424C58.6327 26.3424 58.9164 26.4156 59.1193 26.5637C59.3237 26.7118 59.4537 26.9152 59.5123 27.1772L58.9275 27.283C58.8863 27.143 58.8086 27.034 58.6945 26.9526C58.5804 26.8713 58.4394 26.8322 58.2698 26.8322C58.0131 26.8322 57.8086 26.9119 57.6565 27.0698C57.5043 27.2293 57.4282 27.4636 57.4282 27.7777C57.4282 28.1146 57.5043 28.3669 57.6596 28.5361C57.8134 28.7054 58.0146 28.7884 58.2635 28.7884C58.3871 28.7884 58.5107 28.7639 58.6343 28.7184C58.7579 28.6712 58.8641 28.6142 58.9529 28.5475V28.1878H58.2809V28.183ZM54.6437 29.2261V26.3879H55.2317V29.2261H54.6437ZM53.1951 26.2252H52.8433L52.2949 25.6458H52.921L53.1951 26.2252ZM53.2665 28.1032L52.8639 27.0503L52.4709 28.1032H53.2665ZM54.3489 29.2261H53.7086L53.4535 28.5817H52.2886L52.0493 29.2261H51.4249L52.5612 26.3879H53.184L54.3489 29.2261ZM48.8558 28.3034L49.4296 28.2481C49.4628 28.4352 49.5326 28.5735 49.6388 28.6614C49.7434 28.7493 49.886 28.7932 50.0651 28.7932C50.2553 28.7932 50.3979 28.7542 50.493 28.6761C50.5897 28.5979 50.6372 28.5068 50.6372 28.4027C50.6372 28.3359 50.6166 28.279 50.5754 28.2318C50.5358 28.1846 50.4645 28.1439 50.363 28.1081C50.2949 28.0837 50.1364 28.043 49.8923 27.9844C49.577 27.9079 49.3551 27.8152 49.2283 27.7045C49.0492 27.5483 48.9589 27.3579 48.9589 27.1333C48.9589 26.9884 49.0017 26.8534 49.0856 26.7281C49.1696 26.6027 49.2917 26.5067 49.4502 26.44C49.6086 26.3749 49.7988 26.3407 50.0239 26.3407C50.39 26.3407 50.6657 26.4188 50.8512 26.5751C51.035 26.7313 51.1333 26.9396 51.1428 27.2016L50.5548 27.226C50.5294 27.0796 50.4756 26.9754 50.3931 26.9119C50.3107 26.8485 50.1855 26.8159 50.0207 26.8159C49.8495 26.8159 49.7148 26.8501 49.6197 26.9185C49.5579 26.9624 49.5262 27.021 49.5262 27.0942C49.5262 27.1609 49.5548 27.2195 49.6134 27.2667C49.6879 27.3269 49.8686 27.3904 50.1538 27.4571C50.4407 27.5239 50.6515 27.5906 50.7894 27.6622C50.9272 27.7322 51.0334 27.8282 51.1127 27.9502C51.1903 28.0723 51.2284 28.2236 51.2284 28.4027C51.2284 28.5654 51.1824 28.7184 51.0889 28.86C50.9954 29.0015 50.8654 29.1073 50.6958 29.1757C50.5263 29.2457 50.3139 29.2798 50.0619 29.2798C49.6926 29.2798 49.4105 29.1968 49.2124 29.0308C49.0112 28.8616 48.8939 28.6207 48.8558 28.3034ZM46.0618 28.183V27.7045H47.3296V28.8355C47.206 28.9527 47.0269 29.0536 46.794 29.1431C46.5594 29.231 46.3233 29.2749 46.084 29.2749C45.7797 29.2749 45.5134 29.2131 45.2868 29.0894C45.0602 28.9641 44.889 28.7867 44.7749 28.554C44.6608 28.3229 44.6037 28.0707 44.6037 27.7989C44.6037 27.5043 44.6671 27.2407 44.7939 27.0112C44.9223 26.7818 45.1077 26.606 45.3533 26.4839C45.5404 26.3896 45.7733 26.3424 46.0507 26.3424C46.412 26.3424 46.6957 26.4156 46.8986 26.5637C47.103 26.7118 47.233 26.9152 47.2916 27.1772L46.7068 27.283C46.6656 27.143 46.5879 27.034 46.4738 26.9526C46.3613 26.8713 46.2187 26.8322 46.0491 26.8322C45.7924 26.8322 45.5879 26.9119 45.4358 27.0698C45.2836 27.2293 45.2075 27.4636 45.2075 27.7777C45.2075 28.1146 45.2852 28.3669 45.4389 28.5361C45.5927 28.7054 45.7939 28.7884 46.0428 28.7884C46.1664 28.7884 46.29 28.7639 46.4136 28.7184C46.5372 28.6712 46.6434 28.6142 46.7322 28.5475V28.1878H46.0618V28.183ZM41.77 29.2261V26.3879H42.3437L43.5371 28.2822V26.3879H44.0839V29.2261H43.4927L42.3184 27.3758V29.2261H41.77ZM40.2993 26.2252H39.9475L39.3991 25.6458H40.0251L40.2993 26.2252ZM40.369 28.1032L39.9681 27.0503L39.5734 28.1032H40.369ZM41.4531 29.2261H40.8128L40.5576 28.5817H39.3928L39.1519 29.2261H38.5274L39.6638 26.3879H40.2866L41.4531 29.2261ZM35.8839 29.2261V26.3879H36.4735V27.5043H37.6273V26.3879H38.2152V29.2261H37.6273V27.986H36.4735V29.2261H35.8839ZM31.8156 29.2261V26.3879H32.3894L33.5827 28.2822V26.3879H34.1295V29.2261H33.5384L32.364 27.3758V29.2261H31.8156ZM29.3401 26.2252L29.7569 25.654H30.2736L30.6841 26.2252H30.2356L30.0042 25.9371L29.7902 26.2252H29.3401ZM30.4146 28.1032L30.0137 27.0503L29.6191 28.1032H30.4146ZM31.4987 29.2261H30.8584L30.6032 28.5817H29.4384L29.1975 29.2261H28.5731L29.7094 26.3879H30.3322L31.4987 29.2261ZM27.0579 28.183V27.7045H28.3258V28.8355C28.2022 28.9527 28.0231 29.0536 27.7901 29.1431C27.5556 29.231 27.3194 29.2749 27.0801 29.2749C26.7758 29.2749 26.5096 29.2131 26.283 29.0894C26.0563 28.9641 25.8852 28.7867 25.7711 28.554C25.6569 28.3229 25.5999 28.0707 25.5999 27.7989C25.5999 27.5043 25.6633 27.2407 25.7901 27.0112C25.9184 26.7818 26.1039 26.606 26.3495 26.4839C26.5365 26.3896 26.7695 26.3424 27.0469 26.3424C27.4082 26.3424 27.6919 26.4156 27.8947 26.5637C28.0976 26.7118 28.2291 26.9152 28.2878 27.1772L27.703 27.283C27.6618 27.143 27.5841 27.034 27.4716 26.9526C27.3575 26.8713 27.2164 26.8322 27.0469 26.8322C26.7901 26.8322 26.5857 26.9119 26.4335 27.0698C26.2814 27.2293 26.2053 27.4636 26.2053 27.7777C26.2053 28.1146 26.2814 28.3669 26.4367 28.5361C26.5904 28.7054 26.7917 28.7884 27.0405 28.7884C27.1641 28.7884 27.2878 28.7639 27.4114 28.7184C27.535 28.6712 27.6412 28.6142 27.7299 28.5475V28.1878H27.0579V28.183ZM22.7662 29.2261V26.3879H23.3383L24.5317 28.2822V26.3879H25.0785V29.2261H24.4873L23.313 27.3758V29.2261H22.7662ZM31.9757 24.243H92.9842V25.0404H31.9757V24.243Z" fill="#686868"/>
</g>
<defs>
<clipPath id="clip0">
<rect width="92" height="19" fill="white" transform="translate(1 12)"/>
</clipPath>
</defs>
</svg>
