<svg width="58" height="40" viewBox="0 0 58 40" fill="none" xmlns="http://www.w3.org/2000/svg">
<g clip-path="url(#clip0)">
<path d="M40.417 19.0531C40.3843 19.0208 40.3399 18.9942 40.285 18.9711C40.4193 18.9607 40.5279 18.9145 40.6085 18.8302C40.6902 18.7471 40.7299 18.649 40.7299 18.5358C40.7299 18.4561 40.7054 18.3811 40.6575 18.3106C40.6085 18.2402 40.5443 18.1906 40.4614 18.1617C40.382 18.134 40.2559 18.1201 40.0807 18.1201H40.0644H39.5295V19.6582H39.7818V19.0046H39.9289C39.9896 19.0046 40.0398 19.0127 40.0819 19.03C40.1005 19.0381 40.1169 19.0473 40.1309 19.0577C40.1975 19.1062 40.285 19.2251 40.3936 19.4157L40.5326 19.6582H40.8397L40.6505 19.3568C40.556 19.2148 40.4789 19.1131 40.417 19.0531ZM40.0854 18.7933H40.0795H39.7794V18.328H40.0644H40.0795C40.1951 18.3291 40.2734 18.3372 40.3177 18.3545C40.3633 18.3718 40.3983 18.3984 40.424 18.4342C40.4497 18.47 40.4625 18.5116 40.4625 18.5566C40.4625 18.6282 40.4357 18.6848 40.3831 18.7275C40.3306 18.7714 40.2302 18.7933 40.0854 18.7933Z" fill="#686868"/>
<path d="M41.4163 18.1511C41.2867 17.9213 41.1068 17.7458 40.8756 17.6222C40.6433 17.4987 40.4062 17.4375 40.1645 17.4375C40.1365 17.4375 40.1085 17.4387 40.0804 17.4398C39.8667 17.4525 39.6566 17.5126 39.4522 17.6222C39.221 17.7458 39.04 17.9213 38.9104 18.1511C38.7808 18.3797 38.7166 18.6199 38.7166 18.8682C38.7166 19.1153 38.7796 19.352 38.9081 19.5783C39.0353 19.8058 39.214 19.9824 39.444 20.1083C39.6472 20.2203 39.8597 20.2826 40.0804 20.2942C40.1085 20.2953 40.1365 20.2965 40.1645 20.2965C40.4156 20.2965 40.6549 20.2341 40.885 20.1083C41.1138 19.9824 41.2925 19.8058 41.4198 19.5783C41.5471 19.3508 41.6113 19.1141 41.6113 18.8682C41.6101 18.6199 41.5447 18.3797 41.4163 18.1511ZM41.2096 19.4605C41.1033 19.6499 40.955 19.7965 40.7635 19.9027C40.572 20.009 40.3712 20.0609 40.1633 20.0609C40.1353 20.0609 40.1073 20.0598 40.0793 20.0575C39.9006 20.0448 39.729 19.9928 39.5631 19.9016C39.3716 19.7965 39.2222 19.6487 39.1159 19.4593C39.0096 19.27 38.9559 19.0725 38.9559 18.867C38.9559 18.6592 39.0096 18.4605 39.1182 18.2689C39.2268 18.0783 39.3775 17.9306 39.5701 17.8278C39.736 17.7389 39.9053 17.6881 40.0804 17.6765C40.1085 17.6742 40.1365 17.6731 40.1645 17.6731C40.3653 17.6731 40.5639 17.725 40.7565 17.8278C40.9492 17.9306 41.0998 18.0783 41.2084 18.2689C41.317 18.4605 41.3707 18.6592 41.3707 18.867C41.3696 19.0748 41.3159 19.2723 41.2096 19.4605Z" fill="#686868"/>
<path d="M40.7812 11.7422L40.1226 11.0932L32.9319 4L29.0317 7.85549L29.0282 7.85895L25.086 4.00346L17.2612 11.7583L25.1059 19.5005L29.0119 15.6381L29.0306 15.6427H29.0329L32.947 19.5062L40.1226 12.3934L40.7812 11.7422ZM29.0317 15.5907L29.0259 15.5965C28.9044 15.5468 25.9338 12.5574 25.3663 12.0031C25.0697 11.7144 25.0125 11.8495 25.6127 11.256C26.1031 10.7699 26.5784 10.3011 27.07 9.81498C27.6363 9.25612 28.3533 8.5737 28.8916 8.01252C28.9523 7.94902 28.9955 7.9213 29.0317 7.91899C29.1065 7.91438 29.1543 8.01714 29.2758 8.13838C29.5245 8.3878 29.7604 8.6222 30.0044 8.85891C30.5299 9.36928 30.9608 9.82307 31.4641 10.2988C31.6474 10.472 32.8443 11.6255 32.9143 11.7491L29.0317 15.5907Z" fill="#686868"/>
<path d="M4.57488 24.6723L4.46045 24.7404V29.7402L4.46278 29.8279C4.73486 29.8545 7.11815 29.8406 7.55604 29.8372L7.65413 29.8348C7.66697 29.5647 7.66347 28.9665 7.65529 28.6825L5.87221 28.6802C5.85236 28.455 5.86053 28.067 5.8652 27.8269L7.56188 27.813C7.57823 27.5497 7.57005 26.9978 7.56655 26.7137L5.86987 26.6964C5.85586 26.514 5.85819 26.0094 5.86754 25.82C5.99949 25.7911 7.03524 25.8085 7.31199 25.8096C7.49298 25.8096 7.66347 25.8697 7.66347 25.7011C7.66347 25.4066 7.67281 24.9586 7.65996 24.6815C7.45795 24.6596 4.60057 24.6653 4.57488 24.6723Z" fill="#686868"/>
<path d="M26.508 24.564C26.4146 24.5571 26.3223 24.5548 26.2313 24.5559C24.6864 24.5663 23.6214 25.6044 23.4428 27.0016C23.2349 28.6204 24.5591 29.8098 25.9627 29.9703C26.0538 29.9806 26.1437 29.9864 26.2324 29.9887C27.7329 30.0211 28.8329 28.8641 29.0104 27.5362C29.2171 25.9901 27.9069 24.6622 26.508 24.564ZM27.5741 27.4923C27.4048 28.3906 26.8174 28.7925 26.2324 28.7913C25.4851 28.7902 24.7424 28.1343 24.8814 27.0223C24.9655 26.3469 25.4968 25.7268 26.2324 25.743C26.3083 25.7453 26.3866 25.7534 26.466 25.7684C27.1689 25.9069 27.7283 26.6667 27.5741 27.4923Z" fill="#686868"/>
<path d="M0.00931821 24.6793C-0.0081974 24.9229 0.00347967 25.5499 0.00464738 25.8317C0.00464738 25.9622 0.865248 25.8675 1.16885 25.901L1.17235 29.8384L2.59579 29.8407L2.6063 25.9021L3.77401 25.8952C3.79035 25.7324 3.78685 24.8721 3.77634 24.6781C3.61286 24.6654 0.225344 24.6608 0.00931821 24.6793Z" fill="#686868"/>
<path d="M10.3144 26.0104C10.7079 25.7044 11.2871 25.6548 11.7144 25.8442C12.2201 26.0693 12.2796 26.3141 12.4034 26.3222L12.394 24.8073C12.2668 24.7114 12.1839 24.686 12.0262 24.6364L11.9106 24.5971C11.8114 24.5555 11.4517 24.4909 11.3396 24.4863C10.7161 24.462 10.3727 24.4574 9.81225 24.7183C9.3078 24.9539 8.94698 25.3326 8.65972 25.8095C8.19498 26.5797 8.20198 27.9064 8.68541 28.6835C8.77182 28.8233 8.95515 29.0981 9.07075 29.1974C9.14549 29.2609 9.21789 29.3452 9.30196 29.4075C9.34984 29.4433 9.37786 29.4549 9.43391 29.5057C9.48412 29.5507 9.49346 29.5553 9.55769 29.5923C9.61257 29.6246 9.63826 29.65 9.69548 29.6835C10.0318 29.8786 10.7908 30.0414 11.1808 29.9906L11.7588 29.896C11.8207 29.8775 11.788 29.8775 11.8441 29.8625C12.0227 29.8151 12.2481 29.7493 12.4046 29.6581L12.4034 28.1131C12.3485 28.1189 12.3462 28.127 12.3065 28.172C11.8149 28.732 10.9531 28.9318 10.3295 28.4445C9.94537 28.1431 9.77955 27.7344 9.77955 27.2529C9.77955 27.1628 9.77722 27.0439 9.78656 26.9561C9.82392 26.6178 10.0481 26.2183 10.3144 26.0104Z" fill="#686868"/>
<path d="M35.1083 24.6853L33.686 24.6726L32.7273 27.8861L31.7861 24.6876L30.859 24.6726C30.3195 24.6726 30.3732 24.5502 30.3043 25.0444C30.2319 25.5652 30.1186 26.116 30.0544 26.6229C29.9844 27.1679 29.8828 27.6933 29.8069 28.2175C29.7391 28.6817 29.571 29.4126 29.5698 29.834C29.7146 29.8398 30.7983 29.8537 30.8531 29.8271C30.9325 29.789 31.0189 28.9011 31.0365 28.759C31.082 28.3791 31.1416 28.035 31.1836 27.6482C31.2058 27.445 31.2677 26.7002 31.3132 26.542L32.2462 29.8213L33.2002 29.8364L34.1601 26.5848L34.5583 29.8271L35.9023 29.8375L35.1083 24.6853Z" fill="#686868"/>
<path d="M16.5207 24.9802C16.5231 25.3278 16.5663 26.4016 16.5102 26.6695C16.2989 26.6707 14.6874 26.7042 14.6267 26.6603L14.6244 24.68L13.2045 24.6708L13.1963 29.8357L14.6244 29.8253L14.6256 27.7434L16.5114 27.7376L16.5207 29.8264L17.9594 29.8357L17.9617 24.6754L17.0754 24.6708C16.4215 24.6708 16.5184 24.6096 16.5207 24.9802Z" fill="#686868"/>
<path d="M20.6883 26.0104C21.0806 25.7044 21.661 25.6548 22.0884 25.8442C22.594 26.0693 22.6535 26.3141 22.7773 26.3222L22.768 24.8073C22.6407 24.7114 22.5578 24.686 22.4001 24.6364L22.2845 24.5971C22.1841 24.5555 21.8256 24.4909 21.7124 24.4863C21.0888 24.462 20.7455 24.4574 20.1838 24.7183C19.6805 24.9539 19.3186 25.3326 19.0313 25.8095C18.5666 26.5797 18.5736 27.9064 19.057 28.6835C19.1434 28.8233 19.3267 29.0981 19.4423 29.1974C19.5171 29.2609 19.5895 29.3452 19.6735 29.4075C19.7214 29.4433 19.7494 29.4549 19.8055 29.5057C19.8557 29.5507 19.865 29.5553 19.9293 29.5923C19.9842 29.6246 20.0098 29.65 20.0671 29.6835C20.4034 29.8786 21.1624 30.0414 21.5524 29.9906L22.1304 29.896C22.1923 29.8775 22.1596 29.8775 22.2156 29.8625C22.3943 29.8151 22.6197 29.7493 22.7761 29.6581L22.7738 28.1131C22.7189 28.1189 22.7166 28.127 22.6769 28.172C22.1853 28.732 21.3235 28.9318 20.7 28.4445C20.3158 28.1431 20.15 27.7344 20.15 27.2529C20.15 27.1628 20.1476 27.0439 20.157 26.9561C20.1978 26.6178 20.422 26.2183 20.6883 26.0104Z" fill="#686868"/>
<path d="M56.0031 27.2822C55.884 27.1252 56.2518 26.7926 56.3768 26.6275C56.6091 26.3192 57.8224 24.7765 57.8457 24.6796C57.4592 24.6588 56.7236 24.6749 56.302 24.6749C55.8373 25.1992 55.8128 25.2142 55.4087 25.8042C55.2814 25.9913 54.6509 26.9196 54.5586 26.9728L54.5551 24.683C54.3882 24.6669 53.315 24.668 53.1352 24.6853L53.134 29.8375C53.3034 29.8387 54.4979 29.8779 54.554 29.8306L54.5563 27.5674L55.8641 29.3214C55.9389 29.423 56.1771 29.8479 56.3452 29.8479L57.9987 29.8468C57.9952 29.7197 56.2109 27.5559 56.0031 27.2822Z" fill="#686868"/>
<path d="M50.6514 27.3619C50.6538 27.6021 50.725 27.9508 50.7052 28.1633L50.175 27.2176C49.9847 26.9601 49.7628 26.6633 49.5491 26.3724C49.1264 25.7996 48.7165 25.2616 48.2892 24.6761L46.9159 24.675L46.9089 29.833L48.2938 29.8283L48.2635 26.4347C48.2506 26.4151 48.2401 26.4012 48.2343 26.3955H48.2623V26.4347C48.3686 26.5975 48.6792 27.1899 48.7819 27.3261C48.9863 27.5975 49.2105 27.9116 49.4067 28.1702C49.8107 28.7002 50.2299 29.3734 50.6468 29.841L52.0235 29.8457L52.0282 24.6877L50.6561 24.6738L50.6514 27.3619Z" fill="#686868"/>
<path d="M43.7165 24.6781C43.323 24.6769 42.926 24.6735 42.8256 24.6735L41.0425 29.8441C42.6562 29.8799 42.4099 29.9481 42.5628 29.4135C42.6119 29.2414 42.6481 29.1005 42.7076 28.9216L43.7165 28.9181L44.7172 28.9146L44.987 29.8418C45.1575 29.8418 46.3439 29.8592 46.4081 29.8372L44.6028 24.6631C44.5631 24.6769 44.1416 24.6793 43.7165 24.6781ZM43.7165 27.9054H43.0194L43.7165 25.5938L43.7212 25.5776L44.4136 27.9066L43.7165 27.9054Z" fill="#686868"/>
<path d="M39.6587 27.0542C39.8047 26.956 39.9927 26.9352 40.1795 26.7932C40.6933 26.4029 40.6057 25.5461 40.2332 25.1443C39.9039 24.7875 39.3166 24.6928 38.7012 24.672C38.3334 24.6593 37.9562 24.6732 37.6164 24.6732C36.5526 24.6732 36.6531 24.5958 36.6601 24.8914C36.6741 25.4849 36.6612 26.1893 36.6612 26.792C36.6612 27.2193 36.632 29.636 36.6729 29.8416H38.6989H38.7012C39.3458 29.8242 39.9156 29.763 40.3045 29.449C40.6559 29.1649 40.8778 28.5991 40.7283 27.9779C40.5252 27.1396 39.8666 27.1615 39.6587 27.0542ZM38.7012 25.7182C38.9791 25.7644 39.1893 25.896 39.1893 26.2251C39.1893 26.5438 38.9803 26.6754 38.7012 26.7251C38.4852 26.7632 38.2271 26.7516 37.9924 26.7366V25.7136C38.2259 25.6986 38.484 25.6824 38.7012 25.7182ZM39.2524 28.628C39.1298 28.7238 38.9219 28.7665 38.7012 28.7839C38.5015 28.7989 38.2902 28.7943 38.1209 28.7885C37.9574 28.7827 37.9854 28.7608 37.9901 28.5853C37.9959 28.3174 37.9772 27.8936 37.9982 27.6719C38.1816 27.6534 38.4548 27.65 38.7024 27.6708C38.8927 27.6869 39.0679 27.7181 39.1706 27.7677C39.4415 27.9017 39.5186 28.419 39.2524 28.628Z" fill="#686868"/>
</g>
<defs>
<clipPath id="clip0">
<rect width="58" height="26" fill="white" transform="translate(0 4)"/>
</clipPath>
</defs>
</svg>
