<svg width="78" height="40" viewBox="0 0 78 40" fill="none" xmlns="http://www.w3.org/2000/svg">
<g clip-path="url(#clip0)">
<g clip-path="url(#clip1)">
<path fill-rule="evenodd" clip-rule="evenodd" d="M58.9284 3.21289C57.6871 3.45761 57.2283 4.0132 57.2756 4.80689C57.3363 5.92467 58.5911 8.05441 59.1915 9.00022C60.2372 10.6604 61.4785 12.1551 62.8547 13.5375C63.9678 14.6156 64.6694 14.8537 65.8635 13.2597C66.8822 11.9435 67.8199 10.6405 68.6227 9.00684C68.9735 8.29251 69.3041 7.51205 69.5942 6.63238C69.9045 5.60719 69.7966 4.70106 68.7711 4.03965C69.7561 4.50925 70.1879 5.3757 70.2486 6.33474C70.3093 7.26072 70.0259 8.26606 69.8101 9.00684C69.2771 10.8522 68.589 12.7107 67.7187 14.3841C67.0643 15.6474 66.2278 17.1686 65.3913 18.293C63.5428 20.7865 61.7753 19.9796 59.6975 18.293C58.3819 17.2215 57.1136 15.8723 56.0275 14.3907C54.9279 12.9025 53.7203 10.6934 53.0052 8.99361C52.027 6.67206 52.7893 5.48152 53.9969 4.72752C55.3259 3.90076 57.316 3.43116 58.9284 3.21289Z" fill="#686868"/>
<path fill-rule="evenodd" clip-rule="evenodd" d="M58.881 8.50995C60.8037 8.22555 65.8026 7.9213 67.5567 8.8142C68.1436 9.11183 68.1571 9.51529 68.1031 9.97167C68.2785 9.6608 68.4472 9.33671 68.6158 9.00601C68.9666 8.29169 69.2972 7.51122 69.5873 6.63155C69.8976 5.60637 69.7897 4.70024 68.7642 4.03883H68.7575C68.3797 3.84702 67.9412 3.70151 67.5499 3.58907C66.3963 3.25836 65.1145 3.12608 63.826 3.03348C63.293 2.9938 62.7399 3.00041 62.1732 3.00041C61.1545 3.00041 60.0346 3.06655 58.9215 3.21206C57.6802 3.45679 57.2214 4.01237 57.2687 4.80606C57.3226 5.75849 58.2401 7.44508 58.881 8.50995Z" fill="#686868"/>
<path fill-rule="evenodd" clip-rule="evenodd" d="M53.8619 28.9539C54.8671 28.8348 55.7171 28.3322 56.0005 26.844C56.1826 25.8916 56.1556 24.3571 55.8858 23.4642C55.7576 23.0475 55.5687 22.697 55.2921 22.4655C54.8199 22.0819 54.3004 22.0091 53.8417 21.9959C53.0659 21.9694 52.6476 22.1017 52.0877 22.5448C51.9797 22.6308 51.8853 22.6705 51.8853 22.5184L51.865 19.3436L50.0705 19.3701L50.0773 28.4711C50.8396 28.9737 52.9512 29.0597 53.8619 28.9539ZM5.74101 28.7753C6.1188 28.7753 6.04459 28.8084 6.27396 28.4975C7.83234 26.4009 9.30977 21.9297 9.28953 19.4362C8.56094 19.4031 7.83235 19.5222 7.097 19.6942C6.3954 23.7883 5.77474 24.8664 4.64812 26.9564C3.5215 24.8664 2.90084 23.7883 2.19924 19.6942C1.45715 19.5222 0.728555 19.4098 -3.85794e-05 19.4362C-0.0202773 21.9297 1.45715 26.4009 3.01553 28.4975C3.2449 28.8084 3.17069 28.7753 3.54848 28.7753H5.74101ZM57.316 22.3266L57.4914 23.9272C58.1998 23.861 58.7799 23.6758 59.5288 23.6229C60.6486 23.5833 61.3638 23.5568 61.33 24.3571C60.4935 24.3571 59.6435 24.3571 58.7732 24.3637C57.714 24.3703 56.837 24.8664 56.9517 26.9697C57.0934 29.5029 60.1562 29.3111 61.5526 28.2991V28.8679H63.1785C63.138 26.2818 63.3269 23.57 62.8547 22.8359C61.9507 21.4337 58.9756 21.9496 57.316 22.3266ZM18.9974 28.5637C18.9367 28.0412 18.8759 27.5186 18.8152 27.0027C18.0799 27.135 16.8183 27.3202 16.0762 27.2938C15.2195 27.2673 14.9024 26.8638 14.9024 25.6667C15.1723 25.9709 15.5568 26.1826 16.0358 26.1892C17.1556 26.2024 18.2013 26.2223 19.301 26.1826C19.3482 24.1917 19.5236 22.4522 17.493 22.0223C16.6699 21.8504 15.5703 21.8504 14.7877 22.0819C13.9309 22.3332 13.5059 22.73 13.2563 23.57C12.7976 25.1309 12.9258 27.4525 13.9512 28.3454C15.1453 29.364 17.5132 28.9936 18.9974 28.5637ZM15.7322 23.5634H16.6294C17.0747 23.5634 17.4457 23.9206 17.4457 24.3637V24.7209H14.9226V24.3637C14.9159 23.9206 15.2802 23.5634 15.7322 23.5634ZM73.1022 28.8547L73.1562 25.9246C73.1562 25.7461 73.3248 25.9842 73.3653 26.0569C73.959 27.0292 74.5054 27.7634 75.3824 28.6232C75.632 28.8679 75.6793 28.8481 76.1178 28.8481H78C76.6237 27.7369 75.8614 26.844 75.1328 25.4947C74.9844 25.1839 74.9911 25.2169 75.2003 24.9259C75.4701 24.6151 75.8142 24.205 76.192 23.7751L77.7976 21.9231C77.8043 21.9099 77.8111 21.8967 77.8178 21.8834H76.111C75.8007 21.8834 75.8074 21.8371 75.5916 22.0686C74.9439 22.7565 74.1951 23.5568 73.5947 24.2116C73.5205 24.291 73.4328 24.3505 73.3586 24.4034C73.1089 24.5754 73.1562 24.5291 73.1562 24.2843L73.1427 19.3105L71.3279 19.3238L71.3077 28.8481H73.1022V28.8547ZM30.9382 28.6232L30.7763 27.0689C29.96 27.135 29.0897 27.3599 28.2195 27.2607C27.3492 27.1681 27.2413 26.7117 27.2345 26.0172C27.2278 25.6005 27.2143 25.1243 27.2413 24.7076C27.275 24.1388 27.4437 23.7751 28.2195 23.6891C29.0897 23.5965 29.96 23.8147 30.7763 23.8809L30.9382 22.3266C27.8147 21.6056 25.865 21.9628 25.4333 24.3373C25.3456 24.8333 25.3861 26.467 25.5075 26.9366C26.0607 29.02 27.9699 29.3111 30.9382 28.6232ZM21.1359 21.9893C20.7581 21.9893 20.3736 21.9893 19.9958 21.9893C19.9958 22.5382 19.9891 23.0872 19.9891 23.6362C20.3803 23.6362 20.7446 23.6428 21.1427 23.6428C21.1427 24.1984 21.1427 24.787 21.1427 25.3492C21.1427 25.9379 21.1359 26.4868 21.1359 26.9697C21.1427 27.6641 21.2776 28.266 21.6756 28.5769C21.8443 28.7092 22.0871 28.7753 22.384 28.8084C23.0923 28.8878 23.9761 28.8481 24.5765 28.6563C24.5563 28.1867 24.536 27.7171 24.5158 27.2408C23.8142 27.307 22.9507 27.4591 22.9574 27.1019C22.9574 25.9048 22.9574 24.8399 22.9574 23.6362C23.5173 23.6362 24.0503 23.6295 24.617 23.6295C24.617 23.0806 24.617 22.5382 24.6102 21.9893C24.057 21.9893 23.5106 21.9826 22.9574 21.9826C22.9574 21.4403 22.9574 20.8913 22.9574 20.349C22.3502 20.349 21.7363 20.349 21.1292 20.349C21.1359 20.9045 21.1359 21.4469 21.1359 21.9893ZM9.99114 28.8547L11.7654 28.8878L11.8329 22.0157L9.9844 22.0223L9.99114 28.8547ZM34.1832 21.8967H35.7753C37.0166 21.8967 38.0353 22.8954 38.0353 24.1124V26.7382C38.0353 27.9552 37.0166 28.9539 35.7753 28.9539H34.1832C32.9418 28.9539 31.9232 27.9552 31.9232 26.7382V24.1124C31.9232 22.8954 32.9351 21.8967 34.1832 21.8967ZM34.5272 23.5634C34.082 23.5634 33.7109 23.9206 33.7109 24.3637V26.5001C33.7109 26.9366 34.0752 27.3004 34.5272 27.3004H35.4245C35.8697 27.3004 36.2408 26.9432 36.2408 26.5001V24.3637C36.2408 23.9272 35.8765 23.5634 35.4245 23.5634H34.5272ZM41.0036 28.8547C41.0171 27.1019 41.0373 25.3558 41.0508 23.6031C41.4961 23.6031 41.9413 23.6031 42.3866 23.6031C42.7374 23.6097 43.0882 23.828 43.0882 24.1984V24.4431L43.0949 28.8547H44.8894L44.9367 23.5965C45.4224 23.5965 45.9149 23.5965 46.4006 23.5965C46.8323 23.5965 47.1157 23.8346 47.1157 24.238L47.1224 28.8547H48.8967L48.9574 23.8941C48.9709 22.8359 48.3772 21.9694 47.1562 21.976C46.7716 21.9826 46.3804 21.9826 45.9958 21.9893C45.4089 21.9959 45.0986 22.0951 44.741 22.4655C44.4712 22.7366 44.6061 22.7433 44.3565 22.4853C43.9989 22.1083 43.5672 21.9826 43.014 21.9826C42.7441 21.9826 42.4675 21.9826 42.1977 21.9826C41.6985 22.0025 41.3814 22.1546 41.0103 22.525C40.7135 22.8226 40.7472 22.9152 40.7472 22.4522C40.7472 22.3067 40.7472 22.1678 40.7472 22.0223C40.2413 22.0223 39.7218 22.0289 39.2226 22.0289C39.2226 24.3042 39.2293 26.5794 39.2293 28.8547H41.0036ZM66.1401 28.8547C66.1536 27.1019 66.1738 25.3558 66.1873 23.6031C66.6393 23.6031 67.0913 23.6031 67.5366 23.6031C67.9346 23.6097 68.2517 23.8412 68.2517 24.238C68.2517 25.7791 68.2584 27.3136 68.2584 28.8547C68.8656 28.8547 69.4727 28.8547 70.0731 28.8547C70.0866 27.3268 70.1001 25.7924 70.1204 24.2645C70.1339 23.0541 69.6481 21.976 68.1774 21.976C67.9008 21.976 67.6243 21.976 67.3477 21.976C66.8619 21.9959 66.5449 22.1414 66.1806 22.4853C65.8702 22.7829 65.877 22.9417 65.877 22.4721V22.0157H64.3253C64.3253 24.291 64.3321 26.5794 64.3321 28.8547C64.9393 28.8547 65.5397 28.8547 66.1401 28.8547ZM59.3804 25.8916C60.0415 25.8916 60.7026 25.8916 61.357 25.8916C61.357 26.2289 61.357 26.5662 61.357 26.9035C61.357 27.3268 60.1089 27.3401 59.3129 27.3268C58.7327 27.3136 58.8002 27.3268 58.7732 26.8242C58.7664 26.6323 58.7732 26.4472 58.7732 26.2553C58.7799 25.8651 58.8609 25.8916 59.3804 25.8916ZM54.233 24.668V25.6072V26.553C54.233 26.9895 53.8687 27.3533 53.4167 27.3533C53.1131 27.3533 52.8028 27.3533 52.4992 27.3533C51.8583 27.3533 51.8516 27.3599 51.8516 26.467V25.6138V24.4497C51.8516 23.5568 51.8583 23.5634 52.4992 23.5634C52.8028 23.5634 53.1131 23.5634 53.4167 23.5634C53.8619 23.5634 54.233 23.9206 54.233 24.3637V24.668Z" fill="#686868"/>
</g>
</g>
<defs>
<clipPath id="clip0">
<rect width="78" height="40" fill="white"/>
</clipPath>
<clipPath id="clip1">
<rect width="78" height="26" fill="white" transform="translate(0 3)"/>
</clipPath>
</defs>
</svg>
