<svg width="76" height="40" viewBox="0 0 76 40" fill="none" xmlns="http://www.w3.org/2000/svg">
<path d="M9.46383 18.3086L5.78679 27.8208H3.90941L0.692383 18.3086H2.93187L5.18845 25.235L7.57558 18.3086H9.46383ZM13.6926 23.5315H16.0953C16.0735 22.8986 16.0098 21.9717 14.8939 21.9981C14.2008 22.0147 13.7781 22.36 13.6926 23.5315ZM17.8172 24.6154H13.6926C13.5776 26.8063 15.859 27.0541 17.1754 26.0479L17.7488 27.1566C17.0448 27.5895 16.1947 28.0009 15.1954 28.0009C13.9972 28.0009 13.2139 27.5862 12.5674 26.8608C12.2524 26.5136 12.0049 26.1037 11.8393 25.6546C11.6737 25.2054 11.5931 24.7259 11.6023 24.2436C11.6023 23.2192 11.8883 22.3963 12.4617 21.7652C13.0523 21.1043 13.8584 20.7766 14.8799 20.7821C15.8735 20.7821 16.6237 21.0839 17.1303 21.6875C17.5965 22.2383 17.8291 22.9912 17.8281 23.9462C17.8281 24.0949 17.8281 24.4501 17.8172 24.6071V24.6154ZM20.7825 19.2405V20.9605H22.3413V21.9519H20.7778L20.8027 25.2052C20.8027 25.7009 20.812 26.3189 21.1135 26.5733C21.3653 26.7666 21.7352 26.7633 22.2496 26.4544L22.6661 27.4738C22.3 27.6734 21.9083 27.8148 21.5036 27.8935C19.8345 28.2157 19.0605 27.535 18.8834 25.7621C18.8171 25.0307 18.8004 24.2951 18.8336 23.5612C18.8569 22.7698 18.8663 22.2394 18.8585 21.9519H17.9711C17.9711 21.9519 17.9633 21.4843 17.9711 21.1043V20.9605H18.8585L18.874 19.3082L20.7809 19.2421L20.7825 19.2405ZM26.2017 20.9192H28.0744V21.8131C29.5462 20.3359 31.2153 20.6565 32.1151 21.7834C32.3254 22.0572 32.458 22.389 32.4974 22.74C32.5312 23.0968 32.5442 23.4555 32.5363 23.814V27.8208H30.6558L30.6247 23.8966C30.6247 23.0275 30.5983 22.1849 29.4918 22.2212C28.8251 22.2427 28.1086 22.6805 28.0931 23.4373L28.0822 27.8208H26.2017V20.9225V20.9192ZM9.0924 20.9324H11.0071V27.8241H9.0924V20.9357V20.9324ZM23.137 20.9324H25.0517V27.8241H23.137V20.9357V20.9324Z" fill="#686868"/>
<path d="M34.5135 26.5258C35.7175 26.6068 37.1123 26.3887 37.1216 24.9567C37.1295 23.7592 36.0505 23.4074 34.4994 23.5098L34.5135 26.5258ZM34.4994 22.2314C35.7409 22.2991 36.7088 21.7194 36.7088 20.6705C36.7088 19.8612 35.9161 19.5672 34.5197 19.6514L34.4994 22.2314ZM37.0012 22.6229C38.5571 22.8937 39.1653 23.8748 39.1653 25.1368C39.1653 26.6233 38.1411 27.3054 37.0012 27.6325C36.3614 27.808 35.7013 27.8875 35.0404 27.8687L32.5386 27.8439L32.587 18.3235H36.1037C36.8355 18.3235 37.4219 18.4754 37.8628 18.7843C38.3866 19.1526 38.6446 19.7125 38.6446 20.4707C38.6446 20.5087 38.6446 20.5467 38.6446 20.5846C38.604 21.4881 37.8706 22.4147 37.0012 22.6229ZM41.639 26.364C42.252 27.2476 43.8829 26.1988 43.628 24.268C42.399 24.4117 40.8885 25.2854 41.639 26.364ZM40.7962 22.7699L40.0754 21.8433C40.7008 21.2255 41.8798 20.8208 42.8305 20.8208C44.0111 20.8208 45.4012 21.5625 45.4262 22.935C45.4481 24.1556 45.3637 25.4704 45.4903 26.6794C45.5303 27.0841 45.6121 27.4829 45.7342 27.8687H43.7015C43.6734 27.7118 43.6436 27.4838 43.5858 27.0428C41.639 28.9621 39.6079 27.682 39.6079 25.9659C39.6079 23.5478 42.8603 23.2968 43.517 23.0622C43.517 21.7755 41.528 21.8119 40.7931 22.7666L40.7962 22.7699ZM57.2756 23.7212L60.2309 27.8505H57.9182L55.848 24.2993L55.8386 27.8505H53.9294V18.3086H55.8433V23.1679L57.8526 20.9612L59.9228 20.9728L57.2756 23.7212ZM46.4082 20.9513H48.2846L48.2924 21.8449C49.7732 20.3683 51.4525 20.6887 52.3501 21.8152C52.5616 22.0889 52.695 22.4206 52.7347 22.7715C52.7679 23.1282 52.7809 23.4868 52.7738 23.8451V27.8472H50.8818L50.8474 23.9244C50.8396 23.0556 50.8208 22.2132 49.7075 22.2496C49.0367 22.271 48.3158 22.7087 48.3002 23.4652L48.2893 27.8472H46.4051V20.9513H46.4082Z" fill="#686868"/>
<path fill-rule="evenodd" clip-rule="evenodd" d="M69.1682 18.2384C70.6701 18.446 72.1164 18.9398 73.426 19.6923C73.919 18.6545 74.1378 17.5112 74.0623 16.3682C73.9868 15.2252 73.6194 14.1193 72.994 13.153C72.3687 12.1867 71.5057 11.3912 70.4848 10.8401C69.464 10.2889 68.3183 10 67.1538 10C65.9893 10 64.8436 10.2889 63.8227 10.8401C62.8019 11.3912 61.9389 12.1867 61.3135 13.153C60.6882 14.1193 60.3208 15.2252 60.2453 16.3682C60.1698 17.5112 60.3886 18.6545 60.8815 19.6923C62.1828 18.944 63.6194 18.4513 65.1115 18.2414V14.7399H69.1697V18.2384H69.1682Z" fill="#686868"/>
<path fill-rule="evenodd" clip-rule="evenodd" d="M72.6922 20.9435C70.9728 20.1201 69.0765 19.6914 67.1537 19.6914C65.2309 19.6914 63.3345 20.1201 61.6152 20.9435C62.2094 21.833 63.0282 22.5652 63.9962 23.0723C64.9641 23.5794 66.05 23.8453 67.1537 23.8453C68.2574 23.8453 69.3433 23.5794 70.3112 23.0723C71.2792 22.5652 72.098 21.833 72.6922 20.9435Z" fill="#686868"/>
</svg>
