<svg width="16" height="16" viewBox="0 0 16 16" fill="none" xmlns="http://www.w3.org/2000/svg">
<path opacity="0.8" d="M7.99957 0C6.28893 0 4.23064 2.1023 3.08112 4.17871C1.83284 6.43469 1.65689 8.50121 2.59824 9.8488C3.3031 10.8577 4.55032 11.4018 6.30451 11.4857C6.18202 12.7174 5.72037 13.3958 5.23465 14.1062C5.041 14.3897 4.84027 14.6827 4.66715 15.0071C4.66325 15.0143 4.66184 15.0218 4.6583 15.0289C4.64732 15.0511 4.63847 15.0742 4.62998 15.0977C4.62254 15.1179 4.61546 15.138 4.6105 15.1584C4.60519 15.1795 4.60201 15.2006 4.59882 15.2221C4.59528 15.2463 4.5921 15.2708 4.59139 15.295C4.59139 15.3029 4.58891 15.3107 4.58891 15.3185C4.58891 15.3311 4.59209 15.3431 4.5928 15.3557C4.59422 15.3799 4.59634 15.4041 4.60024 15.4276C4.60413 15.4494 4.60909 15.4705 4.61475 15.4916C4.62077 15.5128 4.62679 15.5329 4.63493 15.5533C4.64307 15.5748 4.65228 15.5956 4.6629 15.616C4.67246 15.6351 4.68273 15.6535 4.69441 15.6719C4.70645 15.691 4.71954 15.709 4.73335 15.7267C4.7468 15.7441 4.76096 15.7605 4.77619 15.7765C4.79212 15.7935 4.80911 15.8092 4.82681 15.8242C4.84274 15.8382 4.85903 15.8514 4.87673 15.8637C4.89797 15.879 4.92028 15.8923 4.94329 15.9053C4.95391 15.9111 4.96276 15.9189 4.97373 15.9244C4.97975 15.9274 4.98648 15.9284 4.9925 15.9312C5.02825 15.9479 5.06542 15.9605 5.10401 15.971C5.11711 15.9748 5.1295 15.9796 5.14225 15.9823C5.1911 15.9928 5.24137 15.9993 5.29342 15.9997C5.29448 15.9997 5.29554 16 5.2966 16C5.2966 16 5.2966 16 5.29696 16H10.7018H10.7022H10.7025C10.704 16 10.7054 15.9997 10.7068 15.9997C10.7585 15.9993 10.8084 15.9928 10.8569 15.9823C10.87 15.9796 10.8824 15.9744 10.8955 15.971C10.9337 15.9605 10.9712 15.9475 11.0066 15.9312C11.0127 15.9284 11.019 15.9274 11.0254 15.9244C11.0364 15.9186 11.0456 15.9111 11.0562 15.9049C11.0789 15.8923 11.1012 15.879 11.1224 15.8637C11.1401 15.8514 11.1568 15.8382 11.1727 15.8242C11.1904 15.8089 11.207 15.7935 11.2233 15.7765C11.2385 15.7605 11.2527 15.7434 11.2661 15.7264C11.28 15.7087 11.2927 15.691 11.3047 15.6722C11.3164 15.6535 11.327 15.6347 11.337 15.6153C11.3469 15.5952 11.3561 15.5751 11.3642 15.554C11.372 15.5332 11.3787 15.5121 11.3847 15.4906C11.3904 15.4698 11.395 15.4497 11.3989 15.4283C11.4032 15.4037 11.4053 15.3789 11.4063 15.3536C11.407 15.3417 11.4102 15.3305 11.4102 15.3182C11.4102 15.3107 11.4081 15.3032 11.4078 15.2957C11.407 15.2705 11.4035 15.2453 11.4 15.2197C11.3968 15.1993 11.3939 15.1792 11.389 15.1594C11.3837 15.138 11.3762 15.1168 11.3685 15.0954C11.3603 15.0729 11.3518 15.0507 11.3416 15.0296C11.3377 15.0221 11.3362 15.0139 11.3323 15.0068C11.1592 14.6831 10.9589 14.3897 10.7648 14.1062C10.2795 13.3958 9.81784 12.7171 9.69534 11.485C11.4495 11.4015 12.6971 10.8574 13.4016 9.8488C14.3433 8.50087 14.167 6.43435 12.9187 4.17837C11.7685 2.1023 9.71021 0 7.99957 0ZM8.27252 11.4611C8.39431 12.9794 8.93667 13.8994 9.43301 14.6367H6.56578C7.06212 13.8997 7.60519 12.9794 7.72697 11.4611C7.8176 11.4543 7.90682 11.4492 7.99993 11.4404C8.09268 11.4492 8.18189 11.4547 8.27252 11.4611ZM12.2259 9.08829C11.4704 10.1701 9.55834 10.2256 8.08206 10.0802C8.05232 10.0767 8.02117 10.0778 7.99037 10.0785C7.967 10.0788 7.94293 10.0774 7.91992 10.0798C6.44435 10.2246 4.52908 10.1708 3.77359 9.08829C3.14308 8.1857 3.3516 6.58972 4.33153 4.81929C5.47538 2.75174 7.15169 1.36292 7.99957 1.36292C8.84746 1.36292 10.5238 2.75208 11.668 4.81963C12.6479 6.59006 12.8564 8.1857 12.2259 9.08829Z" fill="#8EC63F"/>
</svg>
