<svg width="20" height="18" viewBox="0 0 20 18" fill="none" xmlns="http://www.w3.org/2000/svg">
<g clip-path="url(#clip0)">
<path d="M18.2422 4.69201H17.0148C15.9711 2.2135 13.6723 0.411938 11.0262 0.0681881C8.40391 -0.281421 5.82695 0.727953 4.14141 2.75998C3.6457 3.35725 3.25273 4.00685 2.96484 4.6924H1.75781C0.788672 4.6924 0 5.48107 0 6.45021V8.79396C0 9.7631 0.788672 10.5518 1.75781 10.5518H4.16406L3.9125 9.78341C3.17969 7.54513 3.59219 5.25763 5.04375 3.50881C6.47031 1.78928 8.64883 0.9385 10.8738 1.2303C13.2273 1.53694 15.2699 3.20139 16.0793 5.47131L16.0844 5.48459C16.2148 5.83146 16.3062 6.18771 16.359 6.55451C16.5348 7.65021 16.4344 8.76075 16.0699 9.76622L16.0672 9.77325C15.1625 12.342 12.7289 14.0674 10.0113 14.0674C9.03555 14.0674 8.24219 14.8561 8.24219 15.8252C8.24219 16.7943 9.03086 17.583 10 17.583C10.9691 17.583 11.7578 16.7943 11.7578 15.8252V15.035C14.0973 14.4787 16.0625 12.8205 17.007 10.5518H18.2422C19.2113 10.5518 20 9.7631 20 8.79396V6.45021C20 5.48029 19.2113 4.69201 18.2422 4.69201Z" fill="black"/>
<path d="M4.72656 11.7231V12.895H10C12.9078 12.895 15.2734 10.5294 15.2734 7.62158C15.2734 4.71377 12.9078 2.34814 10 2.34814C7.09219 2.34814 4.72656 4.71377 4.72656 7.62158C4.72656 8.80713 5.125 9.95284 5.85273 10.879C5.71133 11.3728 5.26055 11.7231 4.72656 11.7231ZM11.7578 7.03565H12.9297V8.20752H11.7578V7.03565ZM9.41406 7.03565H10.5859V8.20752H9.41406V7.03565ZM7.07031 7.03565H8.24219V8.20752H7.07031V7.03565Z" fill="black"/>
</g>
<defs>
<clipPath id="clip0">
<rect width="20" height="17.5828" fill="white"/>
</clipPath>
</defs>
</svg>
