<svg width="16" height="16" viewBox="0 0 16 16" fill="none" xmlns="http://www.w3.org/2000/svg">
<g opacity="0.8">
<path d="M8.0015 5.15234C6.32416 5.15234 4.98682 6.51405 4.98682 8.17078C4.98682 9.82752 6.34682 11.1892 8.0015 11.1892C9.65618 11.1892 11.0162 9.82752 11.0162 8.17078C11.0162 6.51405 9.67884 5.15234 8.0015 5.15234ZM8.0015 10.3041C6.82283 10.3041 5.89349 9.35092 5.89349 8.19347C5.89349 7.03603 6.84549 6.08284 8.0015 6.08284C9.15751 6.08284 10.1095 7.03603 10.1095 8.19347C10.1095 9.35092 9.18017 10.3041 8.0015 10.3041Z" fill="#8EC63F"/>
<path d="M5.64408 3.69928L10.3361 3.74468C10.6081 3.74468 10.8574 3.58581 10.9708 3.33616C11.0841 3.08652 11.0161 2.79148 10.8348 2.58723L8.5001 0.204255C8.22809 -0.068085 7.79743 -0.068085 7.54809 0.204255L5.19075 2.51914C4.98674 2.7234 4.94141 2.99574 5.03208 3.26808C5.12274 3.51772 5.37208 3.69928 5.64408 3.69928ZM8.0241 0.99858L9.81477 2.81418L6.21075 2.79148L8.0241 0.99858Z" fill="#8EC63F"/>
<path d="M10.3587 12.3237L5.66664 12.2783C5.39464 12.2783 5.1453 12.4372 5.03197 12.6868C4.91864 12.9365 4.98664 13.2315 5.16797 13.4358L7.50265 15.796C7.63865 15.9322 7.79732 16.0003 7.97865 16.0003C8.15999 16.0003 8.31866 15.9322 8.45466 15.796L10.812 13.4585C11.016 13.2542 11.0613 12.9819 10.9707 12.7095C10.88 12.5053 10.6307 12.3237 10.3587 12.3237ZM7.97865 15.0244L6.18798 13.2088L9.792 13.2315L7.97865 15.0244Z" fill="#8EC63F"/>
<path d="M3.30935 5.19708C3.06002 5.0836 2.76535 5.15169 2.56135 5.33325L0.204003 7.67083C0.0680025 7.807 0 7.96587 0 8.14743C0 8.32899 0.0680025 8.51055 0.204003 8.62402L2.53868 10.9843C2.67468 11.1205 2.83335 11.1886 3.01468 11.1886C3.10535 11.1886 3.19602 11.1659 3.26402 11.1432C3.51336 11.0297 3.69469 10.8027 3.69469 10.5304L3.74002 5.83253C3.71735 5.5602 3.55869 5.31055 3.30935 5.19708ZM2.78802 9.96303L0.997341 8.14743L2.81068 6.35452L2.78802 9.96303Z" fill="#8EC63F"/>
<path d="M15.7987 7.71607L13.4867 5.35579C13.2827 5.15153 13.0107 5.10615 12.7387 5.19693C12.4894 5.3104 12.308 5.53735 12.308 5.80969L12.2627 10.5076C12.2627 10.7799 12.4214 11.0295 12.6707 11.143C12.7614 11.1884 12.852 11.1884 12.9427 11.1884C13.124 11.1884 13.2827 11.1203 13.4187 10.9842L15.776 8.64656C16.0707 8.41961 16.0707 7.98841 15.7987 7.71607ZM13.192 9.98557L13.2147 6.37706L15.0054 8.19266L13.192 9.98557Z" fill="#8EC63F"/>
</g>
</svg>
