<svg width="16" height="16" viewBox="0 0 16 16" fill="none" xmlns="http://www.w3.org/2000/svg">
<g opacity="0.8" clip-path="url(#clip0)">
<path d="M0.200098 8.59961C0.0409677 8.59961 -0.111645 8.66282 -0.224166 8.77534C-0.336688 8.88787 -0.399902 9.04048 -0.399902 9.19961C-0.399902 9.35874 -0.336688 9.51135 -0.224166 9.62387C-0.111645 9.7364 0.0409677 9.79961 0.200098 9.79961C1.15488 9.79961 2.07055 10.1789 2.74568 10.854C3.42081 11.5292 3.8001 12.4448 3.8001 13.3996C3.8001 13.5587 3.86331 13.7114 3.97583 13.8239C4.08836 13.9364 4.24097 13.9996 4.4001 13.9996C4.55923 13.9996 4.71184 13.9364 4.82436 13.8239C4.93688 13.7114 5.0001 13.5587 5.0001 13.3996C5.0001 12.1266 4.49438 10.9057 3.59421 10.0055C2.69404 9.10532 1.47314 8.59961 0.200098 8.59961Z" fill="#8EC63F"/>
<path d="M0.200098 11C0.0409678 11 -0.111645 11.0632 -0.224166 11.1757C-0.336688 11.2883 -0.399902 11.4409 -0.399902 11.6C-0.399902 11.7591 -0.336688 11.9117 -0.224166 12.0243C-0.111645 12.1368 0.0409678 12.2 0.200098 12.2C0.518358 12.2 0.823582 12.3264 1.04863 12.5515C1.27367 12.7765 1.4001 13.0817 1.4001 13.4C1.4001 13.5591 1.46331 13.7117 1.57583 13.8243C1.68836 13.9368 1.84097 14 2.0001 14C2.15923 14 2.31184 13.9368 2.42436 13.8243C2.53688 13.7117 2.6001 13.5591 2.6001 13.4C2.6001 12.7635 2.34724 12.153 1.89715 11.7029C1.44707 11.2529 0.836617 11 0.200098 11Z" fill="#8EC63F"/>
<path d="M16.082 3.272C15.9882 3.22382 15.8834 3.20123 15.778 3.2065C15.6727 3.21177 15.5706 3.24471 15.482 3.302L12.812 5.102V3.8C12.812 3.32261 12.6224 2.86477 12.2848 2.52721C11.9473 2.18964 11.4894 2 11.012 2H2.60005C2.12266 2 1.66482 2.18964 1.32726 2.52721C0.989691 2.86477 0.800049 3.32261 0.800049 3.8V6.8C0.800049 6.95913 0.863263 7.11174 0.975785 7.22426C1.08831 7.33679 1.24092 7.4 1.40005 7.4C1.55918 7.4 1.71179 7.33679 1.82431 7.22426C1.93683 7.11174 2.00005 6.95913 2.00005 6.8V3.8C2.00005 3.64087 2.06326 3.48826 2.17578 3.37574C2.28831 3.26321 2.44092 3.2 2.60005 3.2H11C11.1592 3.2 11.3118 3.26321 11.4243 3.37574C11.5368 3.48826 11.6 3.64087 11.6 3.8V9.8C11.6 9.95913 11.5368 10.1117 11.4243 10.2243C11.3118 10.3368 11.1592 10.4 11 10.4H6.20005C6.04092 10.4 5.88831 10.4632 5.77578 10.5757C5.66326 10.6883 5.60005 10.8409 5.60005 11C5.60005 11.1591 5.66326 11.3117 5.77578 11.4243C5.88831 11.5368 6.04092 11.6 6.20005 11.6H11C11.4774 11.6 11.9353 11.4104 12.2728 11.0728C12.6104 10.7352 12.8 10.2774 12.8 9.8V8.522L15.47 10.322C15.562 10.3826 15.6689 10.4168 15.7789 10.4208C15.889 10.4247 15.998 10.3983 16.0941 10.3444C16.1901 10.2905 16.2695 10.2111 16.3235 10.1151C16.3774 10.0191 16.4039 9.91008 16.4 9.8V3.8C16.3998 3.69146 16.37 3.58503 16.314 3.49205C16.258 3.39906 16.1779 3.32301 16.082 3.272ZM15.2 8.672L12.8 7.07V6.518L15.2 4.916V8.672Z" fill="#8EC63F"/>
</g>
<defs>
<clipPath id="clip0">
<rect width="16" height="16" fill="white"/>
</clipPath>
</defs>
</svg>
