<svg width="16" height="16" viewBox="0 0 16 16" fill="none" xmlns="http://www.w3.org/2000/svg">
<g opacity="0.8">
<path d="M15.1499 1.6002C15.1499 1.48085 15.1025 1.36639 15.0181 1.282C14.9337 1.19761 14.8193 1.1502 14.6999 1.1502H4.4999C4.38056 1.1502 4.2661 1.19761 4.1817 1.282C4.09731 1.36639 4.0499 1.48085 4.0499 1.6002V7.15019H1.2999C1.18056 7.15019 1.0661 7.19761 0.981704 7.282C0.897313 7.36639 0.849902 7.48085 0.849902 7.60019V12.4002C0.849902 12.9439 1.06588 13.4653 1.45033 13.8498C1.83478 14.2342 2.35621 14.4502 2.8999 14.4502H12.6999C13.3497 14.4502 13.9729 14.1921 14.4323 13.7326C14.8918 13.2731 15.1499 12.65 15.1499 12.0002V1.6002ZM4.0499 12.4002C4.0499 12.7052 3.92874 12.9977 3.71308 13.2134C3.49741 13.429 3.2049 13.5502 2.8999 13.5502C2.5949 13.5502 2.3024 13.429 2.08673 13.2134C1.87106 12.9977 1.7499 12.7052 1.7499 12.4002V8.0502H4.0499V12.4002ZM14.2499 12.0002C14.2499 12.4113 14.0866 12.8055 13.7959 13.0962C13.5052 13.3869 13.111 13.5502 12.6999 13.5502H4.59696C4.82654 13.2114 4.9499 12.8109 4.9499 12.4002V2.0502H14.2499V12.0002Z" fill="#8EC63F" stroke="#DDDDDD" stroke-width="0.1"/>
<path d="M7.09995 8.53236H12.1C12.206 8.53236 12.3078 8.49022 12.3828 8.4152C12.4578 8.34019 12.5 8.23845 12.5 8.13236V4.46836C12.5 4.36227 12.4578 4.26053 12.3828 4.18552C12.3078 4.1105 12.206 4.06836 12.1 4.06836H7.09995C6.99386 4.06836 6.89212 4.1105 6.81711 4.18552C6.74209 4.26053 6.69995 4.36227 6.69995 4.46836V8.13236C6.69995 8.23845 6.74209 8.34019 6.81711 8.4152C6.89212 8.49022 6.99386 8.53236 7.09995 8.53236ZM7.49995 4.86836H11.7V7.73236H7.49995V4.86836Z" fill="#8EC63F"/>
<path d="M12.5 10.332H6.69995V11.132H12.5V10.332Z" fill="#8EC63F"/>
</g>
</svg>
