<svg width="22" height="21" viewBox="0 0 22 21" fill="none" xmlns="http://www.w3.org/2000/svg">
<path d="M19.5509 15.4763L17.0337 13.1039C16.1347 12.2566 14.6064 12.5955 14.2468 13.697C13.9771 14.4596 13.078 14.8832 12.2689 14.7137C10.4709 14.2901 8.04356 12.0871 7.59405 10.3078C7.32435 9.54524 7.86376 8.69796 8.67287 8.44381C9.84159 8.10489 10.2012 6.66451 9.30218 5.81722L6.78494 3.44482C6.06573 2.85173 4.98691 2.85173 4.3576 3.44482L2.64948 5.05467C0.941352 6.74924 2.82928 11.2398 7.05465 15.2221C11.28 19.2043 16.0448 21.0684 17.8428 19.3738L19.5509 17.7639C20.1803 17.0861 20.1803 16.0694 19.5509 15.4763Z" fill="black"/>
</svg>
