<svg width="16" height="16" viewBox="0 0 16 16" fill="none" xmlns="http://www.w3.org/2000/svg">
<g opacity="0.8" clip-path="url(#clip0)">
<path d="M14.992 6.5436L14.256 5.8076C14.08 5.6316 13.984 5.3916 13.984 5.1356V4.0796C13.984 2.9436 13.056 2.0156 11.92 2.0156H10.88C10.624 2.0156 10.384 1.9196 10.208 1.7436L9.45603 0.991602C8.65603 0.191602 7.34403 0.191602 6.54403 0.991602L5.80803 1.7276C5.63203 1.9036 5.39203 1.9996 5.13603 1.9996H4.08003C2.94403 1.9996 2.01603 2.9276 2.01603 4.0636V5.1196C2.01603 5.3756 1.92003 5.6156 1.74403 5.7916L0.992033 6.5436C0.608033 6.9276 0.384033 7.4556 0.384033 7.9996C0.384033 8.5436 0.592033 9.0716 0.992033 9.4556L1.72803 10.1916C1.90403 10.3676 2.00003 10.6076 2.00003 10.8636V11.9196C2.00003 13.0556 2.92803 13.9836 4.06403 13.9836H5.12003C5.37603 13.9836 5.61603 14.0796 5.79203 14.2556L6.54403 15.0076C6.94403 15.4076 7.47203 15.6156 8.00003 15.6156C8.52803 15.6156 9.05603 15.4076 9.45603 15.0076L10.192 14.2716C10.368 14.0956 10.608 13.9996 10.864 13.9996H11.92C13.056 13.9996 13.984 13.0716 13.984 11.9356V10.8796C13.984 10.6236 14.08 10.3836 14.256 10.2076L15.008 9.4556C15.392 9.0716 15.616 8.5436 15.616 7.9996C15.616 7.4556 15.392 6.9436 14.992 6.5436ZM14.208 8.6716L13.456 9.4236C13.072 9.8076 12.848 10.3356 12.848 10.8796V11.9196C12.848 12.4476 12.416 12.8636 11.904 12.8636H10.848C10.304 12.8636 9.77603 13.0716 9.39203 13.4716L8.65603 14.2076C8.28803 14.5756 7.68003 14.5756 7.31203 14.2076L6.56003 13.4556C6.17603 13.0716 5.64803 12.8476 5.10403 12.8476H4.06403C3.53603 12.8476 3.12003 12.4156 3.12003 11.9036V10.8476C3.12003 10.3036 2.89603 9.7756 2.51203 9.3916L1.77603 8.6556C1.60003 8.4796 1.50403 8.2396 1.50403 7.9836C1.50403 7.7276 1.60003 7.4876 1.77603 7.3116L2.52803 6.5596C2.91203 6.1756 3.13603 5.6476 3.13603 5.1036V4.0636C3.13603 3.5356 3.56803 3.1196 4.08003 3.1196H5.13603C5.68003 3.1196 6.20803 2.9116 6.59203 2.5116L7.32803 1.7756C7.69603 1.4076 8.30403 1.4076 8.67203 1.7756L9.42403 2.5276C9.80803 2.9116 10.336 3.1356 10.88 3.1356H11.92C12.448 3.1356 12.864 3.5676 12.864 4.0796V5.1356C12.864 5.6796 13.088 6.2076 13.472 6.5916L14.208 7.3276C14.384 7.5036 14.48 7.7436 14.48 7.9996C14.48 8.2556 14.384 8.4956 14.208 8.6716Z" fill="#8EC63F"/>
<path d="M10.4162 5.58332C10.1762 5.34332 9.80817 5.34332 9.56817 5.58332L5.60017 9.56732C5.36017 9.80732 5.36017 10.1753 5.60017 10.4153C5.71217 10.5273 5.87217 10.5913 6.01617 10.5913C6.16017 10.5913 6.32017 10.5273 6.43217 10.4153L10.4162 6.43132C10.6562 6.19132 10.6562 5.80732 10.4162 5.58332Z" fill="#8EC63F"/>
<path d="M6.16008 7.11997C6.69911 7.11997 7.13608 6.683 7.13608 6.14397C7.13608 5.60494 6.69911 5.16797 6.16008 5.16797C5.62105 5.16797 5.18408 5.60494 5.18408 6.14397C5.18408 6.683 5.62105 7.11997 6.16008 7.11997Z" fill="#8EC63F"/>
<path d="M9.85613 10.8319C10.3952 10.8319 10.8321 10.3949 10.8321 9.85588C10.8321 9.31685 10.3952 8.87988 9.85613 8.87988C9.3171 8.87988 8.88013 9.31685 8.88013 9.85588C8.88013 10.3949 9.3171 10.8319 9.85613 10.8319Z" fill="#8EC63F"/>
</g>
<defs>
<clipPath id="clip0">
<rect width="16" height="16" fill="white"/>
</clipPath>
</defs>
</svg>
