<svg width="16" height="16" viewBox="0 0 16 16" fill="none" xmlns="http://www.w3.org/2000/svg">
<path opacity="0.8" d="M8.94487 0.0699074C8.63963 -0.0281358 8.31202 -0.0229316 8.00985 0.0847613C7.70767 0.192454 7.44673 0.397001 7.2651 0.668563L2.26577 8.15176C2.11026 8.38418 2.0193 8.65608 2.00275 8.93803C1.9862 9.21998 2.04468 9.50123 2.17187 9.75133C2.29905 10.0014 2.4901 10.2108 2.72431 10.3569C2.95852 10.503 3.22697 10.5801 3.5006 10.5799H6.00027V14.4506C6.00002 14.7809 6.10213 15.1027 6.29167 15.3688C6.48121 15.635 6.74825 15.8316 7.05376 15.9299C7.35926 16.0282 7.68722 16.023 7.98969 15.9152C8.29215 15.8073 8.55328 15.6025 8.7349 15.3305L13.7342 7.84727C13.8897 7.61486 13.9807 7.34296 13.9973 7.061C14.0138 6.77905 13.9553 6.4978 13.8281 6.2477C13.7009 5.9976 13.5099 5.78819 13.2757 5.64213C13.0415 5.49608 12.773 5.41895 12.4994 5.4191H9.99973V1.54848C9.99974 1.21809 9.89736 0.896363 9.70757 0.630333C9.51777 0.364302 9.25052 0.167924 8.94487 0.0699074ZM12.4994 6.96735L7.50007 14.4506V9.03168H3.5006L8.49993 1.54848V6.96735H12.4994Z" fill="#8EC63F"/>
</svg>
