<svg width="16" height="16" viewBox="0 0 16 16" fill="none" xmlns="http://www.w3.org/2000/svg">
<g opacity="0.8" clip-path="url(#clip0)">
<path d="M14.9621 4.061V4.0636C14.8603 3.88339 14.7542 3.70631 14.6389 3.53535L14.0448 6.06048L10.9142 7.10397L8.28555 5.00097V1.90344L11.2829 0.705007L11.2221 0.678314C11.1555 0.649538 11.0885 0.621283 11.0214 0.593549C9.09219 -0.19317 6.93242 -0.196686 5.00078 0.583913C4.92201 0.615945 4.84414 0.648887 4.76719 0.682872L4.70183 0.712429L7.71446 1.90397V5.00097L5.08581 7.10397L1.95599 6.06074L1.36185 3.53535C1.25808 3.68925 1.16185 3.8485 1.06849 4.00983V4.00735C0.367451 5.22037 -0.00116909 6.5968 2.78541e-06 7.99785C2.78541e-06 8.24876 0.0130236 8.49641 0.0360705 8.7416L1.80886 6.61321L4.90378 7.64472L5.68985 10.7893L4.16003 12.8292L1.31302 12.3796C1.36237 12.4544 1.41446 12.5269 1.46589 12.5997L1.45521 12.5981C2.48308 14.0602 3.97005 15.1369 5.67995 15.657L5.67409 15.646C5.89232 15.7127 6.11302 15.773 6.33867 15.8208L4.6336 13.1514L6.14349 11.1383H9.85781L11.3896 13.1613L9.90274 15.765C10.0931 15.7183 10.2802 15.6628 10.4654 15.6029L10.4603 15.6127C12.1122 15.0773 13.5457 14.0199 14.5448 12.5994L14.5341 12.601C14.5855 12.5282 14.6376 12.4557 14.687 12.381L11.8534 12.8266L10.3104 10.7893L11.0962 7.6455L14.1911 6.61321L15.9641 8.74068C15.9797 8.57063 15.9888 8.39863 15.9941 8.2261C15.9962 8.15032 16 8.07519 16 7.99915C16.0014 6.61868 15.6438 5.26152 14.9621 4.061Z" fill="#8EC63F"/>
<path d="M8 16C3.58177 16 0 12.4182 0 8C0 3.58177 3.58177 0 8 0C12.4182 0 16 3.58177 16 8C15.9951 12.4161 12.4161 15.9951 8 16ZM8 0.533333C3.8763 0.533333 0.533333 3.8763 0.533333 8C0.533333 12.1237 3.8763 15.4667 8 15.4667C12.1237 15.4667 15.4667 12.1237 15.4667 8C15.462 3.87826 12.1217 0.538021 8 0.533333Z" fill="#8EC63F"/>
</g>
<defs>
<clipPath id="clip0">
<rect width="16" height="16" fill="white"/>
</clipPath>
</defs>
</svg>
