<svg width="16" height="16" viewBox="0 0 16 16" fill="none" xmlns="http://www.w3.org/2000/svg">
<path opacity="0.8" fill-rule="evenodd" clip-rule="evenodd" d="M3.33333 15H12.6667C13.2853 14.9993 13.8784 14.7533 14.3158 14.3158C14.7533 13.8784 14.9993 13.2853 15 12.6667V3.33333C14.9993 2.7147 14.7533 2.1216 14.3158 1.68416C13.8784 1.24672 13.2853 1.00068 12.6667 1H3.33333C2.7147 1.00068 2.1216 1.24672 1.68416 1.68416C1.24672 2.1216 1.00068 2.7147 1 3.33333V12.6667C1.00068 13.2853 1.24673 13.8784 1.68416 14.3158C2.1216 14.7533 2.7147 14.9993 3.33333 15ZM2.55556 3.33333C2.55579 3.12713 2.63781 2.92943 2.78362 2.78362C2.92943 2.63781 3.12713 2.55579 3.33333 2.55556H12.6667C12.8729 2.55579 13.0706 2.63781 13.2164 2.78362C13.3622 2.92943 13.4442 3.12713 13.4444 3.33333V12.6667C13.4442 12.8729 13.3622 13.0706 13.2164 13.2164C13.0706 13.3622 12.8729 13.4442 12.6667 13.4444H3.33333C3.12713 13.4442 2.92943 13.3622 2.78362 13.2164C2.63781 13.0706 2.55579 12.8729 2.55556 12.6667V3.33333ZM5.70996 11.8833C6.35429 11.8833 6.87663 11.3609 6.87663 10.7166C6.87663 10.0723 6.35429 9.54994 5.70996 9.54994C5.06563 9.54994 4.54329 10.0723 4.54329 10.7166C4.54329 11.3609 5.06563 11.8833 5.70996 11.8833ZM12.3208 5.27223C12.3208 5.91656 11.7984 6.4389 11.1541 6.4389C10.5098 6.4389 9.98744 5.91656 9.98744 5.27223C9.98744 4.6279 10.5098 4.10557 11.1541 4.10557C11.7984 4.10557 12.3208 4.6279 12.3208 5.27223ZM11.1541 11.8833C11.7984 11.8833 12.3208 11.3609 12.3208 10.7166C12.3208 10.0723 11.7984 9.54994 11.1541 9.54994C10.5098 9.54994 9.98744 10.0723 9.98744 10.7166C9.98744 11.3609 10.5098 11.8833 11.1541 11.8833ZM6.87663 5.27223C6.87663 5.91656 6.35429 6.4389 5.70996 6.4389C5.06563 6.4389 4.54329 5.91656 4.54329 5.27223C4.54329 4.6279 5.06563 4.10557 5.70996 4.10557C6.35429 4.10557 6.87663 4.6279 6.87663 5.27223Z" fill="#8EC63F"/>
</svg>
