<?xml version="1.0" encoding="utf-8"?>
<!-- Generator: Adobe Illustrator 24.0.3, SVG Export Plug-In . SVG Version: 6.00 Build 0)  -->
<svg version="1.1" id="Layer_1" xmlns="http://www.w3.org/2000/svg" xmlns:xlink="http://www.w3.org/1999/xlink" x="0px" y="0px"
	 viewBox="0 0 250 244.9" style="enable-background:new 0 0 250 244.9;" xml:space="preserve">
<style type="text/css">
	.st0{fill-rule:evenodd;clip-rule:evenodd;fill:#FFFFFF;}
	.st1{fill:#FFFFFF;}
</style>
<g>
	<g>
		<g>
			<g>
				<path class="st1" d="M245.4,92.9L157,4.4c-5.9-5.9-16.2-5.9-22.1,0L61.1,78.2h79.6c14.4,0,26,11.7,26,26v89.4l78.7-78.7
					C251.5,108.9,251.5,99,245.4,92.9z M159.4,65.2c-3.6,3.6-8.4,5.6-13.5,5.6c-5.1,0-9.8-2-13.4-5.6c-7.4-7.4-7.4-19.5,0-27
					c7.2-7.2,19.7-7.2,26.9,0C166.8,45.7,166.8,57.8,159.4,65.2z M211.6,117.4c-3.6,3.6-8.4,5.6-13.5,5.6c-5.1,0-9.8-2-13.5-5.6
					c-3.6-3.6-5.6-8.4-5.6-13.5c0-5.1,2-9.8,5.6-13.4c7.2-7.2,19.8-7.2,27,0C219.1,97.9,219.1,110,211.6,117.4z"/>
			</g>
		</g>
	</g>
	<g>
		<g>
			<g>
				<path class="st1" d="M140.7,88.6H15.6C7,88.6,0,95.6,0,104.2v125.1c0,8.6,7,15.6,15.6,15.6h125.1c8.6,0,15.6-7,15.6-15.6V104.2
					C156.3,95.6,149.3,88.6,140.7,88.6z M41.2,148.9c-10.5,0-19.1-8.5-19.1-19.1c0-10.5,8.6-19.1,19.1-19.1
					c10.5,0,19.1,8.5,19.1,19.1C60.3,140.4,51.7,148.9,41.2,148.9z M78.2,185.8c-10.5,0-19.1-8.5-19.1-19.1
					c0-10.5,8.6-19.1,19.1-19.1c10.5,0,19.1,8.5,19.1,19.1C97.2,177.3,88.7,185.8,78.2,185.8z M115.1,222.8
					c-10.5,0-19.1-8.5-19.1-19.1c0-10.5,8.5-19.1,19.1-19.1c10.5,0,19.1,8.5,19.1,19.1C134.2,214.2,125.6,222.8,115.1,222.8z"/>
			</g>
		</g>
	</g>
</g>
</svg>
