<svg width="70" height="70" viewBox="0 0 70 70" fill="none" xmlns="http://www.w3.org/2000/svg">
<path d="M67.2395 25.4558H49.0391V43.5493H67.2568L67.2395 25.4558Z" fill="white"/>
<path d="M67.2395 2.15649H49.0391V20.25H67.2395V2.15649Z" fill="white"/>
<path d="M43.8025 48.751H25.6021V66.8574H43.8025V48.751Z" fill="white"/>
<path d="M43.8025 2.15649H25.6021V20.25H43.8025V2.15649Z" fill="white"/>
<path d="M20.3654 25.4558H2.16931V43.5493H20.3654V25.4558Z" fill="white"/>
<path d="M20.3654 48.751H2.16931V66.8574H20.3654V48.751Z" fill="white"/>
<path d="M13.7446 9.75639C13.5451 10.0238 13.3585 10.3128 13.1893 10.619C14.0961 10.2567 15.7751 10.5155 15.9313 12.1027C16.1742 14.6388 13.2023 15.1348 12.0916 13.539C10.6946 11.5463 12.7945 8.69968 13.6709 8.08722C14.1134 7.77668 14.6297 8.07428 14.6384 8.56166C14.6514 8.95847 14.2913 9.01454 13.7446 9.75639ZM12.8379 12.3658C12.8856 12.5038 12.968 12.7022 12.9073 12.603C13.1416 13.099 13.9052 13.4872 14.4518 13.0904C14.8163 12.8618 14.8553 12.0855 14.5126 11.8224C14.1394 11.5334 13.532 11.6671 13.1502 12.0294C12.9637 12.1933 12.8682 12.3356 12.8379 12.3658Z" fill="white"/>
<path d="M7.92232 13.7292C8.17396 12.1204 8.60782 10.6281 9.62739 9.1832H7.20645C6.49059 9.1832 6.35609 8.24725 7.02857 8.02297C7.22815 7.9669 10.712 7.99278 10.9203 7.99278C11.1633 7.99278 11.4062 8.27313 11.4322 8.4931C11.467 9.0193 11.1936 8.8554 10.3129 10.3693C9.99183 10.9343 9.73151 11.5123 9.5276 12.1032C9.32803 12.6941 9.18485 13.3108 9.10242 13.9535C8.69893 14.8075 7.82687 14.346 7.92232 13.7292Z" fill="white"/>
<path d="M11.2673 0C5.04144 0 0 5.01614 0 11.2054C0 17.3904 5.04144 22.4109 11.2673 22.4109C17.4889 22.4109 22.539 17.3947 22.539 11.2054C22.5347 5.01614 17.4889 0 11.2673 0ZM11.2673 19.1717C6.84196 19.1717 3.25394 15.6048 3.25394 11.2054C3.25394 6.80608 6.84196 3.23914 11.2673 3.23914C15.697 3.23914 19.285 6.80608 19.285 11.2054C19.2807 15.6005 15.6927 19.1717 11.2673 19.1717Z" fill="white"/>
<path d="M11.2673 4.21826C7.38864 4.21826 4.24316 7.34526 4.24316 11.2055C4.24316 15.0614 7.38864 18.1884 11.2673 18.1884C15.146 18.1884 18.2915 15.0614 18.2915 11.2055C18.2915 7.34526 15.146 4.21826 11.2673 4.21826ZM11.2673 17.2913C7.88758 17.2913 5.14125 14.5654 5.14125 11.2012C5.14125 7.83696 7.88758 5.11107 11.2673 5.11107C14.6514 5.11107 17.3978 7.83696 17.3978 11.2012C17.3934 14.5697 14.6514 17.2913 11.2673 17.2913Z" fill="white"/>
<path d="M56.6447 57.6056C54.4276 55.6517 57.0828 53.9135 58.9745 54.7848C59.7207 55.1255 59.9073 55.8286 59.686 56.523C59.5211 57.0405 59.1697 57.3295 58.7228 57.6444C59.148 57.9592 59.8248 58.3474 59.8986 59.1712C59.981 60.1848 58.9832 60.9051 57.9809 61.0302C55.4993 61.3278 54.6966 58.8132 56.6447 57.6056ZM57.6339 58.2913C57.0221 58.6838 56.9527 58.8693 56.7835 59.1108C56.7488 59.1669 56.7531 59.361 56.7575 59.43C56.8356 60.0899 58.4061 60.202 58.6968 59.2316C58.61 58.8262 58.0026 58.4984 57.6339 58.2913ZM57.7206 56.9715C59.7598 55.6388 57.5514 55.3584 57.0221 56.014C56.8963 56.2771 57.4907 56.7861 57.7206 56.9715Z" fill="white"/>
<path d="M57.738 46.603C51.5164 46.603 46.4663 51.6192 46.4663 57.8085C46.4663 63.9935 51.5121 69.0096 57.738 69.0096C63.9595 69.0096 69.0053 63.9935 69.0053 57.8085C69.0096 51.6192 63.9639 46.603 57.738 46.603ZM57.738 65.7748C53.3126 65.7748 49.7246 62.2078 49.7246 57.8085C49.7246 53.4091 53.3126 49.8422 57.738 49.8422C62.1633 49.8422 65.7514 53.4091 65.7514 57.8085C65.7514 62.2078 62.1633 65.7748 57.738 65.7748Z" fill="white"/>
<path d="M57.7379 50.821C53.8592 50.821 50.7137 53.948 50.7137 57.8083C50.7137 61.6642 53.8592 64.7912 57.7379 64.7912C61.6166 64.7912 64.7665 61.6642 64.7665 57.8083C64.7665 53.948 61.621 50.821 57.7379 50.821ZM57.7379 63.8941C54.3538 63.8941 51.6118 61.1682 51.6118 57.804C51.6118 54.4397 54.3538 51.7139 57.7379 51.7139C61.122 51.7139 63.864 54.4397 63.864 57.804C63.864 61.1725 61.122 63.8941 57.7379 63.8941Z" fill="white"/>
<path d="M31.3071 32.9736C31.0988 33.1764 30.8255 33.3834 30.5348 33.3834C30.2354 33.3834 29.5196 32.7666 30.5522 31.9687C33.42 29.7216 35.0036 33.405 32.9557 34.8714C32.3614 35.2984 31.4719 35.609 31.3201 36.3983C31.5978 36.3983 32.4959 36.5406 33.1033 36.3508C32.9557 36.4931 33.151 36.2904 33.3245 36.1308C33.472 35.9928 33.7887 35.9842 33.9883 36.1438C34.266 36.3551 34.3484 36.7606 34.1315 37.015C33.4547 37.8216 33.2638 37.6577 30.6519 37.6577C29.5803 37.6577 30.1573 35.7729 30.5739 35.182C31.242 34.2417 32.3787 34.1037 32.6867 33.3058C32.8299 32.9435 32.4047 31.9083 31.3071 32.9736Z" fill="white"/>
<path d="M35.7628 36.0403C35.9624 35.9281 36.3051 35.9411 36.5307 36.1351C36.7477 36.3206 36.9689 36.5061 37.2379 36.5621C37.6024 36.6441 38.2575 36.1653 38.1577 35.3243C37.9061 34.8585 37.5546 34.8843 36.8561 34.7981C36.4483 34.7463 36.1533 34.4013 36.2921 34.0131C36.4743 33.5041 36.9733 33.6292 37.4418 33.4696C37.8497 33.3316 38.11 33.0728 37.9147 32.6847C37.6631 32.4604 36.9342 32.5121 36.5915 32.6674C35.8973 33.3532 34.9037 32.2188 35.9407 31.6581C36.9169 31.1406 39.0514 31.188 39.1642 32.8011C39.1946 33.2669 39.0211 33.7672 38.6306 34.1468C40.6828 35.5572 38.2662 39.2751 35.663 37.0021C35.4331 36.7994 35.394 36.2559 35.7628 36.0403Z" fill="white"/>
<path d="M34.7043 23.2993C28.4828 23.2993 23.437 28.3155 23.437 34.5004C23.437 40.6854 28.4828 45.7059 34.7043 45.7059C40.9302 45.7059 45.976 40.6898 45.976 34.5004C45.976 28.3111 40.9259 23.2993 34.7043 23.2993ZM34.7043 42.4711C30.279 42.4711 26.691 38.9041 26.691 34.5048C26.691 30.1054 30.279 26.5385 34.7043 26.5385C39.1297 26.5385 42.7177 30.1054 42.7177 34.5048C42.7177 38.8998 39.1297 42.4711 34.7043 42.4711Z" fill="white"/>
<path d="M34.7042 27.5176C30.8255 27.5176 27.6801 30.6446 27.6801 34.5005C27.6801 38.3564 30.8255 41.4877 34.7042 41.4877C38.5873 41.4877 41.7328 38.3607 41.7328 34.5005C41.7328 30.6403 38.5829 27.5176 34.7042 27.5176ZM34.7042 40.5906C31.3245 40.5906 28.5781 37.8647 28.5781 34.5005C28.5781 31.1363 31.3201 28.4104 34.7042 28.4104C38.0883 28.4104 40.8303 31.1363 40.8303 34.5005C40.8303 37.8647 38.0883 40.5906 34.7042 40.5906Z" fill="white"/>
</svg>
