<svg width="83" height="62" viewBox="0 0 83 62" fill="none" xmlns="http://www.w3.org/2000/svg">
<path d="M8.2888 41.9055C6.9235 36.4443 7.93144 27.6844 8.20175 25.6548C7.33126 24.4773 6.27292 23.4648 5.07714 22.6356C4.40365 22.1957 3.45985 21.7651 2.7543 22.2416C2.5802 22.3607 1.02247 23.7351 0.912518 35.693C0.885028 39.262 0.912518 42.0796 0.967496 42.6386C1.06829 43.9764 1.66847 45.2226 2.6535 46.1297C3.00628 46.3954 3.4736 46.4825 3.89968 46.3588C4.60982 46.0976 5.22833 45.6257 5.67274 45.0026C6.18587 44.3979 6.71733 43.8023 7.24421 43.2067C7.61989 42.7898 7.96351 42.382 8.31629 41.9697C8.31171 41.9468 8.29338 41.9239 8.2888 41.9055Z" fill="white"/>
<path d="M29.8679 20.565C30.7567 17.8482 31.366 15.058 31.7005 12.2266C31.6593 8.2315 30.8712 4.28679 29.3822 0.580322C25.8453 0.635301 22.3404 1.19883 18.9684 2.26633C18.272 2.48166 17.5939 2.77946 16.9571 3.1414C13.8416 4.94653 12.7283 8.39185 13.3331 14.3158C13.8279 19.1081 13.8783 23.9691 13.9058 28.6927C15.7613 29.1417 17.7039 29.05 19.509 28.4269C20.2741 28.1704 21.1034 28.5873 21.3645 29.3524C21.6211 30.1221 21.2042 30.9514 20.4345 31.2079C17.9604 32.0784 15.2802 32.1609 12.7558 31.4416C12.3847 31.3408 12.0273 31.1575 11.7295 30.9101C11.5142 30.7085 11.331 30.4795 11.1935 30.2321L11.0606 30.0121C10.9644 29.838 10.8545 29.6731 10.7583 29.5036C10.4605 32.6328 10.4513 35.7849 10.7354 38.9187C10.7857 38.8545 10.8361 38.7904 10.882 38.7262C11.0102 38.5384 11.1752 38.3139 11.3676 38.0802C11.4592 37.9336 11.5829 37.8008 11.725 37.6908C12.0915 37.3335 12.5359 37.0631 13.0307 36.9074C13.9287 36.6325 14.8633 36.4904 15.8071 36.4813C17.3832 36.463 18.9455 36.7058 20.4345 37.2143C21.2088 37.4709 21.6211 38.3002 21.3691 39.0744C21.1125 39.8396 20.2787 40.2565 19.5136 39.9999C18.3407 39.5967 17.1083 39.4043 15.8667 39.4135C15.2619 39.4226 14.6571 39.5051 14.0799 39.67L14.1257 41.2461C14.2448 45.0763 14.3639 49.0301 14.2402 52.9565C14.1257 56.9791 15.3261 59.1782 18.272 60.3007C21.3004 61.1895 24.48 61.4965 27.6275 61.217L29.0249 61.1895C29.5563 61.1758 30.1153 61.1391 30.6513 61.1208C22.1938 48.572 26.9586 31.1667 29.8679 20.565ZM22.9039 16.6249C19.6694 16.6249 17.0396 13.9951 17.0396 10.7605C17.0396 7.51678 19.6694 4.89613 22.9039 4.89613C26.1431 4.89613 28.7683 7.51678 28.7683 10.7605C28.7683 12.3091 28.1498 13.8027 27.0502 14.9022C25.9506 16.0018 24.4616 16.6249 22.9039 16.6249Z" fill="white"/>
<path d="M25.8361 10.7603C25.8361 12.3776 24.5257 13.6925 22.9039 13.6925C21.282 13.6925 19.9717 12.3776 19.9717 10.7603C19.9717 9.13845 21.282 7.82812 22.9039 7.82812C24.5257 7.82812 25.8361 9.13845 25.8361 10.7603Z" fill="white"/>
<path d="M35.1549 46.3591C36.8959 51.8387 40.6344 56.4706 45.6237 59.3341C45.8116 59.444 45.9719 59.5906 46.091 59.7693C47.5342 59.5631 48.9912 59.3249 50.4343 59.0133C48.785 56.4202 43.1955 48.5125 35.1549 46.3591Z" fill="white"/>
<path d="M31.7188 44.6913C31.6546 44.2377 31.8013 43.7841 32.122 43.4589C32.4427 43.1336 32.8962 42.9732 33.3498 43.0282C36.4698 43.4589 39.4616 44.5768 42.1006 46.2994C41.7569 36.811 42.2105 27.3043 43.4475 17.8893C44.2997 12.1898 43.3422 6.37128 40.7078 1.24454C40.639 1.12084 40.5886 0.987971 40.5612 0.845944C37.8855 0.552725 35.187 0.442768 32.4976 0.51149C33.8767 4.26377 34.596 8.22681 34.6326 12.2265C34.3211 15.3236 33.6705 18.3795 32.6947 21.3346C29.6159 32.5685 24.9748 49.5065 34.1791 60.9741C36.4607 60.8366 38.7606 60.6534 41.0789 60.3831L41.7753 60.3052C36.5661 56.5621 32.9695 50.9863 31.7188 44.6913Z" fill="white"/>
<path d="M80.0815 38.6161C79.573 38.6161 79.0461 38.6253 78.51 38.6436C75.4404 38.726 71.9676 38.8268 69.3378 36.3849C67.7663 34.7309 66.708 32.6509 66.2911 30.406C66.1857 30.0486 66.0895 29.6867 65.9795 29.3293C65.8146 28.7749 65.6267 28.2022 65.4389 27.6387C63.3864 22.15 60.5733 16.9729 57.0822 12.2585C57.7098 15.6305 58.0489 19.0575 58.0901 22.4891C58.0901 23.2954 57.4349 23.9552 56.624 23.9552C55.8177 23.9552 55.1579 23.2954 55.1579 22.4891C55.1579 22.3837 55.1213 12.4921 52.3723 7.01261C52.2807 6.83393 52.2349 6.64151 52.2257 6.43992C49.9395 4.19497 47.1631 2.51354 44.1118 1.52393C46.3934 6.80186 47.1723 12.6067 46.3476 18.3015C45.0327 28.3168 44.6433 38.4374 45.1747 48.526C48.4276 51.2932 51.2132 54.5736 53.3986 58.2434C53.536 58.2068 53.6735 58.1655 53.8109 58.1197C54.6127 52.1408 55.0617 46.1161 55.1579 40.0822C55.1579 39.2667 55.8177 38.6161 56.624 38.6161C57.4349 38.6161 58.0901 39.2667 58.0901 40.0822C58.0168 45.7312 57.6274 51.3803 56.9172 56.9881C60.0235 55.6915 63.0244 54.1842 64.66 52.0675C65.668 50.5647 66.4239 48.9108 66.8867 47.1652L66.96 46.9453C68.7605 41.5483 74.0064 41.5483 80.0815 41.5483C82.4868 41.5483 82.9266 40.3571 82.9999 40.0364C82.945 39.6607 82.551 38.6161 80.0815 38.6161ZM59.5562 35.6839C57.128 35.6839 55.1579 33.7138 55.1579 31.2856C55.1579 28.8574 57.128 26.8873 59.5562 26.8873C61.9844 26.8873 63.9545 28.8574 63.9545 31.2856C63.9545 33.7138 61.9844 35.6839 59.5562 35.6839Z" fill="white"/>
<path d="M61.0224 31.2859C61.0224 32.0923 60.3672 32.752 59.5563 32.752C58.75 32.752 58.0902 32.0923 58.0902 31.2859C58.0902 30.4704 58.75 29.8198 59.5563 29.8198C60.3672 29.8198 61.0224 30.4704 61.0224 31.2859Z" fill="white"/>
</svg>
