<svg width="62" height="62" viewBox="0 0 62 62" fill="none" xmlns="http://www.w3.org/2000/svg">
<path d="M55.9348 0C52.5903 0 49.8696 2.72073 49.8696 6.06522C49.8696 8.69744 51.5649 10.9206 53.913 11.7578V28.3043H49.8696V24.9348C49.8696 11.1853 38.6842 0 24.9348 0C11.1853 0 0 11.1853 0 24.9348V55.9348C0 59.2793 2.72073 62 6.06522 62H43.8043C47.1488 62 49.8696 59.2793 49.8696 55.9348V32.3478H55.9348C57.0509 32.3478 57.9566 31.4428 57.9566 30.326V11.7578C60.3047 10.9206 62 8.69756 62 6.06522C62 2.72073 59.2793 0 55.9348 0ZM11.5907 17.5197C13.5914 11.8777 18.9537 8.087 24.9348 8.087C30.9158 8.087 36.2781 11.8777 38.2788 17.5197C38.6513 18.5721 38.1012 19.7277 37.0481 20.1008C36.0043 20.4744 34.8436 19.93 34.467 18.8715C33.0375 14.8393 29.2073 12.1304 24.9348 12.1304C20.6623 12.1304 16.832 14.8393 15.4025 18.8716C15.0288 19.9233 13.873 20.4767 12.8214 20.101C11.7684 19.7277 11.2182 18.5721 11.5907 17.5197ZM26.9566 18.1957C26.9566 19.3122 26.0514 20.2174 24.9348 20.2174C23.8183 20.2174 22.913 19.3123 22.913 18.1957C22.913 17.0791 23.8182 16.1739 24.9348 16.1739C26.0513 16.1739 26.9566 17.0791 26.9566 18.1957ZM35.0434 53.913H14.8261C13.71 53.913 12.8043 53.0081 12.8043 51.8912C12.8043 50.7744 13.71 49.8694 14.8261 49.8694H35.0434C36.1596 49.8694 37.0652 50.7744 37.0652 51.8912C37.0652 53.0081 36.1596 53.913 35.0434 53.913ZM41.1087 43.8043C41.1087 44.9212 40.203 45.8261 39.0869 45.8261H10.7827C9.66655 45.8261 8.76089 44.9212 8.76089 43.8043V26.2826C8.76089 25.1657 9.66655 24.2608 10.7827 24.2608H39.087C40.2031 24.2608 41.1088 25.1657 41.1088 26.2826V43.8043H41.1087Z" fill="white"/>
<path d="M27.6305 28.3044H22.2391V41.7827H27.6305V28.3044Z" fill="white"/>
<path d="M18.1957 28.3044H12.8043V41.7827H18.1957V28.3044Z" fill="white"/>
<path d="M37.0652 28.3044H31.6738V41.7827H37.0652V28.3044Z" fill="white"/>
</svg>
