<?xml version="1.0" encoding="utf-8"?>
<!-- Generator: Adobe Illustrator 24.0.3, SVG Export Plug-In . SVG Version: 6.00 Build 0)  -->
<svg version="1.1" id="Layer_3" xmlns="http://www.w3.org/2000/svg" xmlns:xlink="http://www.w3.org/1999/xlink" x="0px" y="0px"
	 viewBox="0 0 100 100" style="enable-background:new 0 0 100 100;" xml:space="preserve">
<style type="text/css">
	.st0{fill:#363635;}
	.st1{fill:#FFFFFF;}
</style>
<g>
	<path class="st1" d="M100,50c0-27.6-22.4-50-50-50C22.4,0,0,22.4,0,50c0,27.6,22.4,50,50,50C77.6,100,100,77.6,100,50z M62.2,93.2
		l-2.7-9.1c6.1-1.7,11.5-5,15.8-9.4l6.6,6.7C76.6,87,69.8,91.1,62.2,93.2z M84.5,41.8l9.2-2c0.8,3.3,1.2,6.7,1.2,10.3
		c0,3.5-0.4,7-1.2,10.3l-9.2-2c0.6-2.6,1-5.4,1-8.2C85.5,47.2,85.1,44.4,84.5,41.8z M62.2,6.8C69.8,8.9,76.6,13,82,18.5l-6.6,6.7
		c-4.3-4.4-9.7-7.7-15.8-9.4L62.2,6.8z M81.1,50c0,17.1-13.9,31.1-31.1,31.1S18.9,67.1,18.9,50S32.9,18.9,50,18.9S81.1,32.9,81.1,50
		z M37.8,6.8l2.7,9.1c-6.1,1.7-11.5,5-15.8,9.4L18,18.5C23.4,13,30.2,8.9,37.8,6.8z M6.3,60.3C5.5,57,5.1,53.5,5.1,50
		c0-3.5,0.4-7,1.2-10.3l9.2,2c-0.6,2.6-1,5.4-1,8.2c0,2.8,0.3,5.6,1,8.2L6.3,60.3z M37.8,93.2C30.2,91.1,23.4,87,18,81.5l6.6-6.7
		c4.3,4.4,9.7,7.7,15.8,9.4L37.8,93.2z"/>
	<path class="st1" d="M50,78.8c15.9,0,28.8-12.9,28.8-28.8c0-15.9-12.9-28.8-28.8-28.8c-15.9,0-28.8,12.9-28.8,28.8
		C21.2,65.9,34.1,78.8,50,78.8z M50,24.8c13.9,0,25.2,11.3,25.2,25.2S63.9,75.2,50,75.2S24.8,63.9,24.8,50S36.1,24.8,50,24.8z"/>
	<path class="st1" d="M53.2,62.5h-6.4c-2.7,0-4.9-2.2-4.9-4.9h-5.5c0,5.7,4.7,10.4,10.4,10.4h0.5v3.8h5.4V68h0.5
		c5.7,0,10.4-4.7,10.4-10.4c0-5.7-4.7-10.4-10.4-10.4h-6.4c-2.7,0-4.9-2.2-4.9-4.9c0-2.7,2.2-4.9,4.9-4.9h6.4c2.7,0,4.9,2.2,4.9,4.9
		h5.5c0-5.7-4.7-10.4-10.4-10.4h-0.5v-3.8h-5.4V32h-0.5c-5.7,0-10.4,4.7-10.4,10.4c0,5.7,4.7,10.4,10.4,10.4h6.4
		c2.7,0,4.9,2.2,4.9,4.9C58.1,60.4,55.9,62.5,53.2,62.5z"/>
</g>
</svg>
