<?xml version="1.0" encoding="utf-8"?>
<!-- Generator: Adobe Illustrator 24.0.3, SVG Export Plug-In . SVG Version: 6.00 Build 0)  -->
<svg version="1.1" id="Layer_3" xmlns="http://www.w3.org/2000/svg" xmlns:xlink="http://www.w3.org/1999/xlink" x="0px" y="0px"
	 viewBox="0 0 100 100" style="enable-background:new 0 0 100 100;" xml:space="preserve">
<style type="text/css">
	.st0{fill:#363635;}
	.st1{fill:#FFFFFF;}
</style>
<g id="_19-club">
	<g id="Glyph">
		<path class="st1" d="M75,33.3c-0.4,0-0.9,0-1.3,0c0.8-2.7,1.3-5.5,1.3-8.4C75,11.2,63.8,0,50,0S25,11.2,25,25
			c0,2.8,0.4,5.7,1.3,8.4c-0.4,0-0.9,0-1.3,0c-13.8,0-25,11.2-25,25s11.2,25,25,25c5.5-0.1,10.9-1.8,15.5-5c-1.1,5.8-3,10-5,12.1
			c-0.4,0.5-1.3,1.2-2.1,1.2c-2.3,0-4.2,1.9-4.2,4.2s1.9,4.2,4.2,4.2h33.3c2.3,0,4.2-1.9,4.2-4.2s-1.9-4.2-4.2-4.2
			c-0.7,0-1.5-0.5-2.4-1.4c-2.1-2.1-4.1-6.3-5.2-12c4.7,3.2,10.2,5,15.9,5c13.8,0,25-11.2,25-25S88.8,33.3,75,33.3z"/>
	</g>
</g>
</svg>
