<svg width="58" height="58" viewBox="0 0 58 58" fill="none" xmlns="http://www.w3.org/2000/svg">
<path d="M29.0007 57.999C45.0173 57.999 58.0003 45.0161 58.0003 28.9995C58.0003 12.9828 45.0173 0 29.0007 0C12.9841 0 0 12.9828 0 28.9995C0 45.0161 12.9841 57.999 29.0007 57.999ZM37.4933 13.4639C46.0727 13.4639 53.0289 20.4201 53.0289 28.9995C53.0289 37.5789 46.0727 44.5351 37.4933 44.5351C28.9138 44.5351 21.9575 37.5789 21.9575 28.9995C21.9575 20.4201 28.9137 13.4639 37.4933 13.4639Z" fill="white"/>
<path d="M32.0269 32.3949C32.0269 34.6121 33.9421 36.9561 38.1007 36.9561C41.9061 36.9561 44.402 34.9402 44.402 31.966C44.402 29.8742 42.9901 28.5134 41.3769 27.9081V27.8335C43.015 27.0269 43.7717 25.6399 43.7717 24.2293C43.7717 22.2383 42.1834 20.0198 38.3531 20.0198C35.0769 20.0198 32.5826 21.8593 32.5826 24.6319C32.5826 26.0688 33.363 27.4048 34.9513 28.2362V28.2858C33.1603 29.0689 32.0269 30.4287 32.0269 32.3949ZM38.1766 22.616C39.5873 22.616 40.1675 23.6239 40.1675 24.6579C40.1675 25.6659 39.3856 26.4725 38.5045 26.7247C37.1934 26.3221 36.2102 25.6161 36.2102 24.5063C36.2104 23.4985 36.8653 22.616 38.1766 22.616ZM37.9243 29.5723C39.4118 29.9761 40.4945 30.8325 40.4945 32.2693C40.4945 33.4288 39.5873 34.3113 38.2509 34.3113C36.8144 34.3113 35.9069 33.2027 35.9317 32.0182C35.9331 30.8325 36.664 29.9253 37.9243 29.5723Z" fill="white"/>
</svg>
