<?xml version="1.0" encoding="utf-8"?>
<!-- Generator: Adobe Illustrator 24.0.3, SVG Export Plug-In . SVG Version: 6.00 Build 0)  -->
<svg version="1.1" id="Layer_1" xmlns="http://www.w3.org/2000/svg" xmlns:xlink="http://www.w3.org/1999/xlink" x="0px" y="0px"
	 viewBox="0 0 250 250" style="enable-background:new 0 0 250 250;" xml:space="preserve">
<style type="text/css">
	.st0{fill-rule:evenodd;clip-rule:evenodd;fill:#FFFFFF;}
	.st1{fill:#FFFFFF;}
</style>
<g>
	<path class="st1" d="M125,0C56,0,0,56,0,125c0,69,56,125,125,125s125-56,125-125C250,56,194,0,125,0z M125,221.7
		c-53.3,0-96.7-43.4-96.7-96.7S71.7,28.3,125,28.3s96.7,43.4,96.7,96.7S178.3,221.7,125,221.7z"/>
	<g>
		<path class="st1" d="M137.8,115.2c-0.8,0.3-1.6,0.8-2.3,1.5c-1.4,1.4-2,3.1-2,4.9c0,0.9,0.2,1.8,0.5,2.6c0.3,0.8,0.8,1.6,1.5,2.3
			c0.3,0.3,0.7,0.6,1.1,0.9c2.3,1.5,5.3,1.5,7.6,0c0.4-0.3,0.7-0.6,1.1-0.9c1-1,1.7-2.3,1.9-3.6c0.1-0.4,0.1-0.9,0.1-1.3
			c0-1.8-0.7-3.6-2-4.9C143.3,114.7,140.3,114.2,137.8,115.2z"/>
		<path class="st1" d="M110.4,109.5c-1.1-0.7-2.4-1.2-3.9-1.2c-1.4,0-2.8,0.4-3.9,1.2c-1.8,1.2-3.1,3.4-3.1,5.8v0
			c0,3.8,3.1,6.9,6.9,6.9c3.8,0,6.9-3.1,6.9-6.9v0C113.5,112.9,112.3,110.8,110.4,109.5z"/>
		<path class="st1" d="M166.7,105.1c1.4-1.4,2-3.1,2-4.9c0-1.8-0.7-3.6-2-4.9c-2.7-2.7-7.1-2.7-9.8,0c-1.4,1.4-2,3.1-2,4.9
			c0,1.8,0.7,3.6,2,4.9C159.6,107.8,164,107.8,166.7,105.1z"/>
		<path class="st1" d="M91.4,123.5c-1,0-1.9,0.2-2.7,0.5c-0.4,0.2-0.8,0.4-1.2,0.6c-0.7,0.5-1.4,1.1-1.9,1.9c-0.5,0.7-0.9,1.6-1,2.5
			c-0.1,0.5-0.1,0.9-0.1,1.4v0c0,0.5,0,0.9,0.1,1.4c0.1,0.5,0.2,0.9,0.4,1.3c1.1,2.5,3.5,4.2,6.4,4.2c3.8,0,6.9-3.1,6.9-6.9
			c0-1-0.2-1.9-0.5-2.7C96.8,125.2,94.3,123.5,91.4,123.5z"/>
		<path class="st1" d="M79,139.2c-0.8-0.4-1.7-0.5-2.7-0.5c-1,0-1.9,0.2-2.7,0.5c-2.5,1.1-4.2,3.5-4.2,6.4v0c0,2.4,1.2,4.5,3.1,5.8
			c1.1,0.7,2.4,1.2,3.9,1.2c1.4,0,2.8-0.4,3.9-1.2c1.8-1.2,3.1-3.4,3.1-5.8v0C83.2,142.7,81.5,140.2,79,139.2z"/>
		<path class="st1" d="M156.9,138.1c-1.4,1.4-2,3.1-2,4.9c0,1.3,0.4,2.7,1.1,3.8c0.3,0.4,0.6,0.8,0.9,1.1s0.7,0.6,1.1,0.9
			c2.3,1.5,5.3,1.5,7.6,0c0.4-0.3,0.8-0.6,1.1-0.9c0.3-0.3,0.6-0.7,0.9-1.1c0.8-1.2,1.1-2.5,1.1-3.8c0-1.8-0.7-3.6-2-4.9
			C164,135.4,159.7,135.4,156.9,138.1z"/>
		<path class="st1" d="M166.8,116.7c-0.7-0.7-1.5-1.2-2.3-1.5c-2.5-1-5.5-0.5-7.5,1.5c-0.3,0.3-0.5,0.5-0.7,0.8
			c-0.4,0.6-0.7,1.2-1,1.8c-0.1,0.3-0.2,0.6-0.3,1c0,0,0,0.1,0,0.1c0,0.2-0.1,0.3-0.1,0.5c0,0.5,0,1,0,1.5c0.1,1,0.5,2,1,2.9
			c0.3,0.4,0.6,0.9,1,1.2c0.6,0.6,1.3,1.1,2,1.4s1.5,0.5,2.3,0.6c1.5,0.1,3.1-0.2,4.5-1.1c0.4-0.3,0.8-0.6,1.1-0.9
			c1.4-1.4,2-3.1,2-4.9c0-1.3-0.4-2.7-1.1-3.8C167.4,117.4,167.1,117,166.8,116.7z"/>
		<path class="st1" d="M125,32.9c-50.8,0-92.1,41.3-92.1,92.1s41.3,92.1,92.1,92.1s92.1-41.3,92.1-92.1S175.8,32.9,125,32.9z
			 M168.6,158.4c-3.7,3.7-9.7,3.7-13.5,0L125,128.3c-1.9-1.8-2.8-4.3-2.8-6.7v30.1c0,5.2-4.3,9.5-9.5,9.5H70.1
			c-5.2,0-9.5-4.3-9.5-9.5v-42.6c0-5.2,4.3-9.5,9.5-9.5h42.6c5.2,0,9.5,4.3,9.5,9.5v12.5c0-2.4,0.9-4.9,2.8-6.7l30.1-30.1
			c3.7-3.7,9.7-3.7,13.5,0l30.1,30.1c3.7,3.7,3.7,9.8,0,13.5L168.6,158.4z"/>
		<path class="st1" d="M181.9,114.8c-1.3,0.3-2.6,0.9-3.6,1.9c-1,1-1.7,2.3-1.9,3.6c-0.1,0.4-0.1,0.9-0.1,1.3s0,0.9,0.1,1.3
			c0.3,1.3,0.9,2.6,1.9,3.6c2.4,2.4,6,2.7,8.7,0.9c0.4-0.3,0.8-0.6,1.1-0.9c1.4-1.4,2-3.1,2-4.9c0-1.8-0.7-3.6-2-4.9
			C186.5,115,184.1,114.4,181.9,114.8z"/>
	</g>
</g>
</svg>
