<svg width="64" height="64" viewBox="0 0 64 64" fill="none" xmlns="http://www.w3.org/2000/svg">
<path d="M32 0C14.3271 0 0 14.3271 0 32C0 49.6729 14.3271 64 32 64C49.6729 64 64 49.6729 64 32C63.9802 14.3354 49.6646 0.0197917 32 0ZM33.1422 9.22552L44.2667 4.77865C45.5292 5.35 46.7505 6.00833 47.9219 6.74896L47.951 6.76719C49.1021 7.49635 50.2021 8.30313 51.2438 9.18177L51.3333 9.2599C51.8005 9.65781 52.2547 10.0698 52.6964 10.4948C52.7521 10.5495 52.8104 10.6016 52.8661 10.6573C53.3292 11.1094 53.7776 11.5755 54.2115 12.0552C54.2474 12.0958 54.2818 12.1385 54.3177 12.1792C54.6984 12.6057 55.0646 13.0474 55.4198 13.4964C55.5052 13.6031 55.5906 13.7099 55.6734 13.8167C56.0589 14.3156 56.4318 14.8234 56.7839 15.3474L54.5661 24.7745L43.6552 28.412L33.1448 20.0021L33.1422 9.22552ZM8.32552 13.8229C8.40833 13.7161 8.49271 13.6094 8.57813 13.5031C8.92917 13.0578 9.29219 12.6234 9.66719 12.1995C9.70781 12.1547 9.74531 12.1089 9.78542 12.0641C10.2167 11.5833 10.663 11.1177 11.1255 10.6667C11.1786 10.6146 11.2318 10.5599 11.2875 10.512C11.7255 10.0896 12.176 9.68021 12.6391 9.28438L12.7458 9.19479C13.7781 8.3224 14.8677 7.52083 16.0073 6.79479L16.049 6.76823C17.2135 6.02917 18.4271 5.37188 19.6823 4.8L30.8578 9.22552V19.999L20.3469 28.4073L9.43594 24.7766L7.21823 15.3495C7.57344 14.8266 7.94219 14.3198 8.32552 13.8229ZM7.0401 48.3682C6.72656 47.8901 6.42656 47.4031 6.14063 46.9068L6.07135 46.787C5.78698 46.2932 5.51771 45.7911 5.26406 45.2813L5.25521 45.2651C4.72083 44.1922 4.25156 43.088 3.85052 41.9583V41.9479C3.66094 41.4146 3.48802 40.8682 3.32813 40.3188L3.27031 40.1161C3.12396 39.6 2.99115 39.0781 2.8724 38.5505C2.86198 38.499 2.84896 38.45 2.83854 38.399C2.57656 37.2073 2.38854 36.001 2.275 34.7859L8.78698 26.9719L19.6224 30.5833L22.7672 43.1615L17.6 50.0365L7.0401 48.3682ZM39.1031 61.0057C38.5698 61.138 38.0224 61.2521 37.475 61.3547C37.3984 61.3698 37.3203 61.3823 37.2438 61.3964C36.7776 61.4797 36.3063 61.551 35.8339 61.6094C35.7078 61.6255 35.5828 61.6427 35.4573 61.6578C35.0188 61.7089 34.576 61.7474 34.1323 61.7792C33.9927 61.7885 33.8547 61.8026 33.7151 61.8115C33.1479 61.8464 32.576 61.8667 32 61.8667C31.4724 61.8667 30.9479 61.8526 30.4266 61.825C30.3635 61.825 30.3031 61.8146 30.2401 61.8099C29.776 61.7833 29.3141 61.7484 28.8531 61.7036L28.8 61.6938C27.7901 61.5844 26.7859 61.424 25.7922 61.2141L19.4828 51.3354L24.5688 44.5536H39.4313L44.6005 51.3802L39.1031 61.0057ZM61.1693 38.4C61.1583 38.451 61.1458 38.5005 61.1349 38.5516C61.0156 39.0786 60.8828 39.6005 60.737 40.1172L60.6797 40.3198C60.5193 40.8693 60.3469 41.4135 60.1568 41.949V41.9594C59.7557 43.0891 59.287 44.1932 58.7521 45.2661L58.7432 45.2823C58.488 45.7927 58.2193 46.2948 57.9359 46.788L57.8667 46.9078C57.5823 47.4057 57.2828 47.8917 56.9688 48.3672L46.4448 50.0266L41.2417 43.1573L44.3849 30.5823L55.2203 26.9708L61.7323 34.7849C61.6193 36.0005 61.4313 37.2078 61.1693 38.4V38.4Z" fill="white"/>
</svg>
