<svg xmlns="http://www.w3.org/2000/svg" x="0px" y="0px"
width="24" height="24"
viewBox="0 0 172 172"
style=" fill:#000000;"><g fill="none" fill-rule="nonzero" stroke="none" stroke-width="1" stroke-linecap="butt" stroke-linejoin="miter" stroke-miterlimit="10" stroke-dasharray="" stroke-dashoffset="0" font-family="none" font-weight="none" font-size="none" text-anchor="none" style="mix-blend-mode: normal"><path d="M0,172v-172h172v172z" fill="none"></path><g fill="#ffffff"><path d="M167.52083,0c-8.45442,0.39193 -27.68685,2.40756 -47.03125,12.09375c-7.89453,3.58333 -16.57292,9.40625 -23.73958,16.57292c-12.12174,12.12174 -29.47851,32.55794 -43.89583,50.16667h-31.35417l-14.33333,21.5l24.1875,6.49479c0.05599,0.86784 0.41992,2.07162 1.11979,3.80729l-3.80729,8.28646c0,0 -1.34375,2.85547 9.40625,14.33333c11.47787,11.47787 15.00521,10.07813 15.00521,10.07813l8.95833,-4.03125c1.11979,0.33594 2.07162,0.41992 2.6875,0.44792l6.94271,25.08333l21.5,-14.33333v-32.47396c17.69271,-14.27734 38.24089,-31.24219 50.16667,-42.77604c7.16667,-7.16667 12.9336,-15.84505 17.24479,-23.73958c12.17774,-25.81119 11.42188,-51.51042 11.42188,-51.51042c0,0 -1.65169,-0.13997 -4.47917,0zM121.83333,35.83333c7.89453,0 14.33333,6.43881 14.33333,14.33333c0,7.89453 -6.4388,14.33333 -14.33333,14.33333c-7.89453,0 -14.33333,-6.4388 -14.33333,-14.33333c0,-7.89453 6.43881,-14.33333 14.33333,-14.33333zM19.26042,121.83333c-1.42774,1.42774 -3.49935,2.82747 -4.92708,4.25521c-16.48893,16.48893 -14.33333,45.91146 -14.33333,45.91146c0,0 29.42253,2.1556 45.91146,-14.33333c1.42774,-1.42774 2.82747,-3.49935 4.25521,-4.92708c-1.42774,-0.72786 -2.1556,-1.51172 -3.58333,-2.23958c-13.60547,10.75 -34.48958,9.40625 -34.48958,9.40625c0,0 -1.34375,-20.88411 9.40625,-34.48958c-0.72786,-1.42774 -1.51172,-2.1556 -2.23958,-3.58333z"></path></g></g></svg>