<?xml version="1.0" encoding="utf-8"?>
<!-- Generator: Adobe Illustrator 24.0.3, SVG Export Plug-In . SVG Version: 6.00 Build 0)  -->
<svg version="1.1" id="Layer_1" xmlns="http://www.w3.org/2000/svg" xmlns:xlink="http://www.w3.org/1999/xlink" x="0px" y="0px"
	 viewBox="0 0 250 224.6" style="enable-background:new 0 0 250 224.6;" xml:space="preserve">
<style type="text/css">
	.st0{fill-rule:evenodd;clip-rule:evenodd;fill:#FFFFFF;}
	.st1{fill:#FFFFFF;}
</style>
<path class="st0" d="M243.9,124.3c-16.4,4.7-26.5,19-32,34.7c-5.9,16.8-7.1,36.4-4.6,54.3c0.2,1.7,2.4,2.2,3.4,0.9
	c0.8-1,1.6-2.1,2.3-3.2c12.2-18,25-62.5,30.6-85.4C243.7,125.1,243.8,124.7,243.9,124.3L243.9,124.3z M152.8,46.5
	c7.3-14.2,26.5-16.9,45.8-19.5c21.4-2.9,42.8-5.8,44.6-25.3c0.1-1.1,1.2-1.9,2.3-1.7l3,0.6c0.9,0.2,1.6,1,1.5,1.9
	c-1.5,23.4-24.8,26.6-48.2,29.8c-17.4,2.4-34.9,4.8-41.9,15.8c-0.5,0.8-1.6,1.1-2.4,0.6L152.8,46.5L152.8,46.5z M159.9,154.7
	c-14.6,0.7-37.4-4-37.6-20.7l0-1.5l-17.1-7.1c-0.4-0.1-0.7-0.2-1.1-0.1c-14.8,3.1-34.5,3-41.6-12.7c-0.3-0.7-1-1.1-1.7-1.2
	c-7.4-0.2-8.9,5.3-13.3,10.3c-7,7.8-17,16-27,19.4C6.5,145.9,0.5,138.9,0,125.9c0-0.8,0.2-1.7,0.5-2.4C12.9,99.2,24.4,71,32.1,44.7
	c0.2-0.8,0.6-1.6,1.1-2.3c4.8-7,7.7-11.7,14.4-17.8C59.1,14.2,72.8,8.3,88.5,9.9c18,1.8,36.8,11.5,41.3,30.2
	c0.1,0.5,0.4,0.9,0.8,1.2c10.9,6.6,28.8,14,40.7,17.7c6.6,2.1,11.7,1.2,18.3,0.1c11.7-1.9,25.4-1.2,36.7,2.8
	c29.4,10.4,25.2,32.2,19.2,56.2c-0.2,0.7-0.7,1.2-1.4,1.4c-18.6,4.7-30.2,20.2-36.5,37.9c-6.8,19.3-7.7,42.1-3.9,62.2
	c0.1,0.7-0.2,1.5-0.8,1.9c-3.7,2.4-7.8,3.5-12.3,2.9c-22.1-3-28.1-37.1-29.8-55C160.3,164.7,160.1,159.5,159.9,154.7L159.9,154.7z
	 M82,55.5c-8.5,0-15.4,5.5-15.4,12.2C66.6,74.5,73.5,80,82,80c8.5,0,15.4-5.5,15.4-12.2C97.4,61,90.5,55.5,82,55.5L82,55.5z
	 M147.3,82.3c-8.5,0-15.4,5.5-15.4,12.2c0,6.8,6.9,12.3,15.4,12.3c8.5,0,15.4-5.5,15.4-12.3C162.7,87.8,155.8,82.3,147.3,82.3
	L147.3,82.3z M185.4,77.1c-4.4,0-8,2.8-8,6.4c0,3.5,3.6,6.4,8,6.4c4.4,0,8-2.8,8-6.4C193.4,80,189.8,77.1,185.4,77.1L185.4,77.1z
	 M210,70.5c-4.4,0-8,2.8-8,6.4c0,3.5,3.6,6.4,8,6.4c4.4,0,8-2.8,8-6.4C218,73.3,214.4,70.5,210,70.5L210,70.5z M219.3,91.5
	c-4.4,0-8,2.8-8,6.4c0,3.5,3.6,6.4,8,6.4c4.4,0,8-2.8,8-6.4C227.3,94.3,223.7,91.5,219.3,91.5L219.3,91.5z M192.2,96.8
	c-4.4,0-8,2.8-8,6.4c0,3.5,3.6,6.4,8,6.4c4.4,0,8-2.8,8-6.4C200.2,99.7,196.6,96.8,192.2,96.8L192.2,96.8z M59.9,36
	c2.2,0.8,5.7,2.2,6.1,2.5c0.6,0.6,1.5,2.3-0.7,3.9c-2.2,1.6-4.4,3.6-2.3,5c2.2,1.5,6.6,3.1,8.3,2.3c1.7-0.7,3.9-6,6.7-5.9
	c2.8,0.1,8.4,2,10.3,2.3c1.8,0.4,3.2-1.7,4.7-4.3c1.5-2.5,0.9-3.1-1.3-3.6c-0.9-0.3-7.8-2-6.7-3.5c1.7-2.3,3.6-4.6,4.5-6.3
	c0.4-0.7,0-1.6-0.8-1.9c-2.4-1-7.2-2.3-8-2.1c-1.2,0.3-4.7,5.7-5.8,6.9c-1.1,1.2-2.3,0.3-4.7-0.6c-1.5-0.5-3.5-1.4-4.9-2
	C62.5,27.6,57.3,35,59.9,36L59.9,36z M118.1,58.3c-3.2-1.4-6.6-1.5-7.6-0.2c-1.1,1.3,0.6,3.4,3.8,4.8c3.2,1.4,6.6,1.5,7.6,0.2
	C122.9,61.8,121.2,59.7,118.1,58.3L118.1,58.3z M124.2,45.4c-3.2-1.4-6.6-1.5-7.6-0.2c-1.1,1.3,0.6,3.4,3.8,4.8
	c3.2,1.4,6.6,1.5,7.6,0.2C129,48.9,127.3,46.8,124.2,45.4L124.2,45.4z M169,63.6c-3.2-1.4-6.6-1.5-7.6-0.2c-1.1,1.3,0.6,3.4,3.8,4.8
	c3.2,1.4,6.6,1.5,7.6,0.2C173.9,67.1,172.2,64.9,169,63.6L169,63.6z M155.3,73.8c-3.2-1.4-6.6-1.5-7.6-0.2c-1.1,1.3,0.6,3.4,3.8,4.8
	c3.2,1.4,6.6,1.5,7.6,0.2C160.2,77.3,158.5,75.2,155.3,73.8L155.3,73.8z M165.6,101c-0.6,7.9-8.7,14.1-18.8,14.1
	c-8.9,0-16.4-4.9-18.3-11.5c0,0.3,0,0.6,0,0.9c0,8.3,8.4,14.9,18.8,14.9c10.4,0,18.8-6.7,18.8-14.9
	C166.1,103.2,165.9,102.1,165.6,101L165.6,101z M100.8,74c-0.5,7.6-8.4,13.5-18,13.5c-2,0-3.8-0.2-5.6-0.7c-7.2,21.4,6-17.8-1.2,3.6
	c2.2,0.8,4.7,1.2,7.3,1.2c10,0,18.1-6.4,18.1-14.4C101.3,76.2,101.1,75.1,100.8,74z"/>
</svg>
