<svg width="26" height="26" viewBox="0 0 26 26" fill="none" xmlns="http://www.w3.org/2000/svg">
<path opacity="0.8" d="M22.1966 3.80446C17.1242 -1.26685 8.87508 -1.26685 3.80271 3.80446C-1.26749 8.87577 -1.26749 17.127 3.80271 22.1983C6.33889 24.7335 9.66952 26.0004 13.0002 26.0004C16.3309 26.0004 19.6604 24.7334 22.1966 22.1983C27.2679 17.1271 27.2679 8.87577 22.1966 3.80446ZM18.3641 16.8333C18.7879 17.2571 18.7879 17.9421 18.3641 18.3659C18.1527 18.5772 17.8753 18.6834 17.5978 18.6834C17.3204 18.6834 17.0429 18.5772 16.8315 18.3659L13.0001 14.5334L9.16985 18.3647C8.95744 18.5761 8.67994 18.6823 8.40356 18.6823C8.12612 18.6823 7.84862 18.5761 7.63727 18.3647C7.2135 17.941 7.2135 17.2549 7.63727 16.8322L11.4676 13.0008L7.6362 9.16947C7.21244 8.74571 7.21244 8.05964 7.6362 7.63694C8.0589 7.21317 8.74497 7.21317 9.16874 7.63694L13.0001 11.4683L16.8315 7.63694C17.2552 7.21317 17.9402 7.21317 18.364 7.63694C18.7878 8.05964 18.7878 8.74571 18.364 9.16947L14.5326 13.0008L18.3641 16.8333Z" fill="#878DA1"/>
</svg>
