<svg width="14" height="14" viewBox="0 0 14 14" fill="none" xmlns="http://www.w3.org/2000/svg">
<path d="M6.29335 3.05329C6.5272 3.01745 6.76345 2.99962 7.00002 2.99996C9.12002 2.99996 11.1134 4.52663 12.2734 6.99996C12.0959 7.37636 11.8956 7.74149 11.6734 8.09329C11.6028 8.2025 11.5657 8.32995 11.5667 8.45996C11.5682 8.60545 11.6172 8.74646 11.7063 8.86148C11.7954 8.97649 11.9197 9.0592 12.0603 9.09697C12.2008 9.13474 12.3498 9.12551 12.4845 9.07068C12.6193 9.01585 12.7325 8.91843 12.8067 8.79329C13.1173 8.30525 13.3871 7.7924 13.6134 7.25996C13.6491 7.17678 13.6676 7.08718 13.6676 6.99663C13.6676 6.90608 13.6491 6.81648 13.6134 6.73329C12.2667 3.60663 9.73336 1.66663 7.00002 1.66663C6.68713 1.66505 6.37475 1.69183 6.06669 1.74663C5.97914 1.76151 5.89538 1.79349 5.82019 1.84075C5.74501 1.888 5.67986 1.9496 5.62848 2.02203C5.5771 2.09446 5.54048 2.1763 5.52073 2.26288C5.50098 2.34946 5.49847 2.43908 5.51336 2.52663C5.52824 2.61418 5.56022 2.69793 5.60747 2.77312C5.65473 2.84831 5.71633 2.91346 5.78876 2.96484C5.86119 3.01622 5.94303 3.05283 6.02961 3.07258C6.11619 3.09234 6.20581 3.09484 6.29335 3.07996V3.05329ZM1.47336 0.526627C1.4112 0.464468 1.3374 0.415161 1.25619 0.381521C1.17497 0.347881 1.08793 0.330566 1.00002 0.330566C0.912116 0.330566 0.82507 0.347881 0.743856 0.381521C0.662641 0.415161 0.588848 0.464468 0.526689 0.526627C0.401153 0.652163 0.330627 0.822426 0.330627 0.999961C0.330627 1.1775 0.401153 1.34776 0.526689 1.47329L2.59336 3.53329C1.6504 4.44098 0.899926 5.52929 0.386688 6.73329C0.34998 6.8174 0.331032 6.90819 0.331032 6.99996C0.331032 7.09173 0.34998 7.18252 0.386688 7.26663C1.73336 10.3933 4.26669 12.3333 7.00002 12.3333C8.19809 12.325 9.36787 11.9683 10.3667 11.3066L12.5267 13.4733C12.5887 13.5358 12.6624 13.5854 12.7436 13.6192C12.8249 13.6531 12.912 13.6705 13 13.6705C13.088 13.6705 13.1752 13.6531 13.2564 13.6192C13.3376 13.5854 13.4114 13.5358 13.4734 13.4733C13.5358 13.4113 13.5854 13.3376 13.6193 13.2563C13.6531 13.1751 13.6706 13.088 13.6706 13C13.6706 12.912 13.6531 12.8248 13.6193 12.7436C13.5854 12.6623 13.5358 12.5886 13.4734 12.5266L1.47336 0.526627ZM5.71336 6.65329L7.34669 8.28663C7.23401 8.31894 7.11723 8.33466 7.00002 8.33329C6.6464 8.33329 6.30726 8.19282 6.05721 7.94277C5.80716 7.69272 5.66669 7.35358 5.66669 6.99996C5.66532 6.88275 5.68104 6.76597 5.71336 6.65329ZM7.00002 11C4.88002 11 2.88669 9.47329 1.73336 6.99996C2.16408 6.04913 2.7754 5.19101 3.53336 4.47329L4.71336 5.66663C4.43619 6.17249 4.33052 6.75459 4.41219 7.3256C4.49387 7.89661 4.7585 8.42574 5.16637 8.83361C5.57425 9.24148 6.10338 9.50611 6.67438 9.58779C7.24539 9.66947 7.82749 9.5638 8.33335 9.28663L9.39336 10.3333C8.66742 10.7605 7.8423 10.9904 7.00002 11Z" fill="#ffffff"/>
</svg>
