<svg width="16" height="16" viewBox="0 0 16 16" fill="none" xmlns="http://www.w3.org/2000/svg">
<path d="M7.99998 12.6667C6.90656 12.6803 5.82445 12.4443 4.83598 11.9767C4.06978 11.6028 3.38175 11.0865 2.80865 10.4553C2.2016 9.80273 1.72362 9.04109 1.39998 8.21065L1.33331 7.99999L1.40331 7.78932C1.72719 6.95961 2.20414 6.19817 2.80931 5.54465C3.38221 4.91353 4.07 4.39723 4.83598 4.02332C5.82445 3.55571 6.90657 3.31973 7.99998 3.33332C9.09339 3.31975 10.1755 3.55573 11.164 4.02332C11.9302 4.39714 12.6182 4.91345 13.1913 5.54465C13.7995 6.19636 14.2776 6.95823 14.6 7.78932L14.6666 7.99999L14.5966 8.21065C13.5508 10.9332 10.9161 12.7129 7.99998 12.6667ZM7.99998 4.66665C5.73056 4.59554 3.64759 5.91672 2.74465 7.99999C3.64744 10.0834 5.73051 11.4046 7.99998 11.3333C10.2693 11.4042 12.3522 10.0831 13.2553 7.99999C12.3535 5.91571 10.2698 4.59404 7.99998 4.66665ZM7.99998 9.99999C7.0382 10.0064 6.20622 9.33156 6.01396 8.38917C5.82169 7.44678 6.32283 6.5 7.21024 6.12909C8.09764 5.75819 9.12347 6.06674 9.65901 6.86566C10.1946 7.66457 10.0902 8.7307 9.40998 9.41065C9.03753 9.78749 8.52982 9.9997 7.99998 9.99999Z" fill="#ffffff"/>
</svg>
