<svg width="20" height="18" viewBox="0 0 20 18" fill="none" xmlns="http://www.w3.org/2000/svg">
<path fill-rule="evenodd" clip-rule="evenodd" d="M16 4H17C17.7957 4 18.5587 4.31607 19.1213 4.87868C19.6839 5.44129 20 6.20435 20 7V15C20 15.7956 19.6839 16.5587 19.1213 17.1213C18.5587 17.6839 17.7957 18 17 18H3C2.20435 18 1.44129 17.6839 0.87868 17.1213C0.316071 16.5587 0 15.7956 0 15V3C0 2.20435 0.316071 1.44129 0.87868 0.87868C1.44129 0.316071 2.20435 0 3 0H13C13.7957 0 14.5587 0.316071 15.1213 0.87868C15.6839 1.44129 16 2.20435 16 3V4ZM13 2H3C2.73478 2 2.48043 2.10536 2.29289 2.29289C2.10536 2.48043 2 2.73478 2 3C2 3.26522 2.10536 3.51957 2.29289 3.70711C2.48043 3.89464 2.73478 4 3 4H14V3C14 2.73478 13.8946 2.48043 13.7071 2.29289C13.5196 2.10536 13.2652 2 13 2ZM17 12H18V10H17C16.7348 10 16.4804 10.1054 16.2929 10.2929C16.1054 10.4804 16 10.7348 16 11C16 11.2652 16.1054 11.5196 16.2929 11.7071C16.4804 11.8946 16.7348 12 17 12ZM11.037 14.3683C11.6119 13.8739 11.9305 13.1964 11.9928 12.3358H10.3448C10.3082 12.8229 10.1636 13.1836 9.91089 13.418C9.66187 13.6487 9.28284 13.764 8.7738 13.764C8.20984 13.764 7.79602 13.5645 7.53235 13.1653C7.27234 12.7661 7.14233 12.1344 7.14233 11.2701V10.6659C7.14966 9.83826 7.28882 9.22852 7.55981 8.83667C7.83447 8.44116 8.24646 8.24341 8.79578 8.24341C9.30115 8.24341 9.67651 8.3606 9.92188 8.59497C10.1709 8.82568 10.3156 9.19922 10.3558 9.71558H12.0038C11.9159 8.82202 11.59 8.12805 11.026 7.63367C10.462 7.13928 9.71863 6.89209 8.79578 6.89209C8.12927 6.89209 7.54333 7.04956 7.03796 7.3645C6.53625 7.67578 6.1499 8.12439 5.87891 8.71033C5.60791 9.29626 5.47241 9.97375 5.47241 10.7428V11.2317C5.47241 12.4365 5.76538 13.385 6.35132 14.0771C6.94092 14.7656 7.74841 15.1099 8.7738 15.1099C9.7113 15.1099 10.4657 14.8627 11.037 14.3683Z" fill="#8EC63F"/>
</svg>
