<svg width="20" height="18" viewBox="0 0 20 18" fill="none" xmlns="http://www.w3.org/2000/svg">
<path fill-rule="evenodd" clip-rule="evenodd" d="M16 4H17C17.7956 4 18.5587 4.31607 19.1213 4.87868C19.6839 5.44129 20 6.20435 20 7V15C20 15.7956 19.6839 16.5587 19.1213 17.1213C18.5587 17.6839 17.7956 18 17 18H3C2.20435 18 1.44129 17.6839 0.87868 17.1213C0.316071 16.5587 0 15.7956 0 15V3C0 2.20435 0.316071 1.44129 0.87868 0.87868C1.44129 0.316071 2.20435 0 3 0H13C13.7956 0 14.5587 0.316071 15.1213 0.87868C15.6839 1.44129 16 2.20435 16 3V4ZM13 2H3C2.73478 2 2.48043 2.10536 2.29289 2.29289C2.10536 2.48043 2 2.73478 2 3C2 3.26522 2.10536 3.51957 2.29289 3.70711C2.48043 3.89464 2.73478 4 3 4H14V3C14 2.73478 13.8946 2.48043 13.7071 2.29289C13.5196 2.10536 13.2652 2 13 2ZM17 12H18V10H17C16.7348 10 16.4804 10.1054 16.2929 10.2929C16.1054 10.4804 16 10.7348 16 11C16 11.2652 16.1054 11.5196 16.2929 11.7071C16.4804 11.8946 16.7348 12 17 12ZM6.11328 8.51172H7.85547V7.5625H3.22266V8.51172H4.94141V13.25H6.11328V8.51172ZM9.69922 13.25V11.2461H10.7266C11.401 11.2461 11.9284 11.0859 12.3086 10.7656C12.6914 10.4427 12.8828 10.0026 12.8828 9.44531C12.8828 9.07812 12.7956 8.7513 12.6211 8.46484C12.4466 8.17578 12.1966 7.95312 11.8711 7.79688C11.5482 7.64062 11.1732 7.5625 10.7461 7.5625H8.52734V13.25H9.69922ZM10.7461 10.2969H9.69922V8.51172H10.7734C11.0625 8.51693 11.2891 8.60547 11.4531 8.77734C11.6172 8.94922 11.6992 9.17448 11.6992 9.45312C11.6992 9.72396 11.6172 9.93229 11.4531 10.0781C11.2917 10.224 11.056 10.2969 10.7461 10.2969Z" fill="#E7AC16"/>
</svg>
