<svg width="14" height="12" viewBox="0 0 14 12" fill="none" xmlns="http://www.w3.org/2000/svg">
<path d="M13.6133 5.73329C12.2667 2.60663 9.73332 0.666626 6.99998 0.666626C4.26665 0.666626 1.73332 2.60663 0.38665 5.73329C0.349941 5.8174 0.330994 5.90819 0.330994 5.99996C0.330994 6.09173 0.349941 6.18251 0.38665 6.26663C1.73332 9.39329 4.26665 11.3333 6.99998 11.3333C9.73332 11.3333 12.2667 9.39329 13.6133 6.26663C13.65 6.18251 13.669 6.09173 13.669 5.99996C13.669 5.90819 13.65 5.8174 13.6133 5.73329ZM6.99998 9.99996C4.88665 9.99996 2.88665 8.47329 1.73332 5.99996C2.88665 3.52663 4.88665 1.99996 6.99998 1.99996C9.11332 1.99996 11.1133 3.52663 12.2667 5.99996C11.1133 8.47329 9.11332 9.99996 6.99998 9.99996ZM6.99998 3.33329C6.47257 3.33329 5.95699 3.48969 5.51846 3.78271C5.07993 4.07572 4.73814 4.4922 4.5363 4.97947C4.33447 5.46674 4.28166 6.00292 4.38456 6.5202C4.48745 7.03748 4.74143 7.51264 5.11437 7.88558C5.48731 8.25852 5.96246 8.51249 6.47974 8.61539C6.99703 8.71828 7.5332 8.66547 8.02047 8.46364C8.50774 8.2618 8.92422 7.92001 9.21724 7.48148C9.51025 7.04295 9.66665 6.52738 9.66665 5.99996C9.66665 5.29272 9.3857 4.61444 8.8856 4.11434C8.3855 3.61424 7.70723 3.33329 6.99998 3.33329ZM6.99998 7.33329C6.73628 7.33329 6.47849 7.25509 6.25922 7.10858C6.03996 6.96208 5.86906 6.75384 5.76814 6.5102C5.66723 6.26657 5.64082 5.99848 5.69227 5.73984C5.74372 5.4812 5.8707 5.24362 6.05717 5.05715C6.24364 4.87068 6.48122 4.74369 6.73986 4.69225C6.9985 4.6408 7.26659 4.6672 7.51023 4.76812C7.75386 4.86904 7.9621 5.03993 8.10861 5.2592C8.25512 5.47846 8.33332 5.73625 8.33332 5.99996C8.33332 6.35358 8.19284 6.69272 7.94279 6.94277C7.69274 7.19282 7.35361 7.33329 6.99998 7.33329Z" fill="#9399A9"/>
</svg>
