<svg width="14" height="13" viewBox="0 0 14 13" fill="none" xmlns="http://www.w3.org/2000/svg">
<path d="M13.6189 9.54069L11.6652 7.7265C10.9674 7.07857 9.7812 7.33777 9.50209 8.18005C9.29276 8.7632 8.595 9.08717 7.96701 8.95756C6.57148 8.63359 4.68751 6.94899 4.33863 5.58835C4.1293 5.00519 4.54796 4.35727 5.17595 4.16291C6.08304 3.90374 6.36215 2.80227 5.66439 2.15435L3.71064 0.34016C3.15243 -0.113387 2.31511 -0.113387 1.82668 0.34016L0.500926 1.57122C-0.824828 2.86707 0.640479 6.30107 3.91997 9.34631C7.19947 12.3916 10.8976 13.817 12.2932 12.5211L13.6189 11.2901C14.1074 10.7717 14.1074 9.99424 13.6189 9.54069Z" fill="#8D8D8D"/>
</svg>
